{
classes = (
{
code = "";
name = DevaIMatras;
}
);
copyright = "Copyright 2016 Michal Sahar. All rights reserved.";
customParameters = (
{
name = fsType;
value = (
);
},
{
name = license;
value = "This Font Software is licensed under the SIL Open Font License, Version 1.1. This license is available with a FAQ at: http://scripts.sil.org/OFL";
},
{
name = trademark;
value = "Miriam Libre is a tradmark of Michal Sahar";
},
{
name = licenseURL;
value = "http://scripts.sil.org/OFL";
},
{
name = vendorID;
value = MCHL;
}
);
date = "2016-03-12 18:16:49 +0000";
designer = "Michal Sahar";
designerURL = "http://hagilda.com";
familyName = "Miriam Libre";
featurePrefixes = (
{
automatic = 1;
code = "languagesystem DFLT dflt;\012languagesystem latn dflt;\012languagesystem hebr dflt;\012languagesystem latn ROM;\012languagesystem latn MOL;\012languagesystem latn KAZ;\012languagesystem latn TAT;\012languagesystem latn TRK;\012languagesystem latn CRT;\012languagesystem latn AZE;\012";
name = Languagesystems;
}
);
features = (
{
automatic = 1;
code = "feature ccmp;\012feature locl;\012feature sups;\012feature frac;\012feature ordn;\012feature c2sc;\012feature smcp;\012feature salt;\012feature ss01;\012";
name = aalt;
},
{
automatic = 1;
code = "lookup latn_comb1 {\012\011script latn;\012@CombiningTopAccents = [acutecomb brevecomb caroncomb circumflexcomb commaturnedabovecomb dieresiscomb dotaccentcomb gravecomb hungarumlautcomb macroncomb ringcomb tildecomb];\012@CombiningNonTopAccents = [cedillacomb ogonekcomb slashlongcomb slashshortcomb strokelongcomb strokeshortcomb];\012\011sub [i]' @CombiningTopAccents by [idotless];\012\011sub [i]' @CombiningNonTopAccents @CombiningTopAccents by [idotless];\012} latn_comb1;\012";
name = ccmp;
},
{
automatic = 1;

glyphs = (
{
glyphname = A;
lastChange = "2016-03-12 18:34:24 +0000";
layers = (
{
anchors = (
{
name = bottom;
position = "{318, 0}";
},
{
name = ogonek;
position = "{542, 10}";
},
{
name = top;
position = "{319, 710}";
}
);
hints = (
{
horizontal = 1;
origin = "{0, 31}";
target = up;
type = BottomGhost;
},
{
horizontal = 1;
origin = "{0, 4}";
target = "{1, 2}";
},
{
horizontal = 1;
origin = "{0, 21}";
target = down;
type = TopGhost;
}
);
layerId = "1D8279CA-6213-4437-A9CB-DE6E86D89D97";
name = Bold;
paths = (
{
closed = 1;
nodes = (
"124 0 LINE SMOOTH",
"138 0 OFFCURVE",
"151 9 OFFCURVE",
"155 23 CURVE SMOOTH",
"200 167 LINE",
"434 167 LINE",
"479 23 LINE SMOOTH",
"483 9 OFFCURVE",
"496 0 OFFCURVE",
"510 0 CURVE SMOOTH",
"582 0 LINE SMOOTH",
"596 0 OFFCURVE",
"606 10 OFFCURVE",
"606 23 CURVE SMOOTH",
"606 25 OFFCURVE",
"606 28 OFFCURVE",
"605 31 CURVE SMOOTH",
"388 698 LINE SMOOTH",
"384 711 OFFCURVE",
"371 720 OFFCURVE",
"357 720 CURVE SMOOTH",
"279 720 LINE SMOOTH",
"265 720 OFFCURVE",
"252 711 OFFCURVE",
"248 698 CURVE SMOOTH",
"31 31 LINE SMOOTH",
"30 28 OFFCURVE",
"30 25 OFFCURVE",
"30 23 CURVE SMOOTH",
"30 10 OFFCURVE",
"40 0 OFFCURVE",
"54 0 CURVE SMOOTH"
);
},
{
closed = 1;
nodes = (
"317 547 LINE",
"399 280 LINE",
"235 280 LINE"
);
}
);
width = 637;
}
);
leftKerningGroup = A;
rightKerningGroup = A;
unicode = 0041;
},
{
glyphname = Aogonek;
lastChange = "2016-03-12 18:34:24 +0000";
layers = (
{
hints = (
{
horizontal = 1;
origin = "{0, 48}";
target = "{0, 8}";
},
{
horizontal = 1;
origin = "{0, 35}";
target = up;
type = BottomGhost;
},
{
horizontal = 1;
origin = "{0, 40}";
target = "{1, 2}";
},
{
horizontal = 1;
origin = "{0, 25}";
target = down;
type = TopGhost;
},
{
origin = "{0, 45}";
target = "{0, 11}";
}
);
layerId = "1D8279CA-6213-4437-A9CB-DE6E86D89D97";
name = Bold;
paths = (
{
closed = 1;
nodes = (
"580 -193 LINE SMOOTH",
"589 -193 OFFCURVE",
"597 -185 OFFCURVE",
"597 -176 CURVE SMOOTH",
"597 -119 LINE SMOOTH",
"597 -109 OFFCURVE",
"589 -102 OFFCURVE",
"580 -102 CURVE SMOOTH",
"559 -102 LINE SMOOTH",
"532 -102 OFFCURVE",
"511 -88 OFFCURVE",
"511 -63 CURVE SMOOTH",
"511 -31 OFFCURVE",
"533 -14 OFFCURVE",
"579 -2 CURVE SMOOTH",
"594 2 OFFCURVE",
"602 14 OFFCURVE",
"602 28 CURVE SMOOTH",
"602 32 OFFCURVE",
"601 36 OFFCURVE",
"600 40 CURVE SMOOTH",
"388 698 LINE SMOOTH",
"384 711 OFFCURVE",
"371 720 OFFCURVE",
"357 720 CURVE SMOOTH",
"279 720 LINE SMOOTH",
"265 720 OFFCURVE",
"252 711 OFFCURVE",
"248 698 CURVE SMOOTH",
"31 31 LINE SMOOTH",
"30 28 OFFCURVE",
"30 25 OFFCURVE",
"30 23 CURVE SMOOTH",
"30 10 OFFCURVE",
"40 0 OFFCURVE",
"54 0 CURVE SMOOTH",
"124 0 LINE SMOOTH",
"138 0 OFFCURVE",
"151 9 OFFCURVE",
"155 23 CURVE SMOOTH",
"200 167 LINE",
"434 167 LINE",
"485 5 LINE",
"441 -20 OFFCURVE",
"418 -55 OFFCURVE",
"418 -94 CURVE SMOOTH",
"418 -157 OFFCURVE",
"478 -193 OFFCURVE",
"545 -193 CURVE SMOOTH"
);
},
{
closed = 1;
nodes = (
"317 547 LINE",
"398 280 LINE",
"236 280 LINE"
);
}
);
width = 633;
}
);
leftKerningGroup = A;
leftMetricsKey = A;
rightKerningGroup = A;
rightMetricsKey = A;
unicode = 0104;
},
{
glyphname = Aring;
lastChange = "2016-03-12 18:34:24 +0000";
layers = (
{
hints = (
{
horizontal = 1;
origin = "{0, 31}";
target = up;
type = BottomGhost;
},
{
horizontal = 1;
origin = "{0, 4}";
target = "{1, 2}";
},
{
horizontal = 1;
origin = "{0, 21}";
target = down;
type = TopGhost;
},
{
horizontal = 1;
origin = "{2, 11}";
target = "{3, 11}";
},
{
horizontal = 1;
origin = "{3, 5}";
target = "{2, 5}";
},
{
origin = "{2, 8}";
target = "{3, 2}";
},
{
origin = "{3, 8}";
target = "{2, 2}";
}
);
layerId = "1D8279CA-6213-4437-A9CB-DE6E86D89D97";
name = Bold;
paths = (
{
closed = 1;
nodes = (
"124 0 LINE SMOOTH",
"138 0 OFFCURVE",
"151 9 OFFCURVE",
"155 23 CURVE SMOOTH",
"200 167 LINE",
"434 167 LINE",
"479 23 LINE SMOOTH",
"483 9 OFFCURVE",
"496 0 OFFCURVE",
"510 0 CURVE SMOOTH",
"582 0 LINE SMOOTH",
"596 0 OFFCURVE",
"606 10 OFFCURVE",
"606 23 CURVE SMOOTH",
"606 25 OFFCURVE",
"606 28 OFFCURVE",
"605 31 CURVE SMOOTH",
"388 698 LINE SMOOTH",
"384 711 OFFCURVE",
"371 720 OFFCURVE",
"357 720 CURVE SMOOTH",
"279 720 LINE SMOOTH",
"265 720 OFFCURVE",
"252 711 OFFCURVE",
"248 698 CURVE SMOOTH",
"31 31 LINE SMOOTH",
"30 28 OFFCURVE",
"30 25 OFFCURVE",
"30 23 CURVE SMOOTH",
"30 10 OFFCURVE",
"40 0 OFFCURVE",
"54 0 CURVE SMOOTH"
);
},
{
closed = 1;
nodes = (
"317 547 LINE",
"399 280 LINE",
"235 280 LINE"
);
},
{
closed = 1;
nodes = (
"370 760 OFFCURVE",
"412 802 OFFCURVE",
"412 854 CURVE SMOOTH",
"412 907 OFFCURVE",
"370 949 OFFCURVE",
"317 949 CURVE SMOOTH",
"264 949 OFFCURVE",
"222 907 OFFCURVE",
"222 854 CURVE SMOOTH",
"222 802 OFFCURVE",
"264 760 OFFCURVE",
"317 760 CURVE SMOOTH"
);
},
{
closed = 1;
nodes = (
"301 824 OFFCURVE",
"286 838 OFFCURVE",
"286 854 CURVE SMOOTH",
"286 871 OFFCURVE",
"301 885 OFFCURVE",
"317 885 CURVE SMOOTH",
"333 885 OFFCURVE",
"348 871 OFFCURVE",
"348 854 CURVE SMOOTH",
"348 838 OFFCURVE",
"333 824 OFFCURVE",
"317 824 CURVE SMOOTH"
);
}
);
width = 637;
}
);
leftKerningGroup = A;
leftMetricsKey = A;
rightKerningGroup = A;
rightMetricsKey = A;
unicode = 00C5;
},
{
glyphname = AE;
lastChange = "2016-03-12 18:34:24 +0000";
layers = (
{
anchors = (
{
name = bottom;
position = "{514, 0}";
},
{
name = top;
position = "{514, 710}";
}
);
hints = (
{
horizontal = 1;
origin = "{0, 45}";
target = "{0, 18}";
},
{
horizontal = 1;
origin = "{0, 4}";
target = "{1, 2}";
},
{
horizontal = 1;
origin = "{0, 19}";
target = "{0, 28}";
},
{
horizontal = 1;
origin = "{0, 38}";
target = "{0, 29}";
},
{
origin = "{0, 6}";
target = "{0, 18}";
}
);
layerId = "1D8279CA-6213-4437-A9CB-DE6E86D89D97";
name = Bold;
paths = (
{
closed = 1;
nodes = (
"102 0 LINE SMOOTH",
"115 0 OFFCURVE",
"126 6 OFFCURVE",
"133 17 CURVE SMOOTH",
"228 167 LINE",
"429 167 LINE",
"429 43 LINE SMOOTH",
"429 19 OFFCURVE",
"448 0 OFFCURVE",
"472 0 CURVE SMOOTH",
"813 0 LINE SMOOTH",
"825 0 OFFCURVE",
"834 9 OFFCURVE",
"834 21 CURVE SMOOTH",
"834 96 LINE SMOOTH",
"834 108 OFFCURVE",
"825 117 OFFCURVE",
"813 117 CURVE SMOOTH",
"551 117 LINE",
"551 315 LINE",
"746 315 LINE SMOOTH",
"758 315 OFFCURVE",
"767 324 OFFCURVE",
"767 336 CURVE SMOOTH",
"767 407 LINE SMOOTH",
"767 419 OFFCURVE",
"758 428 OFFCURVE",
"746 428 CURVE SMOOTH",
"551 428 LINE",
"551 598 LINE",
"813 598 LINE SMOOTH",
"825 598 OFFCURVE",
"834 607 OFFCURVE",
"834 619 CURVE SMOOTH",
"834 694 LINE SMOOTH",
"834 706 OFFCURVE",
"825 715 OFFCURVE",
"813 715 CURVE SMOOTH",
"466 715 LINE SMOOTH",
"450 715 OFFCURVE",
"434 706 OFFCURVE",
"426 693 CURVE SMOOTH",
"5 41 LINE SMOOTH",
"-7 22 OFFCURVE",
"4 0 OFFCURVE",
"27 0 CURVE SMOOTH"
);
},
{
closed = 1;
nodes = (
"429 493 LINE",
"429 276 LINE",
"295 276 LINE"
);
}
);
width = 894;
}
);
rightKerningGroup = E;
rightMetricsKey = E;
unicode = 00C6;
},
{
glyphname = B;
lastChange = "2016-03-12 18:34:24 +0000";
layers = (
{
anchors = (
{
name = bottom;
position = "{275, 0}";
},
{
name = top;
position = "{265, 710}";
}
);
hints = (
{
horizontal = 1;
origin = "{0, 20}";
target = "{1, 8}";
},
{
horizontal = 1;
origin = "{1, 0}";
target = "{2, 8}";
},
{
horizontal = 1;
origin = "{0, 13}";
target = "{2, 0}";
},
{
origin = "{0, 17}";
target = "{1, 8}";
},
{
origin = "{1, 4}";
target = "{0, 3}";
},
{
origin = "{2, 4}";
target = "{0, 9}";
}
);
layerId = "1D8279CA-6213-4437-A9CB-DE6E86D89D97";
name = Bold;
paths = (
{
closed = 1;
nodes = (
"328 0 LINE SMOOTH",
"450 0 OFFCURVE",
"547 97 OFFCURVE",
"547 218 CURVE SMOOTH",
"547 299 OFFCURVE",
"507 360 OFFCURVE",
"440 388 CURVE",
"481 423 OFFCURVE",
"502 465 OFFCURVE",
"502 515 CURVE SMOOTH",
"502 626 OFFCURVE",
"411 715 OFFCURVE",
"298 715 CURVE SMOOTH",
"121 715 LINE SMOOTH",
"97 715 OFFCURVE",
"78 696 OFFCURVE",
"78 672 CURVE SMOOTH",
"78 43 LINE SMOOTH",
"78 19 OFFCURVE",
"97 0 OFFCURVE",
"121 0 CURVE SMOOTH"
);
},
{
closed = 1;
nodes = (
"198 318 LINE",
"323 318 LINE SMOOTH",
"382 318 OFFCURVE",
"426 276 OFFCURVE",
"426 218 CURVE SMOOTH",
"426 157 OFFCURVE",
"383 114 OFFCURVE",
"323 114 CURVE SMOOTH",
"198 114 LINE"
);
},
{
closed = 1;
nodes = (
"198 602 LINE",
"289 602 LINE SMOOTH",
"340 602 OFFCURVE",
"382 562 OFFCURVE",
"382 513 CURVE SMOOTH",
"382 466 OFFCURVE",
"340 426 OFFCURVE",
"289 426 CURVE SMOOTH",
"198 426 LINE"
);
}
);
width = 587;
}
);
leftKerningGroup = H;
rightKerningGroup = B;
unicode = 0042;
},
{
glyphname = C;
lastChange = "2016-03-12 18:34:24 +0000";
layers = (
{
anchors = (
{
name = bottom;
position = "{320, 0}";
},
{
name = top;
position = "{320, 710}";
}
);
hints = (
{
horizontal = 1;
origin = "{0, 51}";
target = "{0, 18}";
},
{
horizontal = 1;
origin = "{0, 44}";
target = "{0, 25}";
},
{
origin = "{0, 48}";
target = "{0, 21}";
},
{
horizontal = 1;
origin = "{0, 31}";
target = up;
type = BottomGhost;
},
{
horizontal = 1;
origin = "{0, 12}";
target = down;
type = TopGhost;
}
);
layerId = "1D8279CA-6213-4437-A9CB-DE6E86D89D97";
name = Bold;
paths = (
{
closed = 1;
nodes = (
"402 -13 OFFCURVE",
"475 19 OFFCURVE",
"525 76 CURVE SMOOTH",
"529 81 OFFCURVE",
"531 86 OFFCURVE",
"531 92 CURVE SMOOTH",
"531 99 OFFCURVE",
"528 106 OFFCURVE",
"522 112 CURVE SMOOTH",
"478 158 LINE SMOOTH",
"473 163 OFFCURVE",
"467 166 OFFCURVE",
"461 166 CURVE SMOOTH",
"455 166 OFFCURVE",
"449 163 OFFCURVE",
"444 157 CURVE SMOOTH",
"413 123 OFFCURVE",
"371 104 OFFCURVE",
"321 104 CURVE SMOOTH",
"246 104 OFFCURVE",
"183 171 OFFCURVE",
"183 251 CURVE SMOOTH",
"183 464 LINE SMOOTH",
"183 544 OFFCURVE",
"246 611 OFFCURVE",
"321 611 CURVE SMOOTH",
"371 611 OFFCURVE",
"413 592 OFFCURVE",
"444 558 CURVE SMOOTH",
"449 552 OFFCURVE",
"456 549 OFFCURVE",
"462 549 CURVE SMOOTH",
"468 549 OFFCURVE",
"473 552 OFFCURVE",
"478 557 CURVE SMOOTH",
"522 603 LINE SMOOTH",
"527 609 OFFCURVE",
"530 616 OFFCURVE",
"530 623 CURVE SMOOTH",
"530 629 OFFCURVE",
"528 635 OFFCURVE",
"524 640 CURVE SMOOTH",
"474 697 OFFCURVE",
"401 728 OFFCURVE",
"320 728 CURVE SMOOTH",
"177 728 OFFCURVE",
"61 610 OFFCURVE",
"61 464 CURVE SMOOTH",
"61 251 LINE SMOOTH",
"61 105 OFFCURVE",
"177 -13 OFFCURVE",
"320 -13 CURVE SMOOTH"
);
}
);
width = 581;
}
);
leftKerningGroup = O;
rightKerningGroup = C;
unicode = 0043;
},
{
glyphname = D;
lastChange = "2016-03-12 18:34:24 +0000";
layers = (
{
anchors = (
{
name = bottom;
position = "{308, 0}";
},
{
name = center;
position = "{152, 358}";
},
{
name = top;
position = "{308, 710}";
}
);
hints = (
{
horizontal = 1;
origin = "{0, 15}";
target = "{1, 9}";
},
{
horizontal = 1;
origin = "{0, 8}";
target = "{1, 0}";
},
{
origin = "{0, 12}";
target = "{1, 9}";
},
{
origin = "{1, 5}";
target = "{0, 3}";
}
);
layerId = "1D8279CA-6213-4437-A9CB-DE6E86D89D97";
name = Bold;
paths = (
{
closed = 1;
nodes = (
"317 0 LINE SMOOTH",
"473 0 OFFCURVE",
"593 122 OFFCURVE",
"593 279 CURVE SMOOTH",
"593 436 LINE SMOOTH",
"593 593 OFFCURVE",
"473 715 OFFCURVE",
"317 715 CURVE SMOOTH",
"121 715 LINE SMOOTH",
"97 715 OFFCURVE",
"78 696 OFFCURVE",
"78 672 CURVE SMOOTH",
"78 43 LINE SMOOTH",
"78 19 OFFCURVE",
"97 0 OFFCURVE",
"121 0 CURVE SMOOTH"
);
},
{
closed = 1;
nodes = (
"200 598 LINE",
"312 598 LINE SMOOTH",
"400 598 OFFCURVE",
"471 527 OFFCURVE",
"471 439 CURVE SMOOTH",
"471 277 LINE SMOOTH",
"471 188 OFFCURVE",
"400 117 OFFCURVE",
"312 117 CURVE SMOOTH",
"200 117 LINE"
);
}
);
width = 652;
}
);
leftKerningGroup = H;
rightKerningGroup = D;
unicode = 0044;
},
{
glyphname = E;
lastChange = "2016-03-12 18:34:24 +0000";
layers = (
{
anchors = (
{
name = bottom;
position = "{298, 0}";
},
{
name = ogonek;
position = "{448, 10}";
},
{
name = top;
position = "{286, 710}";
},
{
name = topleft;
position = "{18, 715}";
}
);
hints = (
{
horizontal = 1;
origin = "{0, 35}";
target = "{0, 8}";
},
{
horizontal = 1;
origin = "{0, 9}";
target = "{0, 18}";
},
{
horizontal = 1;
origin = "{0, 28}";
target = "{0, 19}";
},
{
origin = "{0, 32}";
target = "{0, 8}";
}
);
layerId = "1D8279CA-6213-4437-A9CB-DE6E86D89D97";
name = Bold;
paths = (
{
closed = 1;
nodes = (
"462 0 LINE SMOOTH",
"474 0 OFFCURVE",
"483 9 OFFCURVE",
"483 21 CURVE SMOOTH",
"483 96 LINE SMOOTH",
"483 108 OFFCURVE",
"474 117 OFFCURVE",
"462 117 CURVE SMOOTH",
"200 117 LINE",
"200 315 LINE",
"395 315 LINE SMOOTH",
"407 315 OFFCURVE",
"416 324 OFFCURVE",
"416 336 CURVE SMOOTH",
"416 407 LINE SMOOTH",
"416 419 OFFCURVE",
"407 428 OFFCURVE",
"395 428 CURVE SMOOTH",
"200 428 LINE",
"200 598 LINE",
"462 598 LINE SMOOTH",
"474 598 OFFCURVE",
"483 607 OFFCURVE",
"483 619 CURVE SMOOTH",
"483 694 LINE SMOOTH",
"483 706 OFFCURVE",
"474 715 OFFCURVE",
"462 715 CURVE SMOOTH",
"121 715 LINE SMOOTH",
"97 715 OFFCURVE",
"78 696 OFFCURVE",
"78 672 CURVE SMOOTH",
"78 43 LINE SMOOTH",
"78 19 OFFCURVE",
"97 0 OFFCURVE",
"121 0 CURVE SMOOTH"
);
}
);
width = 543;
}
);
leftKerningGroup = H;
rightKerningGroup = E;
unicode = 0045;
},
{
glyphname = Eogonek;
lastChange = "2016-03-12 18:34:24 +0000";
layers = (
{
hints = (
{
horizontal = 1;
origin = "{0, 56}";
target = "{0, 8}";
},
{
horizontal = 1;
origin = "{0, 49}";
target = "{0, 22}";
},
{
horizontal = 1;
origin = "{0, 23}";
target = "{0, 32}";
},
{
horizontal = 1;
origin = "{0, 42}";
target = "{0, 33}";
},
{
origin = "{0, 46}";
target = "{0, 22}";
},
{
origin = "{0, 53}";
target = "{0, 3}";
}
);
layerId = "1D8279CA-6213-4437-A9CB-DE6E86D89D97";
name = Bold;
paths = (
{
closed = 1;
nodes = (
"466 -193 LINE SMOOTH",
"475 -193 OFFCURVE",
"483 -185 OFFCURVE",
"483 -176 CURVE SMOOTH",
"483 -119 LINE SMOOTH",
"483 -109 OFFCURVE",
"475 -102 OFFCURVE",
"466 -102 CURVE SMOOTH",
"445 -102 LINE SMOOTH",
"418 -102 OFFCURVE",
"397 -88 OFFCURVE",
"397 -63 CURVE SMOOTH",
"397 -35 OFFCURVE",
"423 -13 OFFCURVE",
"463 -3 CURVE SMOOTH",
"475 -1 OFFCURVE",
"483 8 OFFCURVE",
"483 19 CURVE SMOOTH",
"483 96 LINE SMOOTH",
"483 108 OFFCURVE",
"474 117 OFFCURVE",
"462 117 CURVE SMOOTH",
"200 117 LINE",
"200 315 LINE",
"395 315 LINE SMOOTH",
"407 315 OFFCURVE",
"416 324 OFFCURVE",
"416 336 CURVE SMOOTH",
"416 407 LINE SMOOTH",
"416 419 OFFCURVE",
"407 428 OFFCURVE",
"395 428 CURVE SMOOTH",
"200 428 LINE",
"200 598 LINE",
"462 598 LINE SMOOTH",
"474 598 OFFCURVE",
"483 607 OFFCURVE",
"483 619 CURVE SMOOTH",
"483 694 LINE SMOOTH",
"483 706 OFFCURVE",
"474 715 OFFCURVE",
"462 715 CURVE SMOOTH",
"121 715 LINE SMOOTH",
"97 715 OFFCURVE",
"78 696 OFFCURVE",
"78 672 CURVE SMOOTH",
"78 43 LINE SMOOTH",
"78 19 OFFCURVE",
"97 0 OFFCURVE",
"121 0 CURVE SMOOTH",
"363 0 LINE",
"324 -24 OFFCURVE",
"304 -57 OFFCURVE",
"304 -94 CURVE SMOOTH",
"304 -157 OFFCURVE",
"364 -193 OFFCURVE",
"431 -193 CURVE SMOOTH"
);
}
);
width = 543;
}
);
leftKerningGroup = H;
leftMetricsKey = E;
rightKerningGroup = E;
rightMetricsKey = E;
unicode = 0118;
},
{
glyphname = F;
lastChange = "2016-03-12 18:34:24 +0000";
layers = (
{
anchors = (
{
name = bottom;
position = "{140, 0}";
},
{
name = top;
position = "{290, 710}";
}
);
hints = (
{
horizontal = 1;
origin = "{0, 30}";
target = up;
type = BottomGhost;
},
{
horizontal = 1;
origin = "{0, 4}";
target = "{0, 13}";
},
{
horizontal = 1;
origin = "{0, 23}";
target = "{0, 14}";
},
{
origin = "{0, 27}";
target = "{0, 3}";
}
);
layerId = "1D8279CA-6213-4437-A9CB-DE6E86D89D97";
name = Bold;
paths = (
{
closed = 1;
nodes = (
"179 0 LINE SMOOTH",
"191 0 OFFCURVE",
"200 9 OFFCURVE",
"200 21 CURVE SMOOTH",
"200 298 LINE",
"395 298 LINE SMOOTH",
"407 298 OFFCURVE",
"416 307 OFFCURVE",
"416 319 CURVE SMOOTH",
"416 390 LINE SMOOTH",
"416 402 OFFCURVE",
"407 411 OFFCURVE",
"395 411 CURVE SMOOTH",
"200 411 LINE",
"200 598 LINE",
"462 598 LINE SMOOTH",
"474 598 OFFCURVE",
"483 607 OFFCURVE",
"483 619 CURVE SMOOTH",
"483 694 LINE SMOOTH",
"483 706 OFFCURVE",
"474 715 OFFCURVE",
"462 715 CURVE SMOOTH",
"121 715 LINE SMOOTH",
"97 715 OFFCURVE",
"78 696 OFFCURVE",
"78 672 CURVE SMOOTH",
"78 21 LINE SMOOTH",
"78 9 OFFCURVE",
"87 0 OFFCURVE",
"99 0 CURVE SMOOTH"
);
}
);
width = 528;
}
);
leftKerningGroup = H;
rightKerningGroup = F;
unicode = 0046;
},
{
glyphname = G;
lastChange = "2016-03-12 18:34:24 +0000";
layers = (
{
anchors = (
{
name = bottom;
position = "{324, 0}";
},
{
name = top;
position = "{324, 710}";
}
);
hints = (
{
horizontal = 1;
origin = "{0, 52}";
target = "{0, 19}";
},
{
horizontal = 1;
origin = "{0, 14}";
target = "{0, 7}";
},
{
horizontal = 1;
origin = "{0, 45}";
target = "{0, 26}";
},
{
origin = "{0, 49}";
target = "{0, 22}";
},
{
origin = "{0, 16}";
target = "{0, 2}";
},
{
horizontal = 1;
origin = "{0, 32}";
target = up;
type = BottomGhost;
}
);
layerId = "1D8279CA-6213-4437-A9CB-DE6E86D89D97";
name = Bold;
paths = (
{
closed = 1;
nodes = (
"470 -13 OFFCURVE",
"588 105 OFFCURVE",
"588 251 CURVE SMOOTH",
"588 367 LINE SMOOTH",
"588 391 OFFCURVE",
"569 410 OFFCURVE",
"545 410 CURVE SMOOTH",
"334 410 LINE SMOOTH",
"322 410 OFFCURVE",
"313 401 OFFCURVE",
"313 389 CURVE SMOOTH",
"313 317 LINE SMOOTH",
"313 305 OFFCURVE",
"322 296 OFFCURVE",
"334 296 CURVE SMOOTH",
"468 296 LINE",
"468 247 LINE SMOOTH",
"468 168 OFFCURVE",
"404 104 OFFCURVE",
"326 104 CURVE SMOOTH",
"248 104 OFFCURVE",
"183 171 OFFCURVE",
"183 251 CURVE SMOOTH",
"183 464 LINE SMOOTH",
"183 544 OFFCURVE",
"248 611 OFFCURVE",
"326 611 CURVE SMOOTH",
"378 611 OFFCURVE",
"422 592 OFFCURVE",
"454 558 CURVE SMOOTH",
"459 552 OFFCURVE",
"466 549 OFFCURVE",
"472 549 CURVE SMOOTH",
"478 549 OFFCURVE",
"483 552 OFFCURVE",
"488 557 CURVE SMOOTH",
"532 603 LINE SMOOTH",
"537 609 OFFCURVE",
"540 616 OFFCURVE",
"540 623 CURVE SMOOTH",
"540 629 OFFCURVE",
"538 635 OFFCURVE",
"534 640 CURVE SMOOTH",
"483 697 OFFCURVE",
"408 728 OFFCURVE",
"325 728 CURVE SMOOTH",
"179 728 OFFCURVE",
"61 610 OFFCURVE",
"61 464 CURVE SMOOTH",
"61 251 LINE SMOOTH",
"61 105 OFFCURVE",
"179 -13 OFFCURVE",
"325 -13 CURVE SMOOTH"
);
}
);
width = 642;
}
);
leftKerningGroup = O;
rightKerningGroup = G;
unicode = 0047;
},
{
glyphname = H;
lastChange = "2016-03-12 18:34:24 +0000";
layers = (
{
anchors = (
{
name = bottom;
position = "{348, 0}";
},
{
name = center;
position = "{348, 563}";
},
{
name = top;
position = "{345, 710}";
},
{
name = topleft;
position = "{18, 710}";
}
);
hints = (
{
horizontal = 1;
origin = "{0, 35}";
target = up;
type = BottomGhost;
},
{
horizontal = 1;
origin = "{0, 4}";
target = "{0, 23}";
},
{
horizontal = 1;
origin = "{0, 28}";
target = down;
type = TopGhost;
},
{
origin = "{0, 32}";
target = "{0, 3}";
},
{
origin = "{0, 6}";
target = "{0, 13}";
}
);
layerId = "1D8279CA-6213-4437-A9CB-DE6E86D89D97";
name = Bold;
paths = (
{
closed = 1;
nodes = (
"179 0 LINE SMOOTH",
"191 0 OFFCURVE",
"200 9 OFFCURVE",
"200 21 CURVE SMOOTH",
"200 309 LINE",
"496 309 LINE",
"496 21 LINE SMOOTH",
"496 9 OFFCURVE",
"505 0 OFFCURVE",
"517 0 CURVE SMOOTH",
"597 0 LINE SMOOTH",
"609 0 OFFCURVE",
"618 9 OFFCURVE",
"618 21 CURVE SMOOTH",
"618 694 LINE SMOOTH",
"618 706 OFFCURVE",
"609 715 OFFCURVE",
"597 715 CURVE SMOOTH",
"517 715 LINE SMOOTH",
"505 715 OFFCURVE",
"496 706 OFFCURVE",
"496 694 CURVE SMOOTH",
"496 424 LINE",
"200 424 LINE",
"200 694 LINE SMOOTH",
"200 706 OFFCURVE",
"191 715 OFFCURVE",
"179 715 CURVE SMOOTH",
"99 715 LINE SMOOTH",
"87 715 OFFCURVE",
"78 706 OFFCURVE",
"78 694 CURVE SMOOTH",
"78 21 LINE SMOOTH",
"78 9 OFFCURVE",
"87 0 OFFCURVE",
"99 0 CURVE SMOOTH"
);
}
);
width = 699;
}
);
leftKerningGroup = H;
rightKerningGroup = H;
unicode = 0048;
},
{
glyphname = I;
lastChange = "2016-03-12 18:34:24 +0000";
layers = (
{
anchors = (
{
name = bottom;
position = "{224, 0}";
},
{
name = ogonek;
position = "{363, 10}";
},
{
name = top;
position = "{224, 710}";
},
{
name = topleft;
position = "{27, 710}";
}
);
hints = (
{
horizontal = 1;
origin = "{0, 35}";
target = "{0, 28}";
},
{
horizontal = 1;
origin = "{0, 18}";
target = "{0, 25}";
},
{
origin = "{0, 27}";
target = "{0, 8}";
}
);
layerId = "1D8279CA-6213-4437-A9CB-DE6E86D89D97";
name = Bold;
paths = (
{
closed = 1;
nodes = (
"370 0 LINE SMOOTH",
"382 0 OFFCURVE",
"391 9 OFFCURVE",
"391 21 CURVE SMOOTH",
"391 90 LINE SMOOTH",
"391 102 OFFCURVE",
"382 111 OFFCURVE",
"370 111 CURVE SMOOTH",
"285 111 LINE",
"285 604 LINE",
"370 604 LINE SMOOTH",
"382 604 OFFCURVE",
"391 613 OFFCURVE",
"391 625 CURVE SMOOTH",
"391 694 LINE SMOOTH",
"391 706 OFFCURVE",
"382 715 OFFCURVE",
"370 715 CURVE SMOOTH",
"78 715 LINE SMOOTH",
"66 715 OFFCURVE",
"57 706 OFFCURVE",
"57 694 CURVE SMOOTH",
"57 625 LINE SMOOTH",
"57 613 OFFCURVE",
"66 604 OFFCURVE",
"78 604 CURVE SMOOTH",
"163 604 LINE",
"163 111 LINE",
"78 111 LINE SMOOTH",
"66 111 OFFCURVE",
"57 102 OFFCURVE",
"57 90 CURVE SMOOTH",
"57 21 LINE SMOOTH",
"57 9 OFFCURVE",
"66 0 OFFCURVE",
"78 0 CURVE SMOOTH"
);
}
);
width = 450;
}
);
leftKerningGroup = I;
rightKerningGroup = I;
unicode = 0049;
},
{
glyphname = Iogonek;
lastChange = "2016-03-12 18:34:24 +0000";
layers = (
{
hints = (
{
horizontal = 1;
origin = "{0, 56}";
target = "{0, 8}";
},
{
horizontal = 1;
origin = "{0, 49}";
target = "{0, 42}";
},
{
horizontal = 1;
origin = "{0, 32}";
target = "{0, 39}";
},
{
origin = "{0, 53}";
target = "{0, 3}";
},
{
origin = "{0, 41}";
target = "{0, 22}";
}
);
layerId = "1D8279CA-6213-4437-A9CB-DE6E86D89D97";
name = Bold;
paths = (
{
closed = 1;
nodes = (
"374 -193 LINE SMOOTH",
"383 -193 OFFCURVE",
"391 -185 OFFCURVE",
"391 -176 CURVE SMOOTH",
"391 -119 LINE SMOOTH",
"391 -109 OFFCURVE",
"383 -102 OFFCURVE",
"374 -102 CURVE SMOOTH",
"353 -102 LINE SMOOTH",
"326 -102 OFFCURVE",
"305 -88 OFFCURVE",
"305 -63 CURVE SMOOTH",
"305 -35 OFFCURVE",
"331 -13 OFFCURVE",
"371 -3 CURVE SMOOTH",
"383 -1 OFFCURVE",
"391 8 OFFCURVE",
"391 19 CURVE SMOOTH",
"391 93 LINE SMOOTH",
"391 105 OFFCURVE",
"382 114 OFFCURVE",
"370 114 CURVE SMOOTH",
"285 114 LINE",
"285 601 LINE",
"370 601 LINE SMOOTH",
"382 601 OFFCURVE",
"391 610 OFFCURVE",
"391 622 CURVE SMOOTH",
"391 694 LINE SMOOTH",
"391 706 OFFCURVE",
"382 715 OFFCURVE",
"370 715 CURVE SMOOTH",
"78 715 LINE SMOOTH",
"66 715 OFFCURVE",
"57 706 OFFCURVE",
"57 694 CURVE SMOOTH",
"57 622 LINE SMOOTH",
"57 610 OFFCURVE",
"66 601 OFFCURVE",
"78 601 CURVE SMOOTH",
"163 601 LINE",
"163 114 LINE",
"78 114 LINE SMOOTH",
"66 114 OFFCURVE",
"57 105 OFFCURVE",
"57 93 CURVE SMOOTH",
"57 21 LINE SMOOTH",
"57 9 OFFCURVE",
"66 0 OFFCURVE",
"78 0 CURVE SMOOTH",
"271 0 LINE",
"232 -24 OFFCURVE",
"212 -57 OFFCURVE",
"212 -94 CURVE SMOOTH",
"212 -157 OFFCURVE",
"272 -193 OFFCURVE",
"339 -193 CURVE SMOOTH"
);
}
);
width = 450;
}
);
leftKerningGroup = I;
leftMetricsKey = I;
rightKerningGroup = I;
rightMetricsKey = I;
unicode = 012E;
},
{
glyphname = J;
lastChange = "2016-03-12 18:34:24 +0000";
layers = (
{
anchors = (
{
name = bottom;
position = "{233, 0}";
},
{
name = top;
position = "{233, 687}";
}
);
associatedMasterId = "1D8279CA-6213-4437-A9CB-DE6E86D89D97";
hints = (
{
horizontal = 1;
origin = "{0, 27}";
target = "{0, 14}";
},
{
horizontal = 1;
origin = "{0, 7}";
target = down;
type = TopGhost;
},
{
origin = "{0, 11}";
target = "{0, 2}";
}
);
layerId = "8E1F9C8C-62F4-4AB5-B597-35ECC1E01F18";
name = "Regular Mar 6 16, 02:32";
paths = (
{
closed = 1;
nodes = (
"215 -13 OFFCURVE",
"272 59 OFFCURVE",
"272 144 CURVE SMOOTH",
"272 681 LINE SMOOTH",
"272 689 OFFCURVE",
"266 695 OFFCURVE",
"258 695 CURVE SMOOTH",
"204 695 LINE SMOOTH",
"196 695 OFFCURVE",
"190 689 OFFCURVE",
"190 681 CURVE SMOOTH",
"190 137 LINE SMOOTH",
"190 93 OFFCURVE",
"163 64 OFFCURVE",
"122 64 CURVE SMOOTH",
"98 64 OFFCURVE",
"77 77 OFFCURVE",
"61 94 CURVE SMOOTH",
"55 101 OFFCURVE",
"46 102 OFFCURVE",
"40 97 CURVE SMOOTH",
"7 69 LINE SMOOTH",
"-1 62 OFFCURVE",
"-3 51 OFFCURVE",
"3 42 CURVE SMOOTH",
"29 8 OFFCURVE",
"69 -13 OFFCURVE",
"121 -13 CURVE SMOOTH"
);
}
);
width = 367;
},
{
anchors = (
{
name = bottom;
position = "{237, 0}";
},
{
name = top;
position = "{237, 710}";
}
);
hints = (
{
horizontal = 1;
origin = "{0, 23}";
target = "{0, 16}";
},
{
horizontal = 1;
origin = "{0, 8}";
target = down;
type = TopGhost;
},
{
origin = "{0, 12}";
target = "{0, 3}";
}
);
layerId = "1D8279CA-6213-4437-A9CB-DE6E86D89D97";
name = Bold;
paths = (
{
closed = 1;
nodes = (
"130 0 LINE SMOOTH",
"227 0 OFFCURVE",
"297 73 OFFCURVE",
"297 173 CURVE SMOOTH",
"297 694 LINE SMOOTH",
"297 706 OFFCURVE",
"288 715 OFFCURVE",
"276 715 CURVE SMOOTH",
"196 715 LINE SMOOTH",
"184 715 OFFCURVE",
"175 706 OFFCURVE",
"175 694 CURVE SMOOTH",
"175 173 LINE SMOOTH",
"175 137 OFFCURVE",
"154 115 OFFCURVE",
"121 115 CURVE SMOOTH",
"47 115 LINE SMOOTH",
"35 115 OFFCURVE",
"26 106 OFFCURVE",
"26 94 CURVE SMOOTH",
"26 21 LINE SMOOTH",
"26 9 OFFCURVE",
"35 0 OFFCURVE",
"47 0 CURVE SMOOTH"
);
}
);
width = 383;
},
{
anchors = (
{
name = bottom;
position = "{257, 0}";
},
{
name = top;
position = "{257, 710}";
}
);
associatedMasterId = "1D8279CA-6213-4437-A9CB-DE6E86D89D97";
hints = (
{
horizontal = 1;
origin = "{0, 14}";
target = "{0, 7}";
},
{
horizontal = 1;
origin = "{0, 0}";
target = down;
type = TopGhost;
},
{
origin = "{0, 4}";
target = "{0, 17}";
},
{
horizontal = 1;
place = "{200.000000, -20.000000}";
target = down;
type = TopGhost;
}
);
layerId = "28D62933-309E-4E6D-AB02-F7020D728988";
name = "Bold Mar 8 16, 21:31";
paths = (
{
closed = 1;
nodes = (
"216 715 LINE SMOOTH",
"204 715 OFFCURVE",
"195 706 OFFCURVE",
"195 694 CURVE SMOOTH",
"195 157 LINE SMOOTH",
"195 124 OFFCURVE",
"175 104 OFFCURVE",
"146 104 CURVE SMOOTH",
"122 104 OFFCURVE",
"95 118 OFFCURVE",
"77 149 CURVE",
"-5 74 LINE",
"30 18 OFFCURVE",
"81 -13 OFFCURVE",
"147 -13 CURVE SMOOTH",
"246 -13 OFFCURVE",
"317 59 OFFCURVE",
"317 161 CURVE SMOOTH",
"317 694 LINE SMOOTH",
"317 706 OFFCURVE",
"308 715 OFFCURVE",
"296 715 CURVE SMOOTH"
);
}
);
width = 402;
},
{
anchors = (
{
name = bottom;
position = "{244, 0}";
},
{
name = top;
position = "{244, 687}";
}
);
associatedMasterId = "1D8279CA-6213-4437-A9CB-DE6E86D89D97";
hints = (
{
horizontal = 1;
origin = "{0, 33}";
target = "{0, 14}";
},
{
horizontal = 1;
origin = "{0, 7}";
target = down;
type = TopGhost;
},
{
origin = "{0, 11}";
target = "{0, 2}";
},
{
horizontal = 1;
origin = "{0, 20}";
target = down;
type = TopGhost;
}
);
layerId = "095C575A-DA01-45EE-84F8-7137D1EBC8A2";
name = "Regular Mar 8 16, 21:42";
paths = (
{
closed = 1;
nodes = (
"218 -13 OFFCURVE",
"283 55 OFFCURVE",
"283 156 CURVE SMOOTH",
"283 681 LINE SMOOTH",
"283 689 OFFCURVE",
"277 695 OFFCURVE",
"269 695 CURVE SMOOTH",
"215 695 LINE SMOOTH",
"207 695 OFFCURVE",
"201 689 OFFCURVE",
"201 681 CURVE SMOOTH",
"201 147 LINE SMOOTH",
"201 96 OFFCURVE",
"168 62 OFFCURVE",
"122 62 CURVE SMOOTH",
"93 62 OFFCURVE",
"74 75 OFFCURVE",
"59 89 CURVE SMOOTH",
"55 92 OFFCURVE",
"51 94 OFFCURVE",
"47 94 CURVE SMOOTH",
"43 94 OFFCURVE",
"40 92 OFFCURVE",
"37 89 CURVE SMOOTH",
"3 51 LINE SMOOTH",
"1 49 OFFCURVE",
"0 46 OFFCURVE",
"0 43 CURVE SMOOTH",
"0 40 OFFCURVE",
"1 38 OFFCURVE",
"3 35 CURVE SMOOTH",
"31 5 OFFCURVE",
"71 -13 OFFCURVE",
"121 -13 CURVE SMOOTH"
);
}
);
width = 378;
},
{
anchors = (
{
name = bottom;
position = "{257, 0}";
},
{
name = top;
position = "{257, 710}";
}
);
associatedMasterId = "1D8279CA-6213-4437-A9CB-DE6E86D89D97";
hints = (
{
horizontal = 1;
origin = "{0, 33}";
target = "{0, 14}";
},
{
horizontal = 1;
origin = "{0, 7}";
target = down;
type = TopGhost;
},
{
origin = "{0, 11}";
target = "{0, 2}";
},
{
horizontal = 1;
origin = "{0, 20}";
target = down;
type = TopGhost;
}
);
layerId = "08A4BAF7-7219-47B9-BE5D-B9F8C1F9782B";
name = "Bold Mar 8 16, 21:44";
paths = (
{
closed = 1;
nodes = (
"241 -13 OFFCURVE",
"317 68 OFFCURVE",
"317 176 CURVE SMOOTH",
"317 694 LINE SMOOTH",
"317 706 OFFCURVE",
"308 715 OFFCURVE",
"296 715 CURVE SMOOTH",
"216 715 LINE SMOOTH",
"204 715 OFFCURVE",
"195 706 OFFCURVE",
"195 694 CURVE SMOOTH",
"195 166 LINE SMOOTH",
"195 128 OFFCURVE",
"172 101 OFFCURVE",
"134 101 CURVE SMOOTH",
"111 101 OFFCURVE",
"90 114 OFFCURVE",
"76 128 CURVE SMOOTH",
"71 133 OFFCURVE",
"64 137 OFFCURVE",
"59 137 CURVE SMOOTH",
"54 137 OFFCURVE",
"49 135 OFFCURVE",
"45 130 CURVE SMOOTH",
"-2 80 LINE SMOOTH",
"-6 76 OFFCURVE",
"-8 71 OFFCURVE",
"-8 65 CURVE SMOOTH",
"-8 61 OFFCURVE",
"-6 57 OFFCURVE",
"-3 53 CURVE SMOOTH",
"31 11 OFFCURVE",
"81 -13 OFFCURVE",
"138 -13 CURVE SMOOTH"
);
}
);
width = 402;
}
);
leftKerningGroup = J;
rightKerningGroup = J;
unicode = 004A;
},
{
glyphname = K;
lastChange = "2016-03-12 18:34:24 +0000";
layers = (
{
anchors = (
{
name = bottom;
position = "{316, 0}";
},
{
name = top;
position = "{312, 687}";
}
);
associatedMasterId = "1D8279CA-6213-4437-A9CB-DE6E86D89D97";
hints = (
{
horizontal = 1;
origin = "{1, 15}";
target = up;
type = BottomGhost;
},
{
horizontal = 1;
origin = "{1, 8}";
target = down;
type = TopGhost;
},
{
origin = "{1, 12}";
target = "{1, 3}";
}
);
layerId = "7429F9EB-3483-4721-A61E-B29454BFF557";
name = "Regular Mar 6 16, 02:40";
paths = (
{
closed = 1;
nodes = (
"555 667 LINE SMOOTH",
"566 679 OFFCURVE",
"558 695 OFFCURVE",
"542 695 CURVE SMOOTH",
"488 695 LINE SMOOTH",
"478 695 OFFCURVE",
"470 692 OFFCURVE",
"463 684 CURVE SMOOTH",
"109 302 LINE",
"122 201 LINE"
);
},
{
closed = 1;
nodes = (
"157 0 LINE SMOOTH",
"165 0 OFFCURVE",
"172 5 OFFCURVE",
"172 13 CURVE SMOOTH",
"172 681 LINE SMOOTH",
"172 689 OFFCURVE",
"166 695 OFFCURVE",
"158 695 CURVE SMOOTH",
"104 695 LINE SMOOTH",
"96 695 OFFCURVE",
"90 689 OFFCURVE",
"90 681 CURVE SMOOTH",
"90 13 LINE SMOOTH",
"90 5 OFFCURVE",
"97 0 OFFCURVE",
"105 0 CURVE SMOOTH"
);
},
{
closed = 1;
nodes = (
"541 0 LINE SMOOTH",
"557 0 OFFCURVE",
"565 15 OFFCURVE",
"557 28 CURVE SMOOTH",
"301 430 LINE",
"238 378 LINE",
"473 8 LINE SMOOTH",
"476 3 OFFCURVE",
"482 0 OFFCURVE",
"488 0 CURVE SMOOTH"
);
}
);
width = 598;
},
{
anchors = (
{
name = bottom;
position = "{315, 0}";
},
{
name = top;
position = "{318, 710}";
}
);
hints = (
{
horizontal = 1;
origin = "{0, 31}";
target = up;
type = BottomGhost;
},
{
horizontal = 1;
origin = "{0, 36}";
target = "{0, 19}";
},
{
horizontal = 1;
origin = "{0, 24}";
target = down;
type = TopGhost;
},
{
origin = "{0, 28}";
target = "{0, 35}";
}
);
layerId = "1D8279CA-6213-4437-A9CB-DE6E86D89D97";
name = Bold;
paths = (
{
closed = 1;
nodes = (
"597 -1 OFFCURVE",
"605 8 OFFCURVE",
"605 17 CURVE SMOOTH",
"605 22 OFFCURVE",
"603 26 OFFCURVE",
"600 30 CURVE SMOOTH",
"339 362 LINE",
"599 684 LINE SMOOTH",
"602 688 OFFCURVE",
"604 692 OFFCURVE",
"604 697 CURVE SMOOTH",
"604 706 OFFCURVE",
"596 715 OFFCURVE",
"584 715 CURVE SMOOTH",
"493 715 LINE SMOOTH",
"481 715 OFFCURVE",
"470 710 OFFCURVE",
"463 701 CURVE SMOOTH",
"233 412 LINE",
"200 412 LINE",
"200 694 LINE SMOOTH",
"200 706 OFFCURVE",
"191 715 OFFCURVE",
"179 715 CURVE SMOOTH",
"99 715 LINE SMOOTH",
"87 715 OFFCURVE",
"78 706 OFFCURVE",
"78 694 CURVE SMOOTH",
"78 21 LINE SMOOTH",
"78 9 OFFCURVE",
"87 0 OFFCURVE",
"99 0 CURVE SMOOTH",
"179 0 LINE SMOOTH",
"191 0 OFFCURVE",
"200 9 OFFCURVE",
"200 21 CURVE SMOOTH",
"200 299 LINE",
"238 299 LINE",
"463 14 LINE SMOOTH",
"470 5 OFFCURVE",
"481 0 OFFCURVE",
"492 0 CURVE SMOOTH",
"585 -1 LINE SMOOTH"
);
}
);
width = 628;
}
);
leftKerningGroup = H;
rightKerningGroup = K;
unicode = 004B;
},
{
glyphname = L;
lastChange = "2016-03-12 18:34:24 +0000";
layers = (
{
anchors = (
{
name = bottom;
position = "{266, 0}";
},
{
name = center;
position = "{157, 384}";
},
{
name = top;
position = "{141, 710}";
},
{
name = topright;
position = "{463, 710}";
}
);
hints = (
{
horizontal = 1;
origin = "{0, 20}";
target = "{0, 8}";
},
{
horizontal = 1;
origin = "{0, 13}";
target = down;
type = TopGhost;
},
{
origin = "{0, 17}";
target = "{0, 8}";
}
);
layerId = "1D8279CA-6213-4437-A9CB-DE6E86D89D97";
name = Bold;
paths = (
{
closed = 1;
nodes = (
"432 0 LINE SMOOTH",
"444 0 OFFCURVE",
"453 9 OFFCURVE",
"453 21 CURVE SMOOTH",
"453 96 LINE SMOOTH",
"453 108 OFFCURVE",
"444 117 OFFCURVE",
"432 117 CURVE SMOOTH",
"200 117 LINE",
"200 694 LINE SMOOTH",
"200 706 OFFCURVE",
"191 715 OFFCURVE",
"179 715 CURVE SMOOTH",
"99 715 LINE SMOOTH",
"87 715 OFFCURVE",
"78 706 OFFCURVE",
"78 694 CURVE SMOOTH",
"78 43 LINE SMOOTH",
"78 19 OFFCURVE",
"97 0 OFFCURVE",
"121 0 CURVE SMOOTH"
);
}
);
width = 485;
}
);
leftKerningGroup = H;
rightKerningGroup = L;
unicode = 004C;
},
{
glyphname = Lcaron;
lastChange = "2016-03-12 18:34:24 +0000";
layers = (
{
hints = (
{
horizontal = 1;
origin = "{0, 20}";
target = "{0, 8}";
},
{
horizontal = 1;
origin = "{1, 18}";
target = "{0, 13}";
},
{
origin = "{0, 17}";
target = "{0, 8}";
}
);
layerId = "1D8279CA-6213-4437-A9CB-DE6E86D89D97";
name = Bold;
paths = (
{
closed = 1;
nodes = (
"432 0 LINE SMOOTH",
"444 0 OFFCURVE",
"453 9 OFFCURVE",
"453 21 CURVE SMOOTH",
"453 96 LINE SMOOTH",
"453 108 OFFCURVE",
"444 117 OFFCURVE",
"432 117 CURVE SMOOTH",
"200 117 LINE",
"200 694 LINE SMOOTH",
"200 706 OFFCURVE",
"191 715 OFFCURVE",
"179 715 CURVE SMOOTH",
"99 715 LINE SMOOTH",
"87 715 OFFCURVE",
"78 706 OFFCURVE",
"78 694 CURVE SMOOTH",
"78 43 LINE SMOOTH",
"78 19 OFFCURVE",
"97 0 OFFCURVE",
"121 0 CURVE SMOOTH"
);
},
{
closed = 1;
nodes = (
"383 585 LINE SMOOTH",
"390 585 OFFCURVE",
"398 587 OFFCURVE",
"404 593 CURVE SMOOTH",
"507 689 LINE SMOOTH",
"510 692 OFFCURVE",
"512 697 OFFCURVE",
"512 700 CURVE SMOOTH",
"512 708 OFFCURVE",
"506 715 OFFCURVE",
"497 715 CURVE SMOOTH",
"389 715 LINE SMOOTH",
"381 715 OFFCURVE",
"372 710 OFFCURVE",
"369 702 CURVE SMOOTH",
"324 605 LINE SMOOTH",
"319 594 OFFCURVE",
"326 585 OFFCURVE",
"337 585 CURVE SMOOTH"
);
}
);
width = 520;
}
);
leftKerningGroup = H;
leftMetricsKey = L;
unicode = 013D;
},
{
glyphname = Lslash;
lastChange = "2016-03-12 18:34:24 +0000";
layers = (
{
anchors = (
{
name = bottom;
position = "{266, 0}";
},
{
name = center;
position = "{157, 384}";
},
{
name = top;
position = "{141, 710}";
},
{
name = topright;
position = "{463, 710}";
}
);
hints = (
{
horizontal = 1;
origin = "{0, 20}";
target = "{0, 8}";
},
{
horizontal = 1;
origin = "{0, 13}";
target = down;
type = TopGhost;
},
{
origin = "{0, 17}";
target = "{0, 8}";
},
{
horizontal = 1;
origin = "{1, 10}";
target = down;
type = TopGhost;
},
{
horizontal = 1;
origin = "{1, 21}";
target = up;
type = BottomGhost;
}
);
layerId = "1D8279CA-6213-4437-A9CB-DE6E86D89D97";
name = Bold;
paths = (
{
closed = 1;
nodes = (
"432 0 LINE SMOOTH",
"444 0 OFFCURVE",
"453 9 OFFCURVE",
"453 21 CURVE SMOOTH",
"453 96 LINE SMOOTH",
"453 108 OFFCURVE",
"444 117 OFFCURVE",
"432 117 CURVE SMOOTH",
"200 117 LINE",
"200 694 LINE SMOOTH",
"200 706 OFFCURVE",
"191 715 OFFCURVE",
"179 715 CURVE SMOOTH",
"99 715 LINE SMOOTH",
"87 715 OFFCURVE",
"78 706 OFFCURVE",
"78 694 CURVE SMOOTH",
"78 43 LINE SMOOTH",
"78 19 OFFCURVE",
"97 0 OFFCURVE",
"121 0 CURVE SMOOTH"
);
},
{
closed = 1;
nodes = (
"17 200 OFFCURVE",
"22 202 OFFCURVE",
"27 206 CURVE SMOOTH",
"309 455 LINE SMOOTH",
"316 461 OFFCURVE",
"319 469 OFFCURVE",
"319 478 CURVE SMOOTH",
"318 549 LINE SMOOTH",
"318 561 OFFCURVE",
"310 569 OFFCURVE",
"300 569 CURVE SMOOTH",
"296 569 OFFCURVE",
"291 567 OFFCURVE",
"286 563 CURVE SMOOTH",
"4 314 LINE SMOOTH",
"-3 308 OFFCURVE",
"-6 300 OFFCURVE",
"-6 291 CURVE SMOOTH",
"-5 220 LINE SMOOTH",
"-5 208 OFFCURVE",
"3 200 OFFCURVE",
"13 200 CURVE SMOOTH"
);
}
);
width = 485;
}
);
rightKerningGroup = L;
unicode = 0141;
},
{
glyphname = M;
lastChange = "2016-03-12 18:34:24 +0000";
layers = (
{
anchors = (
{
name = bottom;
position = "{466, 0}";
},
{
name = top;
position = "{466, 710}";
}
);
hints = (
{
horizontal = 1;
origin = "{0, 48}";
target = up;
type = BottomGhost;
},
{
horizontal = 1;
origin = "{0, 30}";
target = down;
type = TopGhost;
},
{
horizontal = 1;
origin = "{0, 37}";
target = up;
type = BottomGhost;
},
{
horizontal = 1;
origin = "{0, 0}";
target = "{0, 24}";
},
{
horizontal = 1;
origin = "{0, 29}";
target = "{0, 43}";
}
);
layerId = "1D8279CA-6213-4437-A9CB-DE6E86D89D97";
name = Bold;
paths = (
{
closed = 1;
nodes = (
"499 -6 LINE SMOOTH",
"513 -6 OFFCURVE",
"526 3 OFFCURVE",
"530 17 CURVE SMOOTH",
"659 416 LINE",
"685 510 LINE",
"695 424 LINE",
"740 24 LINE SMOOTH",
"742 10 OFFCURVE",
"754 0 OFFCURVE",
"768 0 CURVE SMOOTH",
"846 0 LINE SMOOTH",
"860 0 OFFCURVE",
"870 10 OFFCURVE",
"868 25 CURVE SMOOTH",
"785 688 LINE SMOOTH",
"783 706 OFFCURVE",
"769 718 OFFCURVE",
"751 718 CURVE SMOOTH",
"668 718 LINE SMOOTH",
"654 718 OFFCURVE",
"641 709 OFFCURVE",
"637 696 CURVE SMOOTH",
"486 233 LINE",
"466 165 LINE",
"446 234 LINE",
"296 695 LINE SMOOTH",
"292 709 OFFCURVE",
"279 718 OFFCURVE",
"265 718 CURVE SMOOTH",
"174 718 LINE SMOOTH",
"156 718 OFFCURVE",
"142 706 OFFCURVE",
"140 688 CURVE SMOOTH",
"57 25 LINE SMOOTH",
"55 10 OFFCURVE",
"65 0 OFFCURVE",
"79 0 CURVE SMOOTH",
"154 0 LINE SMOOTH",
"168 0 OFFCURVE",
"180 11 OFFCURVE",
"182 25 CURVE SMOOTH",
"225 417 LINE",
"235 510 LINE",
"260 420 LINE",
"392 16 LINE SMOOTH",
"396 3 OFFCURVE",
"409 -6 OFFCURVE",
"423 -6 CURVE SMOOTH"
);
}
);
width = 927;
}
);
leftKerningGroup = M;
rightKerningGroup = M;
unicode = 004D;
},
{
glyphname = N;
lastChange = "2016-03-12 18:34:24 +0000";
layers = (
{
anchors = (
{
name = bottom;
position = "{348, 0}";
},
{
name = top;
position = "{356, 710}";
}
);
hints = (
{
horizontal = 1;
origin = "{0, 35}";
target = up;
type = BottomGhost;
},
{
horizontal = 1;
origin = "{0, 28}";
target = down;
type = TopGhost;
},
{
origin = "{0, 32}";
target = "{0, 3}";
},
{
origin = "{0, 9}";
target = "{0, 13}";
}
);
layerId = "1D8279CA-6213-4437-A9CB-DE6E86D89D97";
name = Bold;
paths = (
{
closed = 1;
nodes = (
"171 0 LINE SMOOTH",
"183 0 OFFCURVE",
"192 8 OFFCURVE",
"192 21 CURVE SMOOTH",
"192 503 LINE",
"231 435 LINE",
"479 15 LINE",
"485 6 OFFCURVE",
"495 0 OFFCURVE",
"506 0 CURVE SMOOTH",
"589 0 LINE SMOOTH",
"605 0 OFFCURVE",
"618 13 OFFCURVE",
"618 29 CURVE SMOOTH",
"618 694 LINE SMOOTH",
"618 706 OFFCURVE",
"609 715 OFFCURVE",
"597 715 CURVE SMOOTH",
"525 715 LINE SMOOTH",
"513 715 OFFCURVE",
"504 706 OFFCURVE",
"504 694 CURVE SMOOTH",
"504 210 LINE",
"456 294 LINE",
"216 700 LINE",
"210 709 OFFCURVE",
"200 715 OFFCURVE",
"189 715 CURVE SMOOTH",
"107 715 LINE SMOOTH",
"91 715 OFFCURVE",
"78 702 OFFCURVE",
"78 686 CURVE SMOOTH",
"78 21 LINE SMOOTH",
"78 9 OFFCURVE",
"87 0 OFFCURVE",
"99 0 CURVE SMOOTH"
);
}
);
width = 699;
}
);
leftKerningGroup = H;
rightKerningGroup = H;
unicode = 004E;
},
{
glyphname = Eng;
lastChange = "2016-03-12 18:34:24 +0000";
layers = (
{
hints = (
{
horizontal = 1;
origin = "{0, 42}";
target = "{0, 35}";
},
{
horizontal = 1;
origin = "{0, 24}";
target = up;
type = BottomGhost;
},
{
horizontal = 1;
origin = "{0, 17}";
target = down;
type = TopGhost;
},
{
origin = "{0, 21}";
target = "{0, 28}";
},
{
origin = "{0, 12}";
target = "{0, 3}";
}
);
layerId = "1D8279CA-6213-4437-A9CB-DE6E86D89D97";
name = Bold;
paths = (
{
closed = 1;
nodes = (
"451 -193 LINE SMOOTH",
"548 -193 OFFCURVE",
"618 -120 OFFCURVE",
"618 -20 CURVE SMOOTH",
"618 694 LINE SMOOTH",
"618 706 OFFCURVE",
"609 715 OFFCURVE",
"597 715 CURVE SMOOTH",
"524 715 LINE SMOOTH",
"512 715 OFFCURVE",
"503 706 OFFCURVE",
"503 694 CURVE SMOOTH",
"503 215 LINE",
"216 700 LINE",
"210 709 OFFCURVE",
"200 715 OFFCURVE",
"189 715 CURVE SMOOTH",
"107 715 LINE SMOOTH",
"91 715 OFFCURVE",
"78 702 OFFCURVE",
"78 686 CURVE SMOOTH",
"78 21 LINE SMOOTH",
"78 9 OFFCURVE",
"87 0 OFFCURVE",
"99 0 CURVE SMOOTH",
"171 0 LINE SMOOTH",
"183 0 OFFCURVE",
"192 8 OFFCURVE",
"192 21 CURVE SMOOTH",
"192 501 LINE",
"496 -13 LINE",
"496 -20 LINE SMOOTH",
"496 -56 OFFCURVE",
"475 -78 OFFCURVE",
"442 -78 CURVE SMOOTH",
"368 -78 LINE SMOOTH",
"356 -78 OFFCURVE",
"347 -87 OFFCURVE",
"347 -99 CURVE SMOOTH",
"347 -172 LINE SMOOTH",
"347 -184 OFFCURVE",
"356 -193 OFFCURVE",
"368 -193 CURVE SMOOTH"
);
}
);
width = 699;
}
);
leftKerningGroup = H;
leftMetricsKey = N;
unicode = 014A;
},
{
glyphname = O;
lastChange = "2016-03-12 18:34:24 +0000";
layers = (
{
anchors = (
{
name = bottom;
position = "{326, 0}";
},
{
name = center;
position = "{326, 358}";
},
{
name = ogonek;
position = "{397, 0}";
},
{
name = top;
position = "{326, 710}";
},
{
name = topleft;
position = "{16, 710}";
},
{
name = topright;
position = "{636, 710}";
}
);
hints = (
{
horizontal = 1;
origin = "{0, 13}";
target = "{1, 13}";
},
{
horizontal = 1;
origin = "{0, 6}";
target = "{1, 6}";
},
{
origin = "{0, 10}";
target = "{1, 2}";
},
{
origin = "{1, 10}";
target = "{0, 2}";
}
);
layerId = "1D8279CA-6213-4437-A9CB-DE6E86D89D97";
name = Bold;
paths = (
{
closed = 1;
nodes = (
"472 -13 OFFCURVE",
"591 105 OFFCURVE",
"591 251 CURVE SMOOTH",
"591 464 LINE SMOOTH",
"591 610 OFFCURVE",
"472 728 OFFCURVE",
"326 728 CURVE SMOOTH",
"180 728 OFFCURVE",
"61 610 OFFCURVE",
"61 464 CURVE SMOOTH",
"61 251 LINE SMOOTH",
"61 105 OFFCURVE",
"180 -13 OFFCURVE",
"326 -13 CURVE SMOOTH"
);
},
{
closed = 1;
nodes = (
"248 104 OFFCURVE",
"183 171 OFFCURVE",
"183 251 CURVE SMOOTH",
"183 464 LINE SMOOTH",
"183 544 OFFCURVE",
"248 611 OFFCURVE",
"326 611 CURVE SMOOTH",
"404 611 OFFCURVE",
"469 544 OFFCURVE",
"469 464 CURVE SMOOTH",
"469 251 LINE SMOOTH",
"469 171 OFFCURVE",
"404 104 OFFCURVE",
"326 104 CURVE SMOOTH"
);
}
);
width = 654;
}
);
leftKerningGroup = O;
rightKerningGroup = O;
unicode = 004F;
},
{
glyphname = Oslash;
lastChange = "2016-03-12 18:34:24 +0000";
layers = (
{
anchors = (
{
name = bottom;
position = "{333, 0}";
},
{
name = top;
position = "{333, 710}";
}
);
hints = (
{
horizontal = 1;
origin = "{1, 13}";
target = "{2, 13}";
},
{
horizontal = 1;
origin = "{1, 6}";
target = down;
type = TopGhost;
},
{
horizontal = 1;
place = "{0.000000, 21.000000}";
target = up;
type = BottomGhost;
},
{
horizontal = 1;
origin = "{1, 6}";
target = "{2, 6}";
},
{
origin = "{1, 10}";
target = "{2, 2}";
},
{
origin = "{2, 10}";
target = "{1, 2}";
}
);
layerId = "1D8279CA-6213-4437-A9CB-DE6E86D89D97";
name = Bold;
paths = (
{
closed = 1;
nodes = (
"111 0 LINE SMOOTH",
"118 0 OFFCURVE",
"125 3 OFFCURVE",
"129 9 CURVE SMOOTH",
"646 693 LINE SMOOTH",
"653 702 OFFCURVE",
"647 715 OFFCURVE",
"635 715 CURVE SMOOTH",
"561 715 LINE SMOOTH",
"554 715 OFFCURVE",
"548 712 OFFCURVE",
"543 706 CURVE SMOOTH",
"26 22 LINE SMOOTH",
"19 13 OFFCURVE",
"24 0 OFFCURVE",
"36 0 CURVE SMOOTH"
);
},
{
closed = 1;
nodes = (
"479 -13 OFFCURVE",
"598 105 OFFCURVE",
"598 251 CURVE SMOOTH",
"598 464 LINE SMOOTH",
"598 610 OFFCURVE",
"479 728 OFFCURVE",
"333 728 CURVE SMOOTH",
"187 728 OFFCURVE",
"68 610 OFFCURVE",
"68 464 CURVE SMOOTH",
"68 251 LINE SMOOTH",
"68 105 OFFCURVE",
"187 -13 OFFCURVE",
"333 -13 CURVE SMOOTH"
);
},
{
closed = 1;
nodes = (
"255 104 OFFCURVE",
"190 171 OFFCURVE",
"190 251 CURVE SMOOTH",
"190 464 LINE SMOOTH",
"190 544 OFFCURVE",
"255 611 OFFCURVE",
"333 611 CURVE SMOOTH",
"411 611 OFFCURVE",
"476 544 OFFCURVE",
"476 464 CURVE SMOOTH",
"476 251 LINE SMOOTH",
"476 171 OFFCURVE",
"411 104 OFFCURVE",
"333 104 CURVE SMOOTH"
);
}
);
width = 671;
}
);
unicode = 00D8;
},
{
glyphname = OE;
lastChange = "2016-03-12 18:34:24 +0000";
layers = (
{
anchors = (
{
name = bottom;
position = "{438, 0}";
},
{
name = top;
position = "{438, 710}";
}
);
hints = (
{
horizontal = 1;
origin = "{0, 41}";
target = "{1, 13}";
},
{
horizontal = 1;
origin = "{0, 12}";
target = "{0, 21}";
},
{
horizontal = 1;
origin = "{0, 31}";
target = "{0, 22}";
},
{
horizontal = 1;
origin = "{0, 2}";
target = "{0, 11}";
},
{
horizontal = 1;
origin = "{0, 34}";
target = "{1, 6}";
},
{
origin = "{0, 38}";
target = "{1, 2}";
},
{
origin = "{1, 10}";
target = "{0, 11}";
}
);
layerId = "1D8279CA-6213-4437-A9CB-DE6E86D89D97";
name = Bold;
paths = (
{
closed = 1;
nodes = (
"355 -13 OFFCURVE",
"383 -8 OFFCURVE",
"409 0 CURVE",
"763 0 LINE SMOOTH",
"775 0 OFFCURVE",
"784 9 OFFCURVE",
"784 21 CURVE SMOOTH",
"784 96 LINE SMOOTH",
"784 108 OFFCURVE",
"775 117 OFFCURVE",
"763 117 CURVE SMOOTH",
"501 117 LINE",
"501 315 LINE",
"696 315 LINE SMOOTH",
"708 315 OFFCURVE",
"717 324 OFFCURVE",
"717 336 CURVE SMOOTH",
"717 407 LINE SMOOTH",
"717 419 OFFCURVE",
"708 428 OFFCURVE",
"696 428 CURVE SMOOTH",
"501 428 LINE",
"501 598 LINE",
"763 598 LINE SMOOTH",
"775 598 OFFCURVE",
"784 607 OFFCURVE",
"784 619 CURVE SMOOTH",
"784 694 LINE SMOOTH",
"784 706 OFFCURVE",
"775 715 OFFCURVE",
"763 715 CURVE SMOOTH",
"408 715 LINE",
"382 723 OFFCURVE",
"355 728 OFFCURVE",
"326 728 CURVE SMOOTH",
"180 728 OFFCURVE",
"61 610 OFFCURVE",
"61 464 CURVE SMOOTH",
"61 251 LINE SMOOTH",
"61 105 OFFCURVE",
"180 -13 OFFCURVE",
"326 -13 CURVE SMOOTH"
);
},
{
closed = 1;
nodes = (
"248 104 OFFCURVE",
"183 171 OFFCURVE",
"183 251 CURVE SMOOTH",
"183 464 LINE SMOOTH",
"183 544 OFFCURVE",
"248 611 OFFCURVE",
"326 611 CURVE SMOOTH",
"345 611 OFFCURVE",
"363 607 OFFCURVE",
"379 600 CURVE",
"379 115 LINE",
"362 108 OFFCURVE",
"345 104 OFFCURVE",
"326 104 CURVE SMOOTH"
);
}
);
width = 844;
}
);
leftKerningGroup = O;
leftMetricsKey = O;
rightKerningGroup = E;
rightMetricsKey = E;
unicode = 0152;
},
{
glyphname = P;
lastChange = "2016-03-12 18:34:24 +0000";
layers = (
{
anchors = (
{
name = bottom;
position = "{144, 0}";
},
{
name = top;
position = "{285, 710}";
}
);
hints = (
{
horizontal = 1;
origin = "{0, 19}";
target = up;
type = BottomGhost;
},
{
horizontal = 1;
origin = "{0, 4}";
target = "{1, 8}";
},
{
horizontal = 1;
origin = "{0, 12}";
target = "{1, 0}";
},
{
origin = "{0, 16}";
target = "{0, 3}";
},
{
origin = "{1, 4}";
target = "{0, 8}";
}
);
layerId = "1D8279CA-6213-4437-A9CB-DE6E86D89D97";
name = Bold;
paths = (
{
closed = 1;
nodes = (
"179 0 LINE SMOOTH",
"191 0 OFFCURVE",
"200 9 OFFCURVE",
"200 21 CURVE SMOOTH",
"200 254 LINE",
"299 254 LINE SMOOTH",
"428 254 OFFCURVE",
"532 357 OFFCURVE",
"532 485 CURVE SMOOTH",
"532 612 OFFCURVE",
"428 715 OFFCURVE",
"299 715 CURVE SMOOTH",
"121 715 LINE SMOOTH",
"97 715 OFFCURVE",
"78 696 OFFCURVE",
"78 672 CURVE SMOOTH",
"78 21 LINE SMOOTH",
"78 9 OFFCURVE",
"87 0 OFFCURVE",
"99 0 CURVE SMOOTH"
);
},
{
closed = 1;
nodes = (
"200 600 LINE",
"294 600 LINE SMOOTH",
"358 600 OFFCURVE",
"410 548 OFFCURVE",
"410 485 CURVE SMOOTH",
"410 421 OFFCURVE",
"358 369 OFFCURVE",
"294 369 CURVE SMOOTH",
"200 369 LINE"
);
}
);
width = 573;
}
);
leftKerningGroup = H;
rightKerningGroup = P;
unicode = 0050;
},
{
glyphname = Thorn;
lastChange = "2016-03-12 18:34:24 +0000";
layers = (
{
anchors = (
{
name = bottom;
position = "{138, 0}";
},
{
name = top;
position = "{135, 710}";
}
);
hints = (
{
horizontal = 1;
origin = "{0, 24}";
target = up;
type = BottomGhost;
},
{
horizontal = 1;
origin = "{0, 4}";
target = "{1, 8}";
},
{
horizontal = 1;
origin = "{1, 0}";
target = "{0, 12}";
},
{
horizontal = 1;
origin = "{0, 17}";
target = down;
type = TopGhost;
},
{
origin = "{0, 21}";
target = "{0, 3}";
},
{
origin = "{1, 4}";
target = "{0, 8}";
}
);
layerId = "1D8279CA-6213-4437-A9CB-DE6E86D89D97";
name = Bold;
paths = (
{
closed = 1;
nodes = (
"179 0 LINE SMOOTH",
"191 0 OFFCURVE",
"200 9 OFFCURVE",
"200 21 CURVE SMOOTH",
"200 127 LINE",
"299 127 LINE SMOOTH",
"428 127 OFFCURVE",
"532 230 OFFCURVE",
"532 358 CURVE SMOOTH",
"532 485 OFFCURVE",
"428 588 OFFCURVE",
"299 588 CURVE SMOOTH",
"200 588 LINE",
"200 694 LINE SMOOTH",
"200 706 OFFCURVE",
"191 715 OFFCURVE",
"179 715 CURVE SMOOTH",
"99 715 LINE SMOOTH",
"87 715 OFFCURVE",
"78 706 OFFCURVE",
"78 694 CURVE SMOOTH",
"78 21 LINE SMOOTH",
"78 9 OFFCURVE",
"87 0 OFFCURVE",
"99 0 CURVE SMOOTH"
);
},
{
closed = 1;
nodes = (
"200 473 LINE",
"294 473 LINE SMOOTH",
"358 473 OFFCURVE",
"410 421 OFFCURVE",
"410 358 CURVE SMOOTH",
"410 294 OFFCURVE",
"358 242 OFFCURVE",
"294 242 CURVE SMOOTH",
"200 242 LINE"
);
}
);
width = 573;
}
);
leftKerningGroup = H;
unicode = 00DE;
},
{
glyphname = Q;
lastChange = "2016-03-12 18:34:24 +0000";
layers = (
{
anchors = (
{
name = bottom;
position = "{326, 0}";
},
{
name = top;
position = "{326, 710}";
}
);
hints = (
{
horizontal = 1;
origin = "{1, 20}";
target = "{1, 8}";
},
{
horizontal = 1;
origin = "{0, 13}";
target = "{2, 13}";
},
{
horizontal = 1;
origin = "{0, 6}";
target = "{2, 6}";
},
{
origin = "{0, 10}";
target = "{2, 2}";
},
{
origin = "{2, 10}";
target = "{0, 2}";
}
);
layerId = "1D8279CA-6213-4437-A9CB-DE6E86D89D97";
name = Bold;
paths = (
{
closed = 1;
nodes = (
"472 -14 OFFCURVE",
"591 104 OFFCURVE",
"591 250 CURVE SMOOTH",
"591 464 LINE SMOOTH",
"591 610 OFFCURVE",
"472 728 OFFCURVE",
"326 728 CURVE SMOOTH",
"180 728 OFFCURVE",
"61 610 OFFCURVE",
"61 464 CURVE SMOOTH",
"61 250 LINE SMOOTH",
"61 104 OFFCURVE",
"180 -14 OFFCURVE",
"326 -14 CURVE SMOOTH"
);
},
{
closed = 1;
nodes = (
"736 -193 LINE SMOOTH",
"748 -193 OFFCURVE",
"757 -184 OFFCURVE",
"757 -172 CURVE SMOOTH",
"757 -102 LINE SMOOTH",
"757 -90 OFFCURVE",
"748 -81 OFFCURVE",
"736 -81 CURVE SMOOTH",
"685 -81 LINE SMOOTH",
"633 -81 OFFCURVE",
"597 -45 OFFCURVE",
"542 0 CURVE SMOOTH",
"487 45 LINE",
"326 -14 LINE",
"371 -14 OFFCURVE",
"388 -24 OFFCURVE",
"413 -44 CURVE SMOOTH",
"488 -102 LINE SMOOTH",
"544 -145 OFFCURVE",
"601 -193 OFFCURVE",
"684 -193 CURVE SMOOTH"
);
},
{
closed = 1;
nodes = (
"248 103 OFFCURVE",
"183 170 OFFCURVE",
"183 250 CURVE SMOOTH",
"183 464 LINE SMOOTH",
"183 544 OFFCURVE",
"248 611 OFFCURVE",
"326 611 CURVE SMOOTH",
"404 611 OFFCURVE",
"469 544 OFFCURVE",
"469 464 CURVE SMOOTH",
"469 250 LINE SMOOTH",
"469 170 OFFCURVE",
"404 103 OFFCURVE",
"326 103 CURVE SMOOTH"
);
}
);
width = 667;
},
{
anchors = (
{
name = bottom;
position = "{316, 0}";
},
{
name = top;
position = "{313, 687}";
}
);
associatedMasterId = "1D8279CA-6213-4437-A9CB-DE6E86D89D97";
hints = (
{
horizontal = 1;
origin = "{0, 32}";
target = "{0, 8}";
},
{
horizontal = 1;
origin = "{0, 26}";
target = "{1, 13}";
},
{
horizontal = 1;
origin = "{0, 19}";
target = "{1, 6}";
},
{
origin = "{0, 23}";
target = "{1, 2}";
},
{
origin = "{1, 10}";
target = "{0, 15}";
}
);
layerId = "090A4C4A-2120-4C06-8D47-621508129634";
name = "Regular Mar 8 16, 21:50";
paths = (
{
closed = 1;
nodes = (
"700 -193 LINE SMOOTH",
"709 -193 OFFCURVE",
"714 -187 OFFCURVE",
"714 -179 CURVE SMOOTH",
"714 -130 LINE SMOOTH",
"714 -122 OFFCURVE",
"708 -116 OFFCURVE",
"700 -116 CURVE SMOOTH",
"680 -116 LINE SMOOTH",
"620 -116 OFFCURVE",
"573 -76 OFFCURVE",
"521 -35 CURVE SMOOTH",
"446 25 LINE",
"514 68 OFFCURVE",
"560 144 OFFCURVE",
"560 231 CURVE SMOOTH",
"560 464 LINE SMOOTH",
"560 599 OFFCURVE",
"450 708 OFFCURVE",
"315 708 CURVE SMOOTH",
"180 708 OFFCURVE",
"70 599 OFFCURVE",
"70 464 CURVE SMOOTH",
"70 231 LINE SMOOTH",
"70 96 OFFCURVE",
"180 -13 OFFCURVE",
"315 -13 CURVE SMOOTH",
"380 -13 OFFCURVE",
"403 -40 OFFCURVE",
"489 -106 CURVE SMOOTH",
"545 -149 OFFCURVE",
"602 -193 OFFCURVE",
"679 -193 CURVE SMOOTH"
);
},
{
closed = 1;
nodes = (
"225 64 OFFCURVE",
"152 141 OFFCURVE",
"152 231 CURVE SMOOTH",
"152 464 LINE SMOOTH",
"152 554 OFFCURVE",
"225 631 OFFCURVE",
"315 631 CURVE SMOOTH",
"405 631 OFFCURVE",
"478 554 OFFCURVE",
"478 464 CURVE SMOOTH",
"478 231 LINE SMOOTH",
"478 141 OFFCURVE",
"405 64 OFFCURVE",
"315 64 CURVE SMOOTH"
);
}
);
width = 630;
}
);
leftKerningGroup = O;
rightKerningGroup = Q;
unicode = 0051;
},
{
glyphname = R;
lastChange = "2016-03-12 18:34:24 +0000";
layers = (
{
anchors = (
{
name = bottom;
position = "{300, 0}";
},
{
name = top;
position = "{267, 710}";
}
);
hints = (
{
horizontal = 1;
origin = "{0, 31}";
target = up;
type = BottomGhost;
},
{
horizontal = 1;
origin = "{0, 4}";
target = "{1, 8}";
},
{
horizontal = 1;
origin = "{0, 24}";
target = "{1, 0}";
},
{
origin = "{0, 28}";
target = "{0, 3}";
},
{
origin = "{1, 4}";
target = "{0, 20}";
}
);
layerId = "1D8279CA-6213-4437-A9CB-DE6E86D89D97";
name = Bold;
paths = (
{
closed = 1;
nodes = (
"179 0 LINE SMOOTH",
"191 0 OFFCURVE",
"200 9 OFFCURVE",
"200 21 CURVE SMOOTH",
"200 281 LINE",
"249 281 LINE",
"415 14 LINE SMOOTH",
"421 5 OFFCURVE",
"431 0 OFFCURVE",
"441 0 CURVE SMOOTH",
"523 0 LINE SMOOTH",
"537 0 OFFCURVE",
"546 9 OFFCURVE",
"546 21 CURVE SMOOTH",
"546 26 OFFCURVE",
"545 30 OFFCURVE",
"542 35 CURVE SMOOTH",
"376 292 LINE",
"466 320 OFFCURVE",
"531 400 OFFCURVE",
"531 498 CURVE SMOOTH",
"531 618 OFFCURVE",
"432 715 OFFCURVE",
"308 715 CURVE SMOOTH",
"121 715 LINE SMOOTH",
"97 715 OFFCURVE",
"78 696 OFFCURVE",
"78 672 CURVE SMOOTH",
"78 21 LINE SMOOTH",
"78 9 OFFCURVE",
"87 0 OFFCURVE",
"99 0 CURVE SMOOTH"
);
},
{
closed = 1;
nodes = (
"200 600 LINE",
"302 600 LINE SMOOTH",
"363 600 OFFCURVE",
"407 557 OFFCURVE",
"407 497 CURVE SMOOTH",
"407 439 OFFCURVE",
"363 396 OFFCURVE",
"302 396 CURVE SMOOTH",
"200 396 LINE"
);
}
);
width = 593;
}
);
leftKerningGroup = H;
rightKerningGroup = R;
unicode = 0052;
},
{
glyphname = S;
lastChange = "2016-03-12 18:34:24 +0000";
layers = (
{
anchors = (
{
name = bottom;
position = "{252, 0}";
},
{
name = top;
position = "{252, 687}";
}
);
associatedMasterId = "1D8279CA-6213-4437-A9CB-DE6E86D89D97";
hints = (
{
horizontal = 1;
origin = "{0, 61}";
target = "{0, 42}";
},
{
horizontal = 1;
origin = "{0, 30}";
target = "{0, 11}";
},
{
origin = "{0, 33}";
target = "{0, 8}";
},
{
origin = "{0, 39}";
target = "{0, 2}";
},
{
horizontal = 1;
origin = "{0, 51}";
target = down;
type = TopGhost;
},
{
horizontal = 1;
origin = "{0, 20}";
target = up;
type = BottomGhost;
}
);
layerId = "1590A9E5-B318-4F71-8D50-F3C6B4972504";
name = "Regular Feb 17 16, 01:26";
paths = (
{
closed = 1;
nodes = (
"373 -13 OFFCURVE",
"458 69 OFFCURVE",
"458 185 CURVE SMOOTH",
"458 320 OFFCURVE",
"350 352 OFFCURVE",
"276 385 CURVE SMOOTH",
"198 419 OFFCURVE",
"145 447 OFFCURVE",
"145 521 CURVE SMOOTH",
"145 589 OFFCURVE",
"189 633 OFFCURVE",
"256 633 CURVE SMOOTH",
"288 633 OFFCURVE",
"317 626 OFFCURVE",
"346 614 CURVE SMOOTH",
"365 606 OFFCURVE",
"378 600 OFFCURVE",
"396 588 CURVE SMOOTH",
"400 585 OFFCURVE",
"404 584 OFFCURVE",
"407 584 CURVE SMOOTH",
"417 584 OFFCURVE",
"425 592 OFFCURVE",
"425 603 CURVE SMOOTH",
"425 643 LINE SMOOTH",
"425 653 OFFCURVE",
"421 660 OFFCURVE",
"413 665 CURVE SMOOTH",
"367 692 OFFCURVE",
"309 708 OFFCURVE",
"256 708 CURVE SMOOTH",
"143 708 OFFCURVE",
"62 632 OFFCURVE",
"62 526 CURVE SMOOTH",
"62 394 OFFCURVE",
"139 355 OFFCURVE",
"212 321 CURVE SMOOTH",
"283 288 OFFCURVE",
"375 266 OFFCURVE",
"375 182 CURVE SMOOTH",
"375 111 OFFCURVE",
"324 63 OFFCURVE",
"250 63 CURVE SMOOTH",
"219 63 OFFCURVE",
"185 71 OFFCURVE",
"150 84 CURVE SMOOTH",
"136 90 OFFCURVE",
"117 99 OFFCURVE",
"95 112 CURVE SMOOTH",
"92 114 OFFCURVE",
"88 115 OFFCURVE",
"85 115 CURVE SMOOTH",
"76 115 OFFCURVE",
"68 108 OFFCURVE",
"68 97 CURVE SMOOTH",
"68 53 LINE SMOOTH",
"68 44 OFFCURVE",
"73 36 OFFCURVE",
"81 31 CURVE SMOOTH",
"127 3 OFFCURVE",
"190 -13 OFFCURVE",
"250 -13 CURVE SMOOTH"
);
}
);
width = 515;
},
{
anchors = (
{
name = bottom;
position = "{271, 0}";
},
{
name = top;
position = "{271, 710}";
}
);
hints = (
{
horizontal = 1;
origin = "{0, 55}";
target = "{0, 39}";
},
{
horizontal = 1;
origin = "{0, 27}";
target = "{0, 11}";
},
{
origin = "{0, 30}";
target = "{0, 8}";
},
{
origin = "{0, 36}";
target = "{0, 2}";
},
{
horizontal = 1;
origin = "{0, 17}";
target = up;
type = BottomGhost;
},
{
horizontal = 1;
origin = "{0, 45}";
target = down;
type = TopGhost;
}
);
layerId = "1D8279CA-6213-4437-A9CB-DE6E86D89D97";
name = Bold;
paths = (
{
closed = 1;
nodes = (
"399 -12 OFFCURVE",
"494 76 OFFCURVE",
"494 201 CURVE SMOOTH",
"494 341 OFFCURVE",
"376 378 OFFCURVE",
"296 411 CURVE SMOOTH",
"218 443 OFFCURVE",
"176 472 OFFCURVE",
"176 527 CURVE SMOOTH",
"176 577 OFFCURVE",
"212 614 OFFCURVE",
"273 614 CURVE SMOOTH",
"304 614 OFFCURVE",
"354 604 OFFCURVE",
"411 567 CURVE SMOOTH",
"418 563 OFFCURVE",
"421 563 OFFCURVE",
"426 563 CURVE SMOOTH",
"433 563 OFFCURVE",
"441 567 OFFCURVE",
"445 575 CURVE SMOOTH",
"478 638 LINE SMOOTH",
"482 646 OFFCURVE",
"478 658 OFFCURVE",
"472 662 CURVE SMOOTH",
"416 704 OFFCURVE",
"342 728 OFFCURVE",
"272 728 CURVE SMOOTH",
"143 728 OFFCURVE",
"55 644 OFFCURVE",
"55 521 CURVE SMOOTH",
"55 388 OFFCURVE",
"157 340 OFFCURVE",
"216 315 CURVE SMOOTH",
"310 276 OFFCURVE",
"373 258 OFFCURVE",
"373 194 CURVE SMOOTH",
"373 141 OFFCURVE",
"331 102 OFFCURVE",
"259 102 CURVE SMOOTH",
"223 102 OFFCURVE",
"178 112 OFFCURVE",
"119 149 CURVE SMOOTH",
"112 153 OFFCURVE",
"109 153 OFFCURVE",
"104 153 CURVE SMOOTH",
"97 153 OFFCURVE",
"89 149 OFFCURVE",
"85 141 CURVE SMOOTH",
"50 78 LINE SMOOTH",
"46 70 OFFCURVE",
"50 58 OFFCURVE",
"56 54 CURVE SMOOTH",
"115 13 OFFCURVE",
"186 -12 OFFCURVE",
"260 -12 CURVE SMOOTH"
);
}
);
width = 546;
}
);
leftKerningGroup = S;
rightKerningGroup = S;
unicode = 0053;
},
{
glyphname = T;
lastChange = "2016-03-12 18:34:24 +0000";
layers = (
{
anchors = (
{
name = bottom;
position = "{285, 0}";
},
{
name = center;
position = "{290, 358}";
},
{
name = top;
position = "{290, 710}";
}
);
hints = (
{
horizontal = 1;
origin = "{0, 25}";
target = up;
type = BottomGhost;
},
{
horizontal = 1;
origin = "{0, 13}";
target = "{0, 20}";
},
{
origin = "{0, 22}";
target = "{0, 3}";
}
);
layerId = "1D8279CA-6213-4437-A9CB-DE6E86D89D97";
name = Bold;
paths = (
{
closed = 1;
nodes = (
"330 0 LINE SMOOTH",
"342 0 OFFCURVE",
"351 9 OFFCURVE",
"351 21 CURVE SMOOTH",
"351 598 LINE",
"519 598 LINE SMOOTH",
"531 598 OFFCURVE",
"540 607 OFFCURVE",
"540 619 CURVE SMOOTH",
"540 694 LINE SMOOTH",
"540 706 OFFCURVE",
"531 715 OFFCURVE",
"519 715 CURVE SMOOTH",
"61 715 LINE SMOOTH",
"49 715 OFFCURVE",
"40 706 OFFCURVE",
"40 694 CURVE SMOOTH",
"40 619 LINE SMOOTH",
"40 607 OFFCURVE",
"49 598 OFFCURVE",
"61 598 CURVE SMOOTH",
"229 598 LINE",
"229 21 LINE SMOOTH",
"229 9 OFFCURVE",
"238 0 OFFCURVE",
"250 0 CURVE SMOOTH"
);
}
);
width = 581;
}
);
leftKerningGroup = T;
rightKerningGroup = T;
unicode = 0054;
},
{
glyphname = U;
lastChange = "2016-03-12 18:34:24 +0000";
layers = (
{
anchors = (
{
name = bottom;
position = "{344, 0}";
},
{
name = ogonek;
position = "{397, 10}";
},
{
name = top;
position = "{344, 710}";
},
{
name = topright;
position = "{669, 710}";
}
);
hints = (
{
horizontal = 1;
origin = "{0, 29}";
target = "{0, 14}";
},
{
horizontal = 1;
origin = "{0, 22}";
target = down;
type = TopGhost;
},
{
origin = "{0, 26}";
target = "{0, 17}";
},
{
origin = "{0, 11}";
target = "{0, 2}";
}
);
layerId = "1D8279CA-6213-4437-A9CB-DE6E86D89D97";
name = Bold;
paths = (
{
closed = 1;
nodes = (
"497 -13 OFFCURVE",
"609 107 OFFCURVE",
"609 271 CURVE SMOOTH",
"609 694 LINE SMOOTH",
"609 706 OFFCURVE",
"600 715 OFFCURVE",
"588 715 CURVE SMOOTH",
"508 715 LINE SMOOTH",
"496 715 OFFCURVE",
"487 706 OFFCURVE",
"487 694 CURVE SMOOTH",
"487 266 LINE SMOOTH",
"487 170 OFFCURVE",
"429 106 OFFCURVE",
"344 106 CURVE SMOOTH",
"258 106 OFFCURVE",
"200 170 OFFCURVE",
"200 266 CURVE SMOOTH",
"200 694 LINE SMOOTH",
"200 706 OFFCURVE",
"191 715 OFFCURVE",
"179 715 CURVE SMOOTH",
"99 715 LINE SMOOTH",
"87 715 OFFCURVE",
"78 706 OFFCURVE",
"78 694 CURVE SMOOTH",
"78 271 LINE SMOOTH",
"78 107 OFFCURVE",
"191 -13 OFFCURVE",
"344 -13 CURVE SMOOTH"
);
}
);
width = 690;
}
);
leftKerningGroup = U;
rightKerningGroup = U;
unicode = 0055;
},
{
glyphname = Uogonek;
lastChange = "2016-03-12 18:34:24 +0000";
layers = (
{
hints = (
{
horizontal = 1;
origin = "{0, 50}";
target = "{0, 8}";
},
{
horizontal = 1;
origin = "{0, 44}";
target = down;
type = TopGhost;
},
{
horizontal = 1;
origin = "{0, 37}";
target = down;
type = TopGhost;
},
{
origin = "{0, 41}";
target = "{0, 32}";
},
{
origin = "{0, 47}";
target = "{0, 11}";
},
{
origin = "{0, 26}";
target = "{0, 17}";
}
);
layerId = "1D8279CA-6213-4437-A9CB-DE6E86D89D97";
name = Bold;
paths = (
{
closed = 1;
nodes = (
"434 -193 LINE SMOOTH",
"443 -193 OFFCURVE",
"451 -185 OFFCURVE",
"451 -176 CURVE SMOOTH",
"451 -119 LINE SMOOTH",
"451 -109 OFFCURVE",
"443 -102 OFFCURVE",
"434 -102 CURVE SMOOTH",
"413 -102 LINE SMOOTH",
"386 -102 OFFCURVE",
"365 -88 OFFCURVE",
"365 -63 CURVE SMOOTH",
"365 -19 OFFCURVE",
"429 -8 OFFCURVE",
"481 24 CURVE SMOOTH",
"558 72 OFFCURVE",
"609 162 OFFCURVE",
"609 271 CURVE SMOOTH",
"609 694 LINE SMOOTH",
"609 706 OFFCURVE",
"600 715 OFFCURVE",
"588 715 CURVE SMOOTH",
"508 715 LINE SMOOTH",
"496 715 OFFCURVE",
"487 706 OFFCURVE",
"487 694 CURVE SMOOTH",
"487 266 LINE SMOOTH",
"487 170 OFFCURVE",
"429 106 OFFCURVE",
"344 106 CURVE SMOOTH",
"258 106 OFFCURVE",
"200 170 OFFCURVE",
"200 266 CURVE SMOOTH",
"200 694 LINE SMOOTH",
"200 706 OFFCURVE",
"191 715 OFFCURVE",
"179 715 CURVE SMOOTH",
"99 715 LINE SMOOTH",
"87 715 OFFCURVE",
"78 706 OFFCURVE",
"78 694 CURVE SMOOTH",
"78 271 LINE SMOOTH",
"78 118 OFFCURVE",
"177 3 OFFCURVE",
"315 -12 CURVE",
"287 -34 OFFCURVE",
"272 -63 OFFCURVE",
"272 -94 CURVE SMOOTH",
"272 -157 OFFCURVE",
"332 -193 OFFCURVE",
"399 -193 CURVE SMOOTH"
);
}
);
width = 690;
}
);
leftKerningGroup = U;
leftMetricsKey = U;
rightKerningGroup = U;
rightMetricsKey = U;
unicode = 0172;
},
{
glyphname = V;
lastChange = "2016-03-12 18:34:24 +0000";
layers = (
{
anchors = (
{
name = bottom;
position = "{328, 0}";
},
{
name = top;
position = "{327, 710}";
}
);
hints = (
{
horizontal = 1;
origin = "{0, 30}";
target = up;
type = BottomGhost;
},
{
horizontal = 1;
origin = "{0, 20}";
target = down;
type = TopGhost;
},
{
origin = "{0, 23}";
target = "{0, 7}";
}
);
layerId = "1D8279CA-6213-4437-A9CB-DE6E86D89D97";
name = Bold;
paths = (
{
closed = 1;
nodes = (
"367 -5 LINE SMOOTH",
"381 -5 OFFCURVE",
"394 4 OFFCURVE",
"398 17 CURVE SMOOTH",
"615 684 LINE SMOOTH",
"616 687 OFFCURVE",
"616 690 OFFCURVE",
"616 692 CURVE SMOOTH",
"616 705 OFFCURVE",
"606 715 OFFCURVE",
"592 715 CURVE SMOOTH",
"520 715 LINE SMOOTH",
"506 715 OFFCURVE",
"493 706 OFFCURVE",
"489 692 CURVE SMOOTH",
"327 170 LINE",
"165 692 LINE SMOOTH",
"161 706 OFFCURVE",
"148 715 OFFCURVE",
"134 715 CURVE SMOOTH",
"64 715 LINE SMOOTH",
"50 715 OFFCURVE",
"40 705 OFFCURVE",
"40 692 CURVE SMOOTH",
"40 690 OFFCURVE",
"40 687 OFFCURVE",
"41 684 CURVE SMOOTH",
"258 17 LINE SMOOTH",
"262 4 OFFCURVE",
"275 -5 OFFCURVE",
"289 -5 CURVE SMOOTH"
);
}
);
width = 657;
}
);
leftKerningGroup = W;
rightKerningGroup = W;
unicode = 0056;
},
{
glyphname = W;
lastChange = "2016-03-12 18:34:24 +0000";
layers = (
{
anchors = (
{
name = bottom;
position = "{520, 0}";
},
{
name = top;
position = "{520, 710}";
}
);
hints = (
{
horizontal = 1;
origin = "{0, 45}";
target = up;
type = BottomGhost;
},
{
horizontal = 1;
origin = "{0, 35}";
target = down;
type = TopGhost;
}
);
layerId = "1D8279CA-6213-4437-A9CB-DE6E86D89D97";
name = Bold;
paths = (
{
closed = 1;
nodes = (
"356 -2 LINE SMOOTH",
"368 -2 OFFCURVE",
"379 5 OFFCURVE",
"382 17 CURVE",
"520 503 LINE",
"656 17 LINE SMOOTH",
"659 6 OFFCURVE",
"669 -2 OFFCURVE",
"681 -2 CURVE SMOOTH",
"776 -2 LINE SMOOTH",
"788 -2 OFFCURVE",
"799 5 OFFCURVE",
"802 17 CURVE",
"1002 689 LINE SMOOTH",
"1006 703 OFFCURVE",
"997 715 OFFCURVE",
"983 715 CURVE SMOOTH",
"901 715 LINE SMOOTH",
"889 715 OFFCURVE",
"879 707 OFFCURVE",
"876 696 CURVE SMOOTH",
"733 182 LINE",
"584 696 LINE SMOOTH",
"581 707 OFFCURVE",
"571 715 OFFCURVE",
"559 715 CURVE SMOOTH",
"481 715 LINE SMOOTH",
"469 715 OFFCURVE",
"459 707 OFFCURVE",
"456 696 CURVE SMOOTH",
"313 182 LINE",
"164 696 LINE SMOOTH",
"161 707 OFFCURVE",
"151 715 OFFCURVE",
"139 715 CURVE SMOOTH",
"61 715 LINE SMOOTH",
"49 715 OFFCURVE",
"40 706 OFFCURVE",
"40 695 CURVE SMOOTH",
"40 693 OFFCURVE",
"40 691 OFFCURVE",
"41 689 CURVE",
"236 17 LINE SMOOTH",
"239 6 OFFCURVE",
"249 -2 OFFCURVE",
"261 -2 CURVE SMOOTH"
);
}
);
width = 1043;
}
);
leftKerningGroup = W;
rightKerningGroup = W;
unicode = 0057;
},
{
glyphname = X;
lastChange = "2016-03-12 18:34:24 +0000";
layers = (
{
anchors = (
{
name = bottom;
position = "{326, 0}";
},
{
name = top;
position = "{326, 710}";
}
);
hints = (
{
horizontal = 1;
origin = "{0, 47}";
target = up;
type = BottomGhost;
},
{
horizontal = 1;
origin = "{0, 33}";
target = down;
type = TopGhost;
}
);
layerId = "1D8279CA-6213-4437-A9CB-DE6E86D89D97";
name = Bold;
paths = (
{
closed = 1;
nodes = (
"161 0 LINE SMOOTH",
"169 0 OFFCURVE",
"178 4 OFFCURVE",
"182 11 CURVE",
"326 239 LINE",
"470 11 LINE",
"474 4 OFFCURVE",
"483 0 OFFCURVE",
"491 0 CURVE SMOOTH",
"579 0 LINE SMOOTH",
"593 0 OFFCURVE",
"603 10 OFFCURVE",
"603 22 CURVE SMOOTH",
"603 27 OFFCURVE",
"602 31 OFFCURVE",
"599 35 CURVE",
"398 354 LINE",
"604 680 LINE",
"607 684 OFFCURVE",
"608 688 OFFCURVE",
"608 693 CURVE SMOOTH",
"608 705 OFFCURVE",
"598 715 OFFCURVE",
"584 715 CURVE SMOOTH",
"496 715 LINE SMOOTH",
"488 715 OFFCURVE",
"479 711 OFFCURVE",
"475 704 CURVE",
"326 468 LINE",
"177 704 LINE",
"173 711 OFFCURVE",
"164 715 OFFCURVE",
"156 715 CURVE SMOOTH",
"68 715 LINE SMOOTH",
"54 715 OFFCURVE",
"44 705 OFFCURVE",
"44 693 CURVE SMOOTH",
"44 688 OFFCURVE",
"45 684 OFFCURVE",
"48 680 CURVE",
"254 354 LINE",
"53 35 LINE",
"50 31 OFFCURVE",
"49 27 OFFCURVE",
"49 22 CURVE SMOOTH",
"49 10 OFFCURVE",
"59 0 OFFCURVE",
"73 0 CURVE SMOOTH"
);
}
);
width = 653;
}
);
leftKerningGroup = X;
rightKerningGroup = X;
unicode = 0058;
},
{
glyphname = Y;
lastChange = "2016-03-12 18:34:24 +0000";
layers = (
{
anchors = (
{
name = bottom;
position = "{307, 0}";
},
{
name = top;
position = "{308, 710}";
},
{
name = topleft;
position = "{16, 715}";
}
);
hints = (
{
horizontal = 1;
origin = "{0, 33}";
target = up;
type = BottomGhost;
},
{
horizontal = 1;
origin = "{0, 22}";
target = down;
type = TopGhost;
},
{
origin = "{0, 30}";
target = "{0, 3}";
}
);
layerId = "1D8279CA-6213-4437-A9CB-DE6E86D89D97";
name = Bold;
paths = (
{
closed = 1;
nodes = (
"347 0 LINE",
"359 0 OFFCURVE",
"368 9 OFFCURVE",
"368 21 CURVE SMOOTH",
"368 327 LINE",
"579 680 LINE SMOOTH",
"582 684 OFFCURVE",
"583 688 OFFCURVE",
"583 693 CURVE SMOOTH",
"583 705 OFFCURVE",
"573 715 OFFCURVE",
"559 715 CURVE SMOOTH",
"476 715 LINE SMOOTH",
"468 715 OFFCURVE",
"460 711 OFFCURVE",
"456 704 CURVE SMOOTH",
"308 447 LINE",
"306 447 LINE",
"158 704 LINE SMOOTH",
"154 711 OFFCURVE",
"146 715 OFFCURVE",
"138 715 CURVE SMOOTH",
"55 715 LINE SMOOTH",
"41 715 OFFCURVE",
"31 705 OFFCURVE",
"31 693 CURVE SMOOTH",
"31 688 OFFCURVE",
"32 684 OFFCURVE",
"35 680 CURVE SMOOTH",
"246 327 LINE",
"246 21 LINE SMOOTH",
"246 9 OFFCURVE",
"255 0 OFFCURVE",
"267 0 CURVE SMOOTH"
);
}
);
width = 615;
}
);
leftKerningGroup = Y;
rightKerningGroup = Y;
unicode = 0059;
},
{
glyphname = Z;
lastChange = "2016-03-12 18:34:24 +0000";
layers = (
{
anchors = (
{
name = bottom;
position = "{288, 0}";
},
{
name = top;
position = "{288, 710}";
}
);
hints = (
{
horizontal = 1;
origin = "{0, 31}";
target = "{0, 8}";
},
{
horizontal = 1;
origin = "{0, 16}";
target = "{0, 23}";
}
);
layerId = "1D8279CA-6213-4437-A9CB-DE6E86D89D97";
name = Bold;
paths = (
{
closed = 1;
nodes = (
"507 0 LINE SMOOTH",
"519 0 OFFCURVE",
"528 9 OFFCURVE",
"528 21 CURVE SMOOTH",
"528 96 LINE SMOOTH",
"528 108 OFFCURVE",
"519 117 OFFCURVE",
"507 117 CURVE SMOOTH",
"213 117 LINE",
"520 630 LINE SMOOTH",
"525 639 OFFCURVE",
"527 648 OFFCURVE",
"527 657 CURVE SMOOTH",
"527 687 OFFCURVE",
"504 715 OFFCURVE",
"472 715 CURVE SMOOTH",
"81 715 LINE SMOOTH",
"69 715 OFFCURVE",
"60 706 OFFCURVE",
"60 694 CURVE SMOOTH",
"60 619 LINE SMOOTH",
"60 607 OFFCURVE",
"69 598 OFFCURVE",
"81 598 CURVE SMOOTH",
"361 598 LINE",
"55 85 LINE SMOOTH",
"50 77 OFFCURVE",
"48 67 OFFCURVE",
"48 58 CURVE SMOOTH",
"48 29 OFFCURVE",
"70 0 OFFCURVE",
"101 0 CURVE SMOOTH"
);
}
);
width = 578;
}
);
leftKerningGroup = Z;
rightKerningGroup = Z;
unicode = 005A;
},
{
glyphname = a;
lastChange = "2016-03-12 18:34:24 +0000";
layers = (
{
anchors = (
{
name = bottom;
position = "{269, 0}";
},
{
name = ogonek;
position = "{473, 10}";
},
{
name = top;
position = "{281, 573}";
}
);
hints = (
{
horizontal = 1;
origin = "{0, 48}";
target = "{1, 12}";
},
{
horizontal = 1;
origin = "{0, 14}";
target = "{0, 33}";
},
{
horizontal = 1;
origin = "{0, 6}";
target = up;
type = BottomGhost;
},
{
origin = "{0, 45}";
target = "{1, 2}";
},
{
origin = "{1, 9}";
target = "{0, 10}";
},
{
horizontal = 1;
origin = "{0, 27}";
target = up;
type = BottomGhost;
}
);
layerId = "1D8279CA-6213-4437-A9CB-DE6E86D89D97";
name = Bold;
paths = (
{
closed = 1;
nodes = (
"293 -13 OFFCURVE",
"347 11 OFFCURVE",
"393 60 CURVE",
"393 21 LINE SMOOTH",
"393 8 OFFCURVE",
"402 0 OFFCURVE",
"414 0 CURVE SMOOTH",
"482 0 LINE SMOOTH",
"494 0 OFFCURVE",
"503 9 OFFCURVE",
"503 21 CURVE SMOOTH",
"503 384 LINE SMOOTH",
"503 506 OFFCURVE",
"415 586 OFFCURVE",
"282 586 CURVE SMOOTH",
"186 586 OFFCURVE",
"106 543 OFFCURVE",
"67 470 CURVE SMOOTH",
"66 467 OFFCURVE",
"65 464 OFFCURVE",
"65 461 CURVE SMOOTH",
"65 454 OFFCURVE",
"68 448 OFFCURVE",
"74 444 CURVE SMOOTH",
"130 406 LINE SMOOTH",
"134 403 OFFCURVE",
"138 402 OFFCURVE",
"143 402 CURVE SMOOTH",
"150 402 OFFCURVE",
"157 407 OFFCURVE",
"162 415 CURVE SMOOTH",
"186 453 OFFCURVE",
"226 474 OFFCURVE",
"280 474 CURVE SMOOTH",
"339 474 OFFCURVE",
"387 443 OFFCURVE",
"387 392 CURVE SMOOTH",
"387 368 OFFCURVE",
"375 354 OFFCURVE",
"350 350 CURVE SMOOTH",
"331 346 OFFCURVE",
"250 336 OFFCURVE",
"223 332 CURVE SMOOTH",
"107 313 OFFCURVE",
"40 250 OFFCURVE",
"40 158 CURVE SMOOTH",
"40 56 OFFCURVE",
"117 -13 OFFCURVE",
"229 -13 CURVE SMOOTH"
);
},
{
closed = 1;
nodes = (
"187 94 OFFCURVE",
"154 121 OFFCURVE",
"154 162 CURVE SMOOTH",
"154 200 OFFCURVE",
"181 223 OFFCURVE",
"236 233 CURVE SMOOTH",
"263 238 OFFCURVE",
"345 248 OFFCURVE",
"390 255 CURVE",
"390 235 LINE SMOOTH",
"390 161 OFFCURVE",
"317 94 OFFCURVE",
"238 94 CURVE SMOOTH"
);
}
);
width = 575;
}
);
leftKerningGroup = a;
rightKerningGroup = a;
unicode = 0061;
},
{
glyphname = aogonek;
lastChange = "2016-03-12 18:34:24 +0000";
layers = (
{
hints = (
{
horizontal = 1;
origin = "{0, 65}";
target = "{0, 8}";
},
{
horizontal = 1;
origin = "{0, 55}";
target = "{1, 12}";
},
{
horizontal = 1;
origin = "{0, 21}";
target = "{0, 40}";
},
{
horizontal = 1;
origin = "{0, 55}";
target = up;
type = BottomGhost;
},
{
origin = "{0, 52}";
target = "{1, 2}";
},
{
origin = "{1, 9}";
target = "{0, 3}";
},
{
origin = "{0, 62}";
target = "{0, 11}";
}
);
layerId = "1D8279CA-6213-4437-A9CB-DE6E86D89D97";
name = Bold;
paths = (
{
closed = 1;
nodes = (
"486 -193 LINE SMOOTH",
"495 -193 OFFCURVE",
"503 -185 OFFCURVE",
"503 -176 CURVE SMOOTH",
"503 -119 LINE SMOOTH",
"503 -109 OFFCURVE",
"495 -102 OFFCURVE",
"486 -102 CURVE SMOOTH",
"465 -102 LINE SMOOTH",
"438 -102 OFFCURVE",
"417 -88 OFFCURVE",
"417 -63 CURVE SMOOTH",
"417 -36 OFFCURVE",
"441 -14 OFFCURVE",
"480 -4 CURVE SMOOTH",
"494 -1 OFFCURVE",
"503 9 OFFCURVE",
"503 22 CURVE SMOOTH",
"503 384 LINE SMOOTH",
"503 506 OFFCURVE",
"415 586 OFFCURVE",
"282 586 CURVE SMOOTH",
"186 586 OFFCURVE",
"106 543 OFFCURVE",
"67 470 CURVE",
"66 467 OFFCURVE",
"65 464 OFFCURVE",
"65 461 CURVE SMOOTH",
"65 454 OFFCURVE",
"68 448 OFFCURVE",
"74 444 CURVE SMOOTH",
"130 406 LINE",
"134 403 OFFCURVE",
"138 402 OFFCURVE",
"143 402 CURVE SMOOTH",
"150 402 OFFCURVE",
"157 407 OFFCURVE",
"162 415 CURVE SMOOTH",
"186 453 OFFCURVE",
"226 474 OFFCURVE",
"280 474 CURVE SMOOTH",
"339 474 OFFCURVE",
"387 443 OFFCURVE",
"387 392 CURVE SMOOTH",
"387 368 OFFCURVE",
"375 354 OFFCURVE",
"350 350 CURVE",
"331 346 OFFCURVE",
"250 336 OFFCURVE",
"223 332 CURVE SMOOTH",
"107 313 OFFCURVE",
"40 250 OFFCURVE",
"40 158 CURVE SMOOTH",
"40 56 OFFCURVE",
"117 -13 OFFCURVE",
"229 -13 CURVE SMOOTH",
"293 -13 OFFCURVE",
"347 11 OFFCURVE",
"393 60 CURVE",
"393 6 LINE",
"348 -19 OFFCURVE",
"324 -54 OFFCURVE",
"324 -94 CURVE SMOOTH",
"324 -157 OFFCURVE",
"384 -193 OFFCURVE",
"451 -193 CURVE SMOOTH"
);
},
{
closed = 1;
nodes = (
"187 94 OFFCURVE",
"154 121 OFFCURVE",
"154 162 CURVE SMOOTH",
"154 200 OFFCURVE",
"181 223 OFFCURVE",
"236 233 CURVE SMOOTH",
"263 238 OFFCURVE",
"345 248 OFFCURVE",
"390 255 CURVE",
"390 235 LINE SMOOTH",
"390 161 OFFCURVE",
"317 94 OFFCURVE",
"238 94 CURVE SMOOTH"
);
}
);
width = 575;
}
);
leftKerningGroup = a;
leftMetricsKey = a;
rightKerningGroup = a;
rightMetricsKey = a;
unicode = 0105;
},
{
glyphname = ae;
lastChange = "2016-03-12 18:34:24 +0000";
layers = (
{
anchors = (
{
name = bottom;
position = "{458, 0}";
},
{
name = top;
position = "{458, 573}";
}
);
hints = (
{
horizontal = 1;
origin = "{0, 66}";
target = "{1, 12}";
},
{
horizontal = 1;
origin = "{0, 18}";
target = "{2, 8}";
},
{
horizontal = 1;
origin = "{0, 32}";
target = "{2, 3}";
},
{
horizontal = 1;
origin = "{0, 5}";
target = "{0, 14}";
},
{
origin = "{0, 63}";
target = "{1, 2}";
},
{
origin = "{1, 9}";
target = "{0, 17}";
},
{
origin = "{2, 7}";
target = "{0, 22}";
},
{
origin = "{0, 54}";
target = "{0, 17}";
}
);
layerId = "1D8279CA-6213-4437-A9CB-DE6E86D89D97";
name = Bold;
paths = (
{
closed = 1;
nodes = (
"312 -13 OFFCURVE",
"386 22 OFFCURVE",
"438 93 CURVE",
"482 36 OFFCURVE",
"550 0 OFFCURVE",
"628 0 CURVE SMOOTH",
"787 0 LINE SMOOTH",
"799 0 OFFCURVE",
"808 9 OFFCURVE",
"808 21 CURVE SMOOTH",
"808 93 LINE SMOOTH",
"808 105 OFFCURVE",
"799 114 OFFCURVE",
"787 114 CURVE SMOOTH",
"628 114 LINE SMOOTH",
"563 114 OFFCURVE",
"510 167 OFFCURVE",
"510 232 CURVE SMOOTH",
"510 237 LINE",
"823 237 LINE SMOOTH",
"847 237 OFFCURVE",
"866 256 OFFCURVE",
"866 280 CURVE SMOOTH",
"866 347 LINE SMOOTH",
"866 480 OFFCURVE",
"760 586 OFFCURVE",
"628 586 CURVE SMOOTH",
"561 586 OFFCURVE",
"501 559 OFFCURVE",
"458 515 CURVE",
"419 560 OFFCURVE",
"358 586 OFFCURVE",
"282 586 CURVE SMOOTH",
"186 586 OFFCURVE",
"106 543 OFFCURVE",
"67 470 CURVE SMOOTH",
"66 467 OFFCURVE",
"65 464 OFFCURVE",
"65 461 CURVE SMOOTH",
"65 454 OFFCURVE",
"68 448 OFFCURVE",
"74 444 CURVE SMOOTH",
"130 406 LINE SMOOTH",
"134 403 OFFCURVE",
"138 402 OFFCURVE",
"143 402 CURVE SMOOTH",
"150 402 OFFCURVE",
"157 407 OFFCURVE",
"162 415 CURVE SMOOTH",
"186 453 OFFCURVE",
"226 474 OFFCURVE",
"280 474 CURVE SMOOTH",
"339 474 OFFCURVE",
"387 443 OFFCURVE",
"387 392 CURVE SMOOTH",
"387 368 OFFCURVE",
"375 355 OFFCURVE",
"350 350 CURVE SMOOTH",
"331 346 OFFCURVE",
"250 336 OFFCURVE",
"223 332 CURVE SMOOTH",
"107 313 OFFCURVE",
"40 250 OFFCURVE",
"40 158 CURVE SMOOTH",
"40 56 OFFCURVE",
"117 -13 OFFCURVE",
"229 -13 CURVE SMOOTH"
);
},
{
closed = 1;
nodes = (
"187 94 OFFCURVE",
"154 121 OFFCURVE",
"154 162 CURVE SMOOTH",
"154 200 OFFCURVE",
"181 223 OFFCURVE",
"236 233 CURVE SMOOTH",
"263 238 OFFCURVE",
"345 248 OFFCURVE",
"390 255 CURVE",
"390 235 LINE SMOOTH",
"390 161 OFFCURVE",
"317 94 OFFCURVE",
"238 94 CURVE SMOOTH"
);
},
{
closed = 1;
nodes = (
"510 354 LINE SMOOTH",
"510 419 OFFCURVE",
"563 472 OFFCURVE",
"628 472 CURVE SMOOTH",
"693 472 OFFCURVE",
"746 419 OFFCURVE",
"746 354 CURVE SMOOTH",
"746 345 LINE",
"510 345 LINE"
);
}
);
width = 918;
}
);
leftKerningGroup = a;
leftMetricsKey = a;
rightKerningGroup = e;
rightMetricsKey = e;
unicode = 00E6;
},
{
glyphname = b;
lastChange = "2016-03-12 18:34:24 +0000";
layers = (
{
anchors = (
{
name = bottom;
position = "{328, 0}";
},
{
name = top;
position = "{138, 766}";
}
);
hints = (
{
horizontal = 1;
origin = "{0, 29}";
target = "{1, 13}";
},
{
horizontal = 1;
origin = "{0, 6}";
target = "{1, 6}";
},
{
horizontal = 1;
origin = "{0, 14}";
target = down;
type = TopGhost;
},
{
horizontal = 1;
origin = "{0, 21}";
target = up;
type = BottomGhost;
},
{
origin = "{0, 18}";
target = "{1, 2}";
},
{
origin = "{1, 10}";
target = "{0, 2}";
}
);
layerId = "1D8279CA-6213-4437-A9CB-DE6E86D89D97";
name = Bold;
paths = (
{
closed = 1;
nodes = (
"453 -13 OFFCURVE",
"555 92 OFFCURVE",
"555 217 CURVE SMOOTH",
"555 356 LINE SMOOTH",
"555 480 OFFCURVE",
"456 586 OFFCURVE",
"332 586 CURVE SMOOTH",
"283 586 OFFCURVE",
"232 564 OFFCURVE",
"198 522 CURVE",
"198 745 LINE SMOOTH",
"198 757 OFFCURVE",
"189 766 OFFCURVE",
"177 766 CURVE SMOOTH",
"99 766 LINE SMOOTH",
"87 766 OFFCURVE",
"78 757 OFFCURVE",
"78 745 CURVE SMOOTH",
"78 21 LINE SMOOTH",
"78 9 OFFCURVE",
"87 0 OFFCURVE",
"99 0 CURVE SMOOTH",
"164 0 LINE SMOOTH",
"176 0 OFFCURVE",
"185 9 OFFCURVE",
"185 21 CURVE SMOOTH",
"185 64 LINE",
"221 12 OFFCURVE",
"275 -13 OFFCURVE",
"332 -13 CURVE SMOOTH"
);
},
{
closed = 1;
nodes = (
"251 102 OFFCURVE",
"198 155 OFFCURVE",
"198 220 CURVE SMOOTH",
"198 353 LINE SMOOTH",
"198 418 OFFCURVE",
"251 471 OFFCURVE",
"317 471 CURVE SMOOTH",
"382 471 OFFCURVE",
"435 418 OFFCURVE",
"435 353 CURVE SMOOTH",
"435 220 LINE SMOOTH",
"435 155 OFFCURVE",
"382 102 OFFCURVE",
"317 102 CURVE SMOOTH"
);
}
);
width = 614;
},
{
anchors = (
{
name = bottom;
position = "{325, 0}";
},
{
name = top;
position = "{135, 766}";
}
);
associatedMasterId = "1D8279CA-6213-4437-A9CB-DE6E86D89D97";
hints = (
{
horizontal = 1;
origin = "{0, 29}";
target = "{1, 13}";
},
{
horizontal = 1;
origin = "{0, 6}";
target = "{1, 6}";
},
{
horizontal = 1;
origin = "{0, 14}";
target = down;
type = TopGhost;
},
{
horizontal = 1;
origin = "{0, 21}";
target = up;
type = BottomGhost;
},
{
origin = "{0, 18}";
target = "{1, 2}";
},
{
origin = "{1, 10}";
target = "{0, 2}";
}
);
layerId = "80E51D3E-A732-421E-AB63-C0766A535744";
name = "Bold Mar 8 16, 22:07";
paths = (
{
closed = 1;
nodes = (
"450 -13 OFFCURVE",
"552 92 OFFCURVE",
"552 217 CURVE SMOOTH",
"552 356 LINE SMOOTH",
"552 480 OFFCURVE",
"453 586 OFFCURVE",
"329 586 CURVE SMOOTH",
"280 586 OFFCURVE",
"232 565 OFFCURVE",
"195 526 CURVE",
"195 745 LINE SMOOTH",
"195 757 OFFCURVE",
"186 766 OFFCURVE",
"174 766 CURVE SMOOTH",
"96 766 LINE SMOOTH",
"84 766 OFFCURVE",
"75 757 OFFCURVE",
"75 745 CURVE SMOOTH",
"75 21 LINE SMOOTH",
"75 9 OFFCURVE",
"84 0 OFFCURVE",
"96 0 CURVE SMOOTH",
"161 0 LINE SMOOTH",
"173 0 OFFCURVE",
"182 9 OFFCURVE",
"182 21 CURVE SMOOTH",
"182 66 LINE",
"218 13 OFFCURVE",
"272 -13 OFFCURVE",
"329 -13 CURVE SMOOTH"
);
},
{
closed = 1;
nodes = (
"248 102 OFFCURVE",
"195 155 OFFCURVE",
"195 220 CURVE SMOOTH",
"195 353 LINE SMOOTH",
"195 418 OFFCURVE",
"248 471 OFFCURVE",
"314 471 CURVE SMOOTH",
"379 471 OFFCURVE",
"432 418 OFFCURVE",
"432 353 CURVE SMOOTH",
"432 220 LINE SMOOTH",
"432 155 OFFCURVE",
"379 102 OFFCURVE",
"314 102 CURVE SMOOTH"
);
}
);
width = 599;
}
);
leftKerningGroup = h;
rightKerningGroup = o;
unicode = 0062;
},
{
glyphname = c;
lastChange = "2016-03-12 18:34:24 +0000";
layers = (
{
anchors = (
{
name = bottom;
position = "{294, 0}";
},
{
name = top;
position = "{294, 573}";
}
);
hints = (
{
horizontal = 1;
origin = "{0, 51}";
target = "{0, 18}";
},
{
horizontal = 1;
origin = "{0, 44}";
target = "{0, 25}";
},
{
origin = "{0, 48}";
target = "{0, 21}";
},
{
horizontal = 1;
origin = "{0, 31}";
target = up;
type = BottomGhost;
},
{
horizontal = 1;
origin = "{0, 12}";
target = down;
type = TopGhost;
}
);
layerId = "1D8279CA-6213-4437-A9CB-DE6E86D89D97";
name = Bold;
paths = (
{
closed = 1;
nodes = (
"362 -13 OFFCURVE",
"426 15 OFFCURVE",
"470 65 CURVE SMOOTH",
"475 70 OFFCURVE",
"477 76 OFFCURVE",
"477 81 CURVE SMOOTH",
"477 88 OFFCURVE",
"473 96 OFFCURVE",
"468 101 CURVE SMOOTH",
"425 144 LINE SMOOTH",
"420 149 OFFCURVE",
"415 151 OFFCURVE",
"409 151 CURVE SMOOTH",
"403 151 OFFCURVE",
"397 148 OFFCURVE",
"392 142 CURVE SMOOTH",
"367 117 OFFCURVE",
"335 103 OFFCURVE",
"295 103 CURVE SMOOTH",
"230 103 OFFCURVE",
"177 156 OFFCURVE",
"177 221 CURVE SMOOTH",
"177 352 LINE SMOOTH",
"177 417 OFFCURVE",
"230 470 OFFCURVE",
"295 470 CURVE SMOOTH",
"335 470 OFFCURVE",
"367 456 OFFCURVE",
"392 431 CURVE SMOOTH",
"397 425 OFFCURVE",
"403 422 OFFCURVE",
"409 422 CURVE SMOOTH",
"415 422 OFFCURVE",
"420 424 OFFCURVE",
"425 429 CURVE SMOOTH",
"468 472 LINE SMOOTH",
"473 477 OFFCURVE",
"477 485 OFFCURVE",
"477 492 CURVE SMOOTH",
"477 497 OFFCURVE",
"475 503 OFFCURVE",
"470 508 CURVE SMOOTH",
"426 558 OFFCURVE",
"362 586 OFFCURVE",
"295 586 CURVE SMOOTH",
"163 586 OFFCURVE",
"57 480 OFFCURVE",
"57 347 CURVE SMOOTH",
"57 226 LINE SMOOTH",
"57 93 OFFCURVE",
"163 -13 OFFCURVE",
"295 -13 CURVE SMOOTH"
);
}
);
width = 527;
}
);
leftKerningGroup = o;
rightKerningGroup = c;
unicode = 0063;
},
{
glyphname = d;
lastChange = "2016-03-12 18:34:24 +0000";
layers = (
{
anchors = (
{
name = bottom;
position = "{277, 0}";
},
{
name = center;
position = "{463, 662}";
},
{
name = top;
position = "{475, 766}";
},
{
name = topright;
position = "{594, 573}";
}
);
hints = (
{
horizontal = 1;
origin = "{0, 29}";
target = "{1, 13}";
},
{
horizontal = 1;
origin = "{0, 22}";
target = "{1, 6}";
},
{
horizontal = 1;
origin = "{0, 15}";
target = down;
type = TopGhost;
},
{
horizontal = 1;
origin = "{0, 6}";
target = up;
type = BottomGhost;
},
{
origin = "{0, 26}";
target = "{1, 2}";
},
{
origin = "{1, 10}";
target = "{0, 10}";
}
);
layerId = "1D8279CA-6213-4437-A9CB-DE6E86D89D97";
name = Bold;
paths = (
{
closed = 1;
nodes = (
"338 -13 OFFCURVE",
"391 14 OFFCURVE",
"427 69 CURVE",
"427 21 LINE SMOOTH",
"427 9 OFFCURVE",
"436 0 OFFCURVE",
"448 0 CURVE SMOOTH",
"513 0 LINE SMOOTH",
"525 0 OFFCURVE",
"534 9 OFFCURVE",
"534 21 CURVE SMOOTH",
"534 745 LINE SMOOTH",
"534 757 OFFCURVE",
"525 766 OFFCURVE",
"513 766 CURVE SMOOTH",
"435 766 LINE SMOOTH",
"423 766 OFFCURVE",
"414 757 OFFCURVE",
"414 745 CURVE SMOOTH",
"414 540 LINE",
"379 570 OFFCURVE",
"329 586 OFFCURVE",
"279 586 CURVE SMOOTH",
"156 586 OFFCURVE",
"57 480 OFFCURVE",
"57 356 CURVE SMOOTH",
"57 217 LINE SMOOTH",
"57 92 OFFCURVE",
"160 -13 OFFCURVE",
"278 -13 CURVE SMOOTH"
);
},
{
closed = 1;
nodes = (
"230 102 OFFCURVE",
"177 155 OFFCURVE",
"177 220 CURVE SMOOTH",
"177 353 LINE SMOOTH",
"177 418 OFFCURVE",
"230 471 OFFCURVE",
"295 471 CURVE SMOOTH",
"361 471 OFFCURVE",
"414 418 OFFCURVE",
"414 353 CURVE SMOOTH",
"414 220 LINE SMOOTH",
"414 155 OFFCURVE",
"361 102 OFFCURVE",
"295 102 CURVE SMOOTH"
);
}
);
width = 615;
},
{
anchors = (
{
name = bottom;
position = "{285, 0}";
},
{
name = center;
position = "{457, 645}";
},
{
name = top;
position = "{461, 759}";
},
{
name = topright;
position = "{572, 562}";
}
);
associatedMasterId = "1D8279CA-6213-4437-A9CB-DE6E86D89D97";
hints = (
{
horizontal = 1;
origin = "{0, 29}";
target = "{1, 13}";
},
{
horizontal = 1;
origin = "{0, 22}";
target = "{1, 6}";
},
{
horizontal = 1;
origin = "{0, 15}";
target = down;
type = TopGhost;
},
{
horizontal = 1;
origin = "{0, 6}";
target = up;
type = BottomGhost;
},
{
origin = "{0, 26}";
target = "{1, 2}";
},
{
origin = "{1, 10}";
target = "{0, 10}";
}
);
layerId = "B0B9CB6F-42D1-4225-A992-2041CC383E57";
name = "Regular Mar 8 16, 22:04";
paths = (
{
closed = 1;
nodes = (
"334 -13 OFFCURVE",
"390 13 OFFCURVE",
"426 60 CURVE",
"426 21 LINE SMOOTH",
"426 9 OFFCURVE",
"435 0 OFFCURVE",
"447 0 CURVE SMOOTH",
"479 0 LINE SMOOTH",
"491 0 OFFCURVE",
"500 9 OFFCURVE",
"500 21 CURVE SMOOTH",
"500 745 LINE SMOOTH",
"500 753 OFFCURVE",
"494 759 OFFCURVE",
"486 759 CURVE SMOOTH",
"436 759 LINE SMOOTH",
"428 759 OFFCURVE",
"422 753 OFFCURVE",
"422 745 CURVE SMOOTH",
"422 525 LINE",
"386 559 OFFCURVE",
"332 579 OFFCURVE",
"274 579 CURVE SMOOTH",
"159 579 OFFCURVE",
"65 485 OFFCURVE",
"65 370 CURVE SMOOTH",
"65 196 LINE SMOOTH",
"65 81 OFFCURVE",
"159 -13 OFFCURVE",
"274 -13 CURVE SMOOTH"
);
},
{
closed = 1;
nodes = (
"205 61 OFFCURVE",
"143 123 OFFCURVE",
"143 200 CURVE SMOOTH",
"143 366 LINE SMOOTH",
"143 443 OFFCURVE",
"205 505 OFFCURVE",
"282 505 CURVE SMOOTH",
"360 505 OFFCURVE",
"422 443 OFFCURVE",
"422 366 CURVE SMOOTH",
"422 200 LINE SMOOTH",
"422 123 OFFCURVE",
"360 61 OFFCURVE",
"282 61 CURVE SMOOTH"
);
}
);
width = 590;
}
);
leftKerningGroup = o;
rightKerningGroup = d;
unicode = 0064;
},
{
glyphname = eth;
lastChange = "2016-03-12 18:34:24 +0000";
layers = (
{
hints = (
{
horizontal = 1;
origin = "{0, 26}";
target = "{1, 13}";
},
{
horizontal = 1;
origin = "{1, 6}";
target = "{0, 19}";
},
{
horizontal = 1;
origin = "{0, 6}";
target = "{0, 13}";
},
{
origin = "{0, 23}";
target = "{1, 2}";
},
{
origin = "{1, 10}";
target = "{0, 2}";
}
);
layerId = "1D8279CA-6213-4437-A9CB-DE6E86D89D97";
name = Bold;
paths = (
{
closed = 1;
nodes = (
"425 -14 OFFCURVE",
"531 92 OFFCURVE",
"531 224 CURVE SMOOTH",
"531 332 LINE SMOOTH",
"531 620 OFFCURVE",
"396 766 OFFCURVE",
"177 766 CURVE SMOOTH",
"165 766 OFFCURVE",
"156 757 OFFCURVE",
"156 745 CURVE SMOOTH",
"156 679 LINE SMOOTH",
"156 670 OFFCURVE",
"161 658 OFFCURVE",
"177 658 CURVE SMOOTH",
"287 658 OFFCURVE",
"367 598 OFFCURVE",
"389 512 CURVE",
"362 529 OFFCURVE",
"327 533 OFFCURVE",
"295 533 CURVE SMOOTH",
"162 533 OFFCURVE",
"57 429 OFFCURVE",
"57 299 CURVE SMOOTH",
"57 224 LINE SMOOTH",
"57 92 OFFCURVE",
"163 -14 OFFCURVE",
"294 -14 CURVE SMOOTH"
);
},
{
closed = 1;
nodes = (
"228 100 OFFCURVE",
"175 153 OFFCURVE",
"175 219 CURVE SMOOTH",
"175 304 LINE SMOOTH",
"175 370 OFFCURVE",
"228 423 OFFCURVE",
"294 423 CURVE SMOOTH",
"360 423 OFFCURVE",
"413 370 OFFCURVE",
"413 304 CURVE SMOOTH",
"413 219 LINE SMOOTH",
"413 153 OFFCURVE",
"360 100 OFFCURVE",
"294 100 CURVE SMOOTH"
);
},
{
closed = 1;
nodes = (
"207 537 OFFCURVE",
"209 538 OFFCURVE",
"212 539 CURVE SMOOTH",
"497 690 LINE SMOOTH",
"503 693 OFFCURVE",
"509 701 OFFCURVE",
"509 709 CURVE SMOOTH",
"509 751 LINE SMOOTH",
"509 762 OFFCURVE",
"503 766 OFFCURVE",
"493 766 CURVE SMOOTH",
"488 766 OFFCURVE",
"487 765 OFFCURVE",
"485 764 CURVE SMOOTH",
"201 614 LINE SMOOTH",
"195 611 OFFCURVE",
"189 603 OFFCURVE",
"189 595 CURVE SMOOTH",
"189 552 LINE SMOOTH",
"189 543 OFFCURVE",
"196 537 OFFCURVE",
"204 537 CURVE SMOOTH"
);
}
);
width = 599;
}
);
leftKerningGroup = o;
unicode = 00F0;
},
{
glyphname = dcaron;
lastChange = "2016-03-12 18:34:24 +0000";
layers = (
{
hints = (
{
horizontal = 1;
origin = "{0, 29}";
target = "{1, 13}";
},
{
horizontal = 1;
origin = "{0, 22}";
target = "{1, 6}";
},
{
horizontal = 1;
origin = "{0, 15}";
target = "{2, 18}";
},
{
horizontal = 1;
origin = "{0, 6}";
target = up;
type = BottomGhost;
},
{
origin = "{0, 26}";
target = "{1, 2}";
},
{
origin = "{1, 10}";
target = "{0, 10}";
}
);
layerId = "1D8279CA-6213-4437-A9CB-DE6E86D89D97";
name = Bold;
paths = (
{
closed = 1;
nodes = (
"338 -13 OFFCURVE",
"391 14 OFFCURVE",
"427 69 CURVE",
"427 21 LINE SMOOTH",
"427 9 OFFCURVE",
"436 0 OFFCURVE",
"448 0 CURVE SMOOTH",
"513 0 LINE SMOOTH",
"525 0 OFFCURVE",
"534 9 OFFCURVE",
"534 21 CURVE SMOOTH",
"534 745 LINE SMOOTH",
"534 757 OFFCURVE",
"525 766 OFFCURVE",
"513 766 CURVE SMOOTH",
"435 766 LINE SMOOTH",
"423 766 OFFCURVE",
"414 757 OFFCURVE",
"414 745 CURVE SMOOTH",
"414 540 LINE",
"379 570 OFFCURVE",
"329 586 OFFCURVE",
"279 586 CURVE SMOOTH",
"156 586 OFFCURVE",
"57 480 OFFCURVE",
"57 356 CURVE SMOOTH",
"57 217 LINE SMOOTH",
"57 92 OFFCURVE",
"160 -13 OFFCURVE",
"278 -13 CURVE SMOOTH"
);
},
{
closed = 1;
nodes = (
"230 102 OFFCURVE",
"177 155 OFFCURVE",
"177 220 CURVE SMOOTH",
"177 353 LINE SMOOTH",
"177 418 OFFCURVE",
"230 471 OFFCURVE",
"295 471 CURVE SMOOTH",
"361 471 OFFCURVE",
"414 418 OFFCURVE",
"414 353 CURVE SMOOTH",
"414 220 LINE SMOOTH",
"414 155 OFFCURVE",
"361 102 OFFCURVE",
"295 102 CURVE SMOOTH"
);
},
{
closed = 1;
nodes = (
"653 636 LINE SMOOTH",
"660 636 OFFCURVE",
"668 638 OFFCURVE",
"674 644 CURVE SMOOTH",
"777 740 LINE SMOOTH",
"780 743 OFFCURVE",
"782 748 OFFCURVE",
"782 751 CURVE SMOOTH",
"782 759 OFFCURVE",
"776 766 OFFCURVE",
"767 766 CURVE SMOOTH",
"659 766 LINE SMOOTH",
"651 766 OFFCURVE",
"642 761 OFFCURVE",
"639 753 CURVE SMOOTH",
"594 656 LINE SMOOTH",
"589 645 OFFCURVE",
"596 636 OFFCURVE",
"607 636 CURVE SMOOTH"
);
}
);
width = 670;
}
);
leftKerningGroup = o;
unicode = 010F;
},
{
glyphname = dcroat;
lastChange = "2016-03-12 18:34:24 +0000";
layers = (
{
hints = (
{
horizontal = 1;
origin = "{0, 29}";
target = "{1, 13}";
},
{
horizontal = 1;
origin = "{0, 22}";
target = "{1, 6}";
},
{
horizontal = 1;
origin = "{2, 15}";
target = "{2, 8}";
},
{
horizontal = 1;
origin = "{0, 15}";
target = "{2, 15}";
},
{
horizontal = 1;
origin = "{0, 6}";
target = up;
type = BottomGhost;
},
{
origin = "{0, 26}";
target = "{1, 2}";
},
{
origin = "{1, 10}";
target = "{0, 10}";
}
);
layerId = "1D8279CA-6213-4437-A9CB-DE6E86D89D97";
name = Bold;
paths = (
{
closed = 1;
nodes = (
"338 -13 OFFCURVE",
"391 14 OFFCURVE",
"427 69 CURVE",
"427 21 LINE SMOOTH",
"427 9 OFFCURVE",
"436 0 OFFCURVE",
"448 0 CURVE SMOOTH",
"513 0 LINE SMOOTH",
"525 0 OFFCURVE",
"534 9 OFFCURVE",
"534 21 CURVE SMOOTH",
"534 745 LINE SMOOTH",
"534 757 OFFCURVE",
"525 766 OFFCURVE",
"513 766 CURVE SMOOTH",
"435 766 LINE SMOOTH",
"423 766 OFFCURVE",
"414 757 OFFCURVE",
"414 745 CURVE SMOOTH",
"414 540 LINE",
"379 570 OFFCURVE",
"329 586 OFFCURVE",
"279 586 CURVE SMOOTH",
"156 586 OFFCURVE",
"57 480 OFFCURVE",
"57 356 CURVE SMOOTH",
"57 217 LINE SMOOTH",
"57 92 OFFCURVE",
"160 -13 OFFCURVE",
"278 -13 CURVE SMOOTH"
);
},
{
closed = 1;
nodes = (
"230 102 OFFCURVE",
"177 155 OFFCURVE",
"177 220 CURVE SMOOTH",
"177 353 LINE SMOOTH",
"177 418 OFFCURVE",
"230 471 OFFCURVE",
"295 471 CURVE SMOOTH",
"361 471 OFFCURVE",
"414 418 OFFCURVE",
"414 353 CURVE SMOOTH",
"414 220 LINE SMOOTH",
"414 155 OFFCURVE",
"361 102 OFFCURVE",
"295 102 CURVE SMOOTH"
);
},
{
closed = 1;
nodes = (
"593 619 LINE SMOOTH",
"605 619 OFFCURVE",
"614 628 OFFCURVE",
"614 640 CURVE SMOOTH",
"614 673 LINE SMOOTH",
"614 685 OFFCURVE",
"605 694 OFFCURVE",
"593 694 CURVE SMOOTH",
"335 694 LINE SMOOTH",
"323 694 OFFCURVE",
"314 685 OFFCURVE",
"314 673 CURVE SMOOTH",
"314 640 LINE SMOOTH",
"314 628 OFFCURVE",
"323 619 OFFCURVE",
"335 619 CURVE SMOOTH"
);
}
);
width = 646;
}
);
leftKerningGroup = o;
unicode = 0111;
},
{
glyphname = e;
lastChange = "2016-03-12 18:34:24 +0000";
layers = (
{
anchors = (
{
name = bottom;
position = "{295, 0}";
},
{
name = ogonek;
position = "{445, 10}";
},
{
name = top;
position = "{300, 573}";
}
);
hints = (
{
horizontal = 1;
origin = "{0, 27}";
target = "{0, 8}";
},
{
horizontal = 1;
origin = "{0, 12}";
target = "{1, 8}";
},
{
horizontal = 1;
origin = "{0, 20}";
target = "{1, 3}";
},
{
origin = "{0, 24}";
target = "{0, 11}";
},
{
origin = "{1, 7}";
target = "{0, 16}";
}
);
layerId = "1D8279CA-6213-4437-A9CB-DE6E86D89D97";
name = Bold;
paths = (
{
closed = 1;
nodes = (
"454 0 LINE SMOOTH",
"466 0 OFFCURVE",
"475 9 OFFCURVE",
"475 21 CURVE SMOOTH",
"475 93 LINE SMOOTH",
"475 105 OFFCURVE",
"466 114 OFFCURVE",
"454 114 CURVE SMOOTH",
"295 114 LINE SMOOTH",
"230 114 OFFCURVE",
"177 167 OFFCURVE",
"177 232 CURVE SMOOTH",
"177 237 LINE",
"490 237 LINE SMOOTH",
"514 237 OFFCURVE",
"533 256 OFFCURVE",
"533 280 CURVE SMOOTH",
"533 347 LINE SMOOTH",
"533 480 OFFCURVE",
"427 586 OFFCURVE",
"295 586 CURVE SMOOTH",
"163 586 OFFCURVE",
"57 480 OFFCURVE",
"57 347 CURVE SMOOTH",
"57 239 LINE SMOOTH",
"57 106 OFFCURVE",
"163 0 OFFCURVE",
"295 0 CURVE SMOOTH"
);
},
{
closed = 1;
nodes = (
"177 354 LINE SMOOTH",
"177 419 OFFCURVE",
"230 472 OFFCURVE",
"295 472 CURVE SMOOTH",
"360 472 OFFCURVE",
"413 419 OFFCURVE",
"413 354 CURVE SMOOTH",
"413 345 LINE",
"177 345 LINE"
);
}
);
width = 585;
}
);
leftKerningGroup = o;
rightKerningGroup = e;
unicode = 0065;
},
{
glyphname = eogonek;
lastChange = "2016-03-12 18:34:24 +0000";
layers = (
{
hints = (
{
horizontal = 1;
origin = "{0, 48}";
target = "{0, 8}";
},
{
horizontal = 1;
origin = "{0, 41}";
target = "{0, 22}";
},
{
horizontal = 1;
origin = "{0, 26}";
target = "{1, 8}";
},
{
horizontal = 1;
origin = "{0, 34}";
target = "{1, 3}";
},
{
origin = "{0, 38}";
target = "{0, 25}";
},
{
origin = "{1, 7}";
target = "{0, 30}";
},
{
origin = "{0, 45}";
target = "{0, 3}";
}
);
layerId = "1D8279CA-6213-4437-A9CB-DE6E86D89D97";
name = Bold;
paths = (
{
closed = 1;
nodes = (
"458 -193 LINE SMOOTH",
"467 -193 OFFCURVE",
"475 -185 OFFCURVE",
"475 -176 CURVE SMOOTH",
"475 -119 LINE SMOOTH",
"475 -109 OFFCURVE",
"467 -102 OFFCURVE",
"458 -102 CURVE SMOOTH",
"437 -102 LINE SMOOTH",
"410 -102 OFFCURVE",
"389 -88 OFFCURVE",
"389 -63 CURVE SMOOTH",
"389 -36 OFFCURVE",
"413 -14 OFFCURVE",
"452 -4 CURVE SMOOTH",
"466 -1 OFFCURVE",
"475 9 OFFCURVE",
"475 22 CURVE SMOOTH",
"475 93 LINE SMOOTH",
"475 105 OFFCURVE",
"466 114 OFFCURVE",
"454 114 CURVE SMOOTH",
"295 114 LINE SMOOTH",
"230 114 OFFCURVE",
"177 167 OFFCURVE",
"177 232 CURVE SMOOTH",
"177 237 LINE",
"490 237 LINE SMOOTH",
"514 237 OFFCURVE",
"533 256 OFFCURVE",
"533 280 CURVE SMOOTH",
"533 347 LINE SMOOTH",
"533 480 OFFCURVE",
"427 586 OFFCURVE",
"295 586 CURVE SMOOTH",
"163 586 OFFCURVE",
"57 480 OFFCURVE",
"57 347 CURVE SMOOTH",
"57 239 LINE SMOOTH",
"57 106 OFFCURVE",
"163 0 OFFCURVE",
"295 0 CURVE SMOOTH",
"355 0 LINE",
"316 -24 OFFCURVE",
"296 -57 OFFCURVE",
"296 -94 CURVE SMOOTH",
"296 -157 OFFCURVE",
"356 -193 OFFCURVE",
"423 -193 CURVE SMOOTH"
);
},
{
closed = 1;
nodes = (
"177 354 LINE SMOOTH",
"177 419 OFFCURVE",
"230 472 OFFCURVE",
"295 472 CURVE SMOOTH",
"360 472 OFFCURVE",
"413 419 OFFCURVE",
"413 354 CURVE SMOOTH",
"413 345 LINE",
"177 345 LINE"
);
}
);
width = 585;
}
);
leftKerningGroup = o;
leftMetricsKey = e;
rightKerningGroup = e;
rightMetricsKey = e;
unicode = 0119;
},
{
glyphname = f;
lastChange = "2016-03-12 18:34:24 +0000";
layers = (
{
anchors = (
{
name = bottom;
position = "{195, 0}";
},
{
name = top;
position = "{195, 779}";
}
);
hints = (
{
horizontal = 1;
origin = "{0, 43}";
target = up;
type = BottomGhost;
},
{
horizontal = 1;
origin = "{0, 31}";
target = "{0, 38}";
},
{
horizontal = 1;
origin = "{0, 26}";
target = "{0, 17}";
},
{
origin = "{0, 40}";
target = "{0, 3}";
}
);
layerId = "1D8279CA-6213-4437-A9CB-DE6E86D89D97";
name = Bold;
paths = (
{
closed = 1;
nodes = (
"234 0 LINE SMOOTH",
"246 0 OFFCURVE",
"255 9 OFFCURVE",
"255 21 CURVE SMOOTH",
"255 461 LINE",
"384 461 LINE SMOOTH",
"396 461 OFFCURVE",
"405 470 OFFCURVE",
"405 482 CURVE SMOOTH",
"405 552 LINE SMOOTH",
"405 564 OFFCURVE",
"396 573 OFFCURVE",
"384 573 CURVE SMOOTH",
"255 573 LINE",
"255 612 LINE SMOOTH",
"255 647 OFFCURVE",
"276 669 OFFCURVE",
"309 669 CURVE SMOOTH",
"404 669 LINE SMOOTH",
"416 669 OFFCURVE",
"425 678 OFFCURVE",
"425 690 CURVE SMOOTH",
"425 758 LINE SMOOTH",
"425 770 OFFCURVE",
"416 779 OFFCURVE",
"404 779 CURVE SMOOTH",
"310 779 LINE SMOOTH",
"206 779 OFFCURVE",
"135 709 OFFCURVE",
"135 605 CURVE SMOOTH",
"135 573 LINE",
"56 573 LINE SMOOTH",
"44 573 OFFCURVE",
"35 564 OFFCURVE",
"35 552 CURVE SMOOTH",
"35 482 LINE SMOOTH",
"35 470 OFFCURVE",
"44 461 OFFCURVE",
"56 461 CURVE SMOOTH",
"135 461 LINE",
"135 21 LINE SMOOTH",
"135 9 OFFCURVE",
"144 0 OFFCURVE",
"156 0 CURVE SMOOTH"
);
}
);
width = 452;
}
);
leftKerningGroup = f;
rightKerningGroup = f;
unicode = 0066;
},
{
glyphname = g;
lastChange = "2016-03-12 18:34:24 +0000";
layers = (
{
anchors = (
{
name = bottom;
position = "{279, -193}";
},
{
name = top;
position = "{279, 573}";
}
);
hints = (
{
horizontal = 1;
origin = "{0, 53}";
target = "{1, 15}";
},
{
horizontal = 1;
origin = "{1, 8}";
target = "{0, 5}";
},
{
horizontal = 1;
origin = "{0, 17}";
target = "{2, 11}";
},
{
horizontal = 1;
origin = "{0, 32}";
target = "{0, 23}";
},
{
horizontal = 1;
origin = "{2, 5}";
target = "{0, 35}";
},
{
horizontal = 1;
origin = "{0, 32}";
target = "{2, 5}";
},
{
origin = "{0, 50}";
target = "{1, 2}";
},
{
origin = "{1, 12}";
target = "{0, 2}";
},
{
origin = "{0, 44}";
target = "{0, 11}";
},
{
origin = "{2, 8}";
target = "{0, 20}";
},
{
origin = "{0, 38}";
target = "{2, 2}";
}
);
layerId = "1D8279CA-6213-4437-A9CB-DE6E86D89D97";
name = Bold;
paths = (
{
closed = 1;
nodes = (
"424 -207 OFFCURVE",
"540 -153 OFFCURVE",
"540 -27 CURVE SMOOTH",
"540 89 OFFCURVE",
"440 107 OFFCURVE",
"351 109 CURVE SMOOTH",
"316 110 OFFCURVE",
"256 110 OFFCURVE",
"225 112 CURVE SMOOTH",
"190 114 OFFCURVE",
"166 121 OFFCURVE",
"166 149 CURVE SMOOTH",
"166 166 OFFCURVE",
"175 181 OFFCURVE",
"187 193 CURVE",
"215 183 OFFCURVE",
"245 177 OFFCURVE",
"278 177 CURVE SMOOTH",
"399 177 OFFCURVE",
"498 257 OFFCURVE",
"498 381 CURVE SMOOTH",
"498 412 OFFCURVE",
"492 440 OFFCURVE",
"481 465 CURVE",
"559 465 LINE SMOOTH",
"571 465 OFFCURVE",
"580 474 OFFCURVE",
"580 486 CURVE SMOOTH",
"580 552 LINE SMOOTH",
"580 564 OFFCURVE",
"571 573 OFFCURVE",
"559 573 CURVE SMOOTH",
"362 573 LINE",
"336 582 OFFCURVE",
"308 587 OFFCURVE",
"278 587 CURVE SMOOTH",
"156 587 OFFCURVE",
"57 506 OFFCURVE",
"57 381 CURVE SMOOTH",
"57 318 OFFCURVE",
"83 266 OFFCURVE",
"124 231 CURVE",
"86 202 OFFCURVE",
"62 161 OFFCURVE",
"62 114 CURVE SMOOTH",
"62 82 OFFCURVE",
"73 54 OFFCURVE",
"98 34 CURVE",
"74 9 OFFCURVE",
"60 -21 OFFCURVE",
"60 -61 CURVE SMOOTH",
"60 -167 OFFCURVE",
"155 -207 OFFCURVE",
"279 -207 CURVE SMOOTH"
);
},
{
closed = 1;
nodes = (
"225 -104 OFFCURVE",
"174 -94 OFFCURVE",
"174 -39 CURVE SMOOTH",
"174 -24 OFFCURVE",
"177 -10 OFFCURVE",
"185 3 CURVE",
"209 0 OFFCURVE",
"226 0 OFFCURVE",
"246 0 CURVE SMOOTH",
"344 0 LINE SMOOTH",
"380 0 OFFCURVE",
"418 -3 OFFCURVE",
"418 -42 CURVE SMOOTH",
"418 -91 OFFCURVE",
"359 -104 OFFCURVE",
"288 -104 CURVE SMOOTH"
);
},
{
closed = 1;
nodes = (
"215 282 OFFCURVE",
"176 321 OFFCURVE",
"176 381 CURVE SMOOTH",
"176 440 OFFCURVE",
"215 482 OFFCURVE",
"278 482 CURVE SMOOTH",
"342 482 OFFCURVE",
"379 439 OFFCURVE",
"379 381 CURVE SMOOTH",
"379 322 OFFCURVE",
"342 282 OFFCURVE",
"278 282 CURVE SMOOTH"
);
}
);
width = 598;
}
);
leftKerningGroup = g;
rightKerningGroup = g;
unicode = 0067;
},
{
glyphname = h;
lastChange = "2016-03-12 18:34:24 +0000";
layers = (
{
anchors = (
{
name = bottom;
position = "{306, 0}";
},
{
name = center;
position = "{149, 656}";
},
{
name = top;
position = "{134, 766}";
}
);
hints = (
{
horizontal = 1;
origin = "{0, 37}";
target = up;
type = BottomGhost;
},
{
horizontal = 1;
origin = "{0, 22}";
target = "{0, 7}";
},
{
horizontal = 1;
origin = "{0, 30}";
target = down;
type = TopGhost;
},
{
origin = "{0, 34}";
target = "{0, 3}";
},
{
origin = "{0, 11}";
target = "{0, 18}";
}
);
layerId = "1D8279CA-6213-4437-A9CB-DE6E86D89D97";
name = Bold;
paths = (
{
closed = 1;
nodes = (
"177 0 LINE SMOOTH",
"189 0 OFFCURVE",
"198 9 OFFCURVE",
"198 21 CURVE SMOOTH",
"198 327 LINE SMOOTH",
"198 416 OFFCURVE",
"247 471 OFFCURVE",
"326 471 CURVE SMOOTH",
"392 471 OFFCURVE",
"429 431 OFFCURVE",
"429 361 CURVE SMOOTH",
"429 21 LINE SMOOTH",
"429 9 OFFCURVE",
"438 0 OFFCURVE",
"450 0 CURVE SMOOTH",
"528 0 LINE SMOOTH",
"540 0 OFFCURVE",
"549 9 OFFCURVE",
"549 21 CURVE SMOOTH",
"549 376 LINE SMOOTH",
"549 501 OFFCURVE",
"465 586 OFFCURVE",
"340 586 CURVE SMOOTH",
"287 586 OFFCURVE",
"236 562 OFFCURVE",
"198 524 CURVE",
"198 745 LINE SMOOTH",
"198 757 OFFCURVE",
"189 766 OFFCURVE",
"177 766 CURVE SMOOTH",
"99 766 LINE SMOOTH",
"87 766 OFFCURVE",
"78 757 OFFCURVE",
"78 745 CURVE SMOOTH",
"78 21 LINE SMOOTH",
"78 9 OFFCURVE",
"87 0 OFFCURVE",
"99 0 CURVE SMOOTH"
);
}
);
width = 617;
}
);
leftKerningGroup = h;
rightKerningGroup = h;
unicode = 0068;
},
{
glyphname = hbar;
lastChange = "2016-03-12 18:34:24 +0000";
layers = (
{
hints = (
{
horizontal = 1;
origin = "{0, 37}";
target = up;
type = BottomGhost;
},
{
horizontal = 1;
origin = "{0, 22}";
target = "{0, 7}";
},
{
horizontal = 1;
origin = "{0, 30}";
target = "{1, 15}";
},
{
horizontal = 1;
origin = "{1, 15}";
target = "{1, 8}";
},
{
origin = "{0, 34}";
target = "{0, 3}";
},
{
origin = "{0, 11}";
target = "{0, 18}";
}
);
layerId = "1D8279CA-6213-4437-A9CB-DE6E86D89D97";
name = Bold;
paths = (
{
closed = 1;
nodes = (
"194 0 LINE SMOOTH",
"206 0 OFFCURVE",
"215 9 OFFCURVE",
"215 21 CURVE SMOOTH",
"215 327 LINE SMOOTH",
"215 416 OFFCURVE",
"264 471 OFFCURVE",
"343 471 CURVE SMOOTH",
"409 471 OFFCURVE",
"446 431 OFFCURVE",
"446 361 CURVE SMOOTH",
"446 21 LINE SMOOTH",
"446 9 OFFCURVE",
"455 0 OFFCURVE",
"467 0 CURVE SMOOTH",
"545 0 LINE SMOOTH",
"557 0 OFFCURVE",
"566 9 OFFCURVE",
"566 21 CURVE SMOOTH",
"566 376 LINE SMOOTH",
"566 501 OFFCURVE",
"482 586 OFFCURVE",
"357 586 CURVE SMOOTH",
"304 586 OFFCURVE",
"253 562 OFFCURVE",
"215 524 CURVE",
"215 745 LINE SMOOTH",
"215 757 OFFCURVE",
"206 766 OFFCURVE",
"194 766 CURVE SMOOTH",
"116 766 LINE SMOOTH",
"104 766 OFFCURVE",
"95 757 OFFCURVE",
"95 745 CURVE SMOOTH",
"95 21 LINE SMOOTH",
"95 9 OFFCURVE",
"104 0 OFFCURVE",
"116 0 CURVE SMOOTH"
);
},
{
closed = 1;
nodes = (
"284 609 LINE SMOOTH",
"296 609 OFFCURVE",
"305 618 OFFCURVE",
"305 630 CURVE SMOOTH",
"305 663 LINE SMOOTH",
"305 675 OFFCURVE",
"296 684 OFFCURVE",
"284 684 CURVE SMOOTH",
"26 684 LINE SMOOTH",
"14 684 OFFCURVE",
"5 675 OFFCURVE",
"5 663 CURVE SMOOTH",
"5 630 LINE SMOOTH",
"5 618 OFFCURVE",
"14 609 OFFCURVE",
"26 609 CURVE SMOOTH"
);
}
);
width = 634;
}
);
rightKerningGroup = h;
unicode = 0127;
},
{
glyphname = i;
lastChange = "2016-03-12 18:34:24 +0000";
layers = (
{
hints = (
{
horizontal = 1;
origin = "{0, 25}";
target = "{0, 8}";
},
{
horizontal = 1;
origin = "{0, 13}";
target = "{0, 20}";
},
{
horizontal = 1;
origin = "{1, 15}";
target = "{1, 8}";
},
{
origin = "{1, 12}";
target = "{1, 3}";
},
{
origin = "{0, 22}";
target = "{0, 8}";
}
);
layerId = "1D8279CA-6213-4437-A9CB-DE6E86D89D97";
name = Bold;
paths = (
{
closed = 1;
nodes = (
"343 0 LINE SMOOTH",
"355 0 OFFCURVE",
"364 9 OFFCURVE",
"364 21 CURVE SMOOTH",
"364 93 LINE SMOOTH",
"364 105 OFFCURVE",
"355 114 OFFCURVE",
"343 114 CURVE SMOOTH",
"262 114 LINE",
"262 523 LINE SMOOTH",
"262 551 OFFCURVE",
"240 573 OFFCURVE",
"212 573 CURVE SMOOTH",
"61 573 LINE SMOOTH",
"49 573 OFFCURVE",
"40 564 OFFCURVE",
"40 552 CURVE SMOOTH",
"40 480 LINE SMOOTH",
"40 468 OFFCURVE",
"49 459 OFFCURVE",
"61 459 CURVE SMOOTH",
"142 459 LINE",
"142 50 LINE SMOOTH",
"142 22 OFFCURVE",
"164 0 OFFCURVE",
"192 0 CURVE SMOOTH"
);
},
{
closed = 1;
nodes = (
"236 640 LINE SMOOTH",
"248 640 OFFCURVE",
"257 649 OFFCURVE",
"257 661 CURVE SMOOTH",
"257 770 LINE SMOOTH",
"257 782 OFFCURVE",
"248 791 OFFCURVE",
"236 791 CURVE SMOOTH",
"168 791 LINE SMOOTH",
"156 791 OFFCURVE",
"147 782 OFFCURVE",
"147 770 CURVE SMOOTH",
"147 661 LINE SMOOTH",
"147 649 OFFCURVE",
"156 640 OFFCURVE",
"168 640 CURVE SMOOTH"
);
}
);
width = 396;
}
);
leftKerningGroup = i;
rightKerningGroup = i;
unicode = 0069;
},
{
glyphname = idotless;
lastChange = "2016-03-12 18:34:24 +0000";
layers = (
{
anchors = (
{
name = bottom;
position = "{195, 0}";
},
{
name = ogonek;
position = "{363, 10}";
},
{
name = top;
position = "{195, 573}";
}
);
hints = (
{
horizontal = 1;
origin = "{0, 25}";
target = "{0, 8}";
},
{
horizontal = 1;
origin = "{0, 13}";
target = "{0, 20}";
},
{
origin = "{0, 22}";
target = "{0, 8}";
}
);
layerId = "1D8279CA-6213-4437-A9CB-DE6E86D89D97";
name = Bold;
paths = (
{
closed = 1;
nodes = (
"343 0 LINE SMOOTH",
"355 0 OFFCURVE",
"364 9 OFFCURVE",
"364 21 CURVE SMOOTH",
"364 93 LINE SMOOTH",
"364 105 OFFCURVE",
"355 114 OFFCURVE",
"343 114 CURVE SMOOTH",
"262 114 LINE",
"262 523 LINE SMOOTH",
"262 551 OFFCURVE",
"240 573 OFFCURVE",
"212 573 CURVE SMOOTH",
"61 573 LINE SMOOTH",
"49 573 OFFCURVE",
"40 564 OFFCURVE",
"40 552 CURVE SMOOTH",
"40 480 LINE SMOOTH",
"40 468 OFFCURVE",
"49 459 OFFCURVE",
"61 459 CURVE SMOOTH",
"142 459 LINE",
"142 50 LINE SMOOTH",
"142 22 OFFCURVE",
"164 0 OFFCURVE",
"192 0 CURVE SMOOTH"
);
}
);
width = 396;
}
);
leftKerningGroup = i;
rightKerningGroup = i;
unicode = 0131;
},
{
glyphname = iogonek;
lastChange = "2016-03-12 18:34:24 +0000";
layers = (
{
hints = (
{
horizontal = 1;
origin = "{0, 46}";
target = "{0, 8}";
},
{
horizontal = 1;
origin = "{0, 39}";
target = "{0, 22}";
},
{
horizontal = 1;
origin = "{0, 27}";
target = "{0, 34}";
},
{
horizontal = 1;
origin = "{1, 15}";
target = "{1, 8}";
},
{
origin = "{1, 12}";
target = "{1, 3}";
},
{
origin = "{0, 43}";
target = "{0, 3}";
},
{
origin = "{0, 36}";
target = "{0, 22}";
}
);
layerId = "1D8279CA-6213-4437-A9CB-DE6E86D89D97";
name = Bold;
paths = (
{
closed = 1;
nodes = (
"347 -193 LINE SMOOTH",
"356 -193 OFFCURVE",
"364 -185 OFFCURVE",
"364 -176 CURVE SMOOTH",
"364 -119 LINE SMOOTH",
"364 -109 OFFCURVE",
"356 -102 OFFCURVE",
"347 -102 CURVE SMOOTH",
"326 -102 LINE SMOOTH",
"299 -102 OFFCURVE",
"278 -88 OFFCURVE",
"278 -63 CURVE SMOOTH",
"278 -36 OFFCURVE",
"302 -14 OFFCURVE",
"341 -4 CURVE SMOOTH",
"355 -1 OFFCURVE",
"364 9 OFFCURVE",
"364 22 CURVE SMOOTH",
"364 93 LINE SMOOTH",
"364 105 OFFCURVE",
"355 114 OFFCURVE",
"343 114 CURVE SMOOTH",
"262 114 LINE",
"262 523 LINE SMOOTH",
"262 551 OFFCURVE",
"240 573 OFFCURVE",
"212 573 CURVE SMOOTH",
"61 573 LINE SMOOTH",
"49 573 OFFCURVE",
"40 564 OFFCURVE",
"40 552 CURVE SMOOTH",
"40 480 LINE SMOOTH",
"40 468 OFFCURVE",
"49 459 OFFCURVE",
"61 459 CURVE SMOOTH",
"142 459 LINE",
"142 50 LINE SMOOTH",
"142 22 OFFCURVE",
"164 0 OFFCURVE",
"192 0 CURVE SMOOTH",
"244 0 LINE",
"205 -24 OFFCURVE",
"185 -57 OFFCURVE",
"185 -94 CURVE SMOOTH",
"185 -157 OFFCURVE",
"245 -193 OFFCURVE",
"312 -193 CURVE SMOOTH"
);
},
{
closed = 1;
nodes = (
"233 640 LINE SMOOTH",
"245 640 OFFCURVE",
"254 649 OFFCURVE",
"254 661 CURVE SMOOTH",
"254 770 LINE SMOOTH",
"254 782 OFFCURVE",
"245 791 OFFCURVE",
"233 791 CURVE SMOOTH",
"165 791 LINE SMOOTH",
"153 791 OFFCURVE",
"144 782 OFFCURVE",
"144 770 CURVE SMOOTH",
"144 661 LINE SMOOTH",
"144 649 OFFCURVE",
"153 640 OFFCURVE",
"165 640 CURVE SMOOTH"
);
}
);
width = 396;
}
);
leftKerningGroup = i;
leftMetricsKey = i;
rightKerningGroup = i;
rightMetricsKey = i;
unicode = 012F;
},
{
glyphname = j;
lastChange = "2016-03-12 18:34:24 +0000";
layers = (
{
hints = (
{
horizontal = 1;
origin = "{0, 28}";
target = "{0, 21}";
},
{
horizontal = 1;
origin = "{0, 8}";
target = "{0, 15}";
},
{
horizontal = 1;
origin = "{1, 15}";
target = "{1, 8}";
},
{
origin = "{1, 12}";
target = "{1, 3}";
},
{
origin = "{0, 17}";
target = "{0, 3}";
}
);
layerId = "1D8279CA-6213-4437-A9CB-DE6E86D89D97";
name = Bold;
paths = (
{
closed = 1;
nodes = (
"133 -193 LINE SMOOTH",
"229 -193 OFFCURVE",
"298 -121 OFFCURVE",
"298 -22 CURVE SMOOTH",
"298 523 LINE SMOOTH",
"298 551 OFFCURVE",
"276 573 OFFCURVE",
"248 573 CURVE SMOOTH",
"52 573 LINE SMOOTH",
"40 573 OFFCURVE",
"31 564 OFFCURVE",
"31 552 CURVE SMOOTH",
"31 478 LINE SMOOTH",
"31 466 OFFCURVE",
"40 457 OFFCURVE",
"52 457 CURVE SMOOTH",
"178 457 LINE",
"178 -22 LINE SMOOTH",
"178 -57 OFFCURVE",
"157 -79 OFFCURVE",
"124 -79 CURVE SMOOTH",
"52 -79 LINE SMOOTH",
"40 -79 OFFCURVE",
"31 -88 OFFCURVE",
"31 -100 CURVE SMOOTH",
"31 -172 LINE SMOOTH",
"31 -184 OFFCURVE",
"40 -193 OFFCURVE",
"52 -193 CURVE SMOOTH"
);
},
{
closed = 1;
nodes = (
"273 640 LINE SMOOTH",
"285 640 OFFCURVE",
"294 649 OFFCURVE",
"294 661 CURVE SMOOTH",
"294 770 LINE SMOOTH",
"294 782 OFFCURVE",
"285 791 OFFCURVE",
"273 791 CURVE SMOOTH",
"205 791 LINE SMOOTH",
"193 791 OFFCURVE",
"184 782 OFFCURVE",
"184 770 CURVE SMOOTH",
"184 661 LINE SMOOTH",
"184 649 OFFCURVE",
"193 640 OFFCURVE",
"205 640 CURVE SMOOTH"
);
},
{
closed = 1;
nodes = (
"273 640 LINE SMOOTH",
"285 640 OFFCURVE",
"294 649 OFFCURVE",
"294 661 CURVE SMOOTH",
"294 770 LINE SMOOTH",
"294 782 OFFCURVE",
"285 791 OFFCURVE",
"273 791 CURVE SMOOTH",
"205 791 LINE SMOOTH",
"193 791 OFFCURVE",
"184 782 OFFCURVE",
"184 770 CURVE SMOOTH",
"184 661 LINE SMOOTH",
"184 649 OFFCURVE",
"193 640 OFFCURVE",
"205 640 CURVE SMOOTH"
);
}
);
width = 384;
}
);
leftKerningGroup = j;
rightKerningGroup = j;
unicode = 006A;
},
{
glyphname = k;
lastChange = "2016-03-12 18:34:24 +0000";
layers = (
{
anchors = (
{
name = bottom;
position = "{287, 0}";
},
{
name = top;
position = "{140, 766}";
}
);
hints = (
{
horizontal = 1;
origin = "{0, 42}";
target = up;
type = BottomGhost;
},
{
horizontal = 1;
origin = "{0, 4}";
target = "{0, 30}";
},
{
horizontal = 1;
origin = "{0, 25}";
target = down;
type = TopGhost;
},
{
horizontal = 1;
origin = "{0, 35}";
target = down;
type = TopGhost;
},
{
origin = "{0, 39}";
target = "{0, 3}";
}
);
layerId = "1D8279CA-6213-4437-A9CB-DE6E86D89D97";
name = Bold;
paths = (
{
closed = 1;
nodes = (
"177 0 LINE SMOOTH",
"189 0 OFFCURVE",
"198 9 OFFCURVE",
"198 21 CURVE SMOOTH",
"198 257 LINE",
"231 257 LINE",
"423 15 LINE SMOOTH",
"430 6 OFFCURVE",
"442 0 OFFCURVE",
"454 0 CURVE SMOOTH",
"543 0 LINE SMOOTH",
"555 0 OFFCURVE",
"562 8 OFFCURVE",
"562 18 CURVE SMOOTH",
"562 22 OFFCURVE",
"560 27 OFFCURVE",
"557 31 CURVE SMOOTH",
"329 315 LINE",
"544 539 LINE SMOOTH",
"548 544 OFFCURVE",
"550 549 OFFCURVE",
"550 554 CURVE SMOOTH",
"550 564 OFFCURVE",
"542 573 OFFCURVE",
"529 573 CURVE SMOOTH",
"438 573 LINE SMOOTH",
"428 573 OFFCURVE",
"418 569 OFFCURVE",
"411 561 CURVE SMOOTH",
"232 369 LINE",
"198 369 LINE",
"198 745 LINE SMOOTH",
"198 757 OFFCURVE",
"189 766 OFFCURVE",
"177 766 CURVE SMOOTH",
"99 766 LINE SMOOTH",
"87 766 OFFCURVE",
"78 757 OFFCURVE",
"78 745 CURVE SMOOTH",
"78 21 LINE SMOOTH",
"78 9 OFFCURVE",
"87 0 OFFCURVE",
"99 0 CURVE SMOOTH"
);
}
);
width = 585;
}
);
leftKerningGroup = h;
rightKerningGroup = k;
unicode = 006B;
},
{
glyphname = l;
lastChange = "2016-03-12 18:34:24 +0000";
layers = (
{
anchors = (
{
name = bottom;
position = "{214, 0}";
},
{
name = center;
position = "{194, 393}";
},
{
name = top;
position = "{184, 766}";
},
{
name = topright;
position = "{363, 573}";
}
);
hints = (
{
horizontal = 1;
origin = "{0, 25}";
target = "{0, 8}";
},
{
horizontal = 1;
origin = "{0, 13}";
target = "{0, 20}";
},
{
origin = "{0, 22}";
target = "{0, 8}";
}
);
layerId = "1D8279CA-6213-4437-A9CB-DE6E86D89D97";
name = Bold;
paths = (
{
closed = 1;
nodes = (
"337 0 LINE SMOOTH",
"349 0 OFFCURVE",
"358 9 OFFCURVE",
"358 21 CURVE SMOOTH",
"358 95 LINE SMOOTH",
"358 107 OFFCURVE",
"349 116 OFFCURVE",
"337 116 CURVE SMOOTH",
"246 116 LINE",
"246 723 LINE SMOOTH",
"246 747 OFFCURVE",
"227 766 OFFCURVE",
"203 766 CURVE SMOOTH",
"35 766 LINE SMOOTH",
"23 766 OFFCURVE",
"14 757 OFFCURVE",
"14 745 CURVE SMOOTH",
"14 671 LINE SMOOTH",
"14 659 OFFCURVE",
"23 650 OFFCURVE",
"35 650 CURVE SMOOTH",
"126 650 LINE",
"126 43 LINE SMOOTH",
"126 19 OFFCURVE",
"145 0 OFFCURVE",
"169 0 CURVE SMOOTH"
);
}
);
width = 385;
}
);
leftKerningGroup = l;
rightKerningGroup = l;
unicode = 006C;
},
{
glyphname = lacute;
lastChange = "2016-03-12 18:34:24 +0000";
layers = (
{
hints = (
{
horizontal = 1;
origin = "{0, 25}";
target = "{0, 8}";
},
{
horizontal = 1;
origin = "{0, 13}";
target = "{0, 20}";
},
{
horizontal = 1;
origin = "{1, 18}";
target = "{1, 11}";
},
{
origin = "{0, 22}";
target = "{0, 8}";
}
);
layerId = "1D8279CA-6213-4437-A9CB-DE6E86D89D97";
name = Bold;
paths = (
{
closed = 1;
nodes = (
"337 0 LINE SMOOTH",
"349 0 OFFCURVE",
"358 9 OFFCURVE",
"358 21 CURVE SMOOTH",
"358 95 LINE SMOOTH",
"358 107 OFFCURVE",
"349 116 OFFCURVE",
"337 116 CURVE SMOOTH",
"246 116 LINE",
"246 723 LINE SMOOTH",
"246 747 OFFCURVE",
"227 766 OFFCURVE",
"203 766 CURVE SMOOTH",
"35 766 LINE SMOOTH",
"23 766 OFFCURVE",
"14 757 OFFCURVE",
"14 745 CURVE SMOOTH",
"14 671 LINE SMOOTH",
"14 659 OFFCURVE",
"23 650 OFFCURVE",
"35 650 CURVE SMOOTH",
"126 650 LINE",
"126 43 LINE SMOOTH",
"126 19 OFFCURVE",
"145 0 OFFCURVE",
"169 0 CURVE SMOOTH"
);
},
{
closed = 1;
nodes = (
"181 839 LINE SMOOTH",
"188 839 OFFCURVE",
"196 841 OFFCURVE",
"202 847 CURVE SMOOTH",
"305 943 LINE SMOOTH",
"308 946 OFFCURVE",
"310 951 OFFCURVE",
"310 954 CURVE SMOOTH",
"310 962 OFFCURVE",
"304 969 OFFCURVE",
"295 969 CURVE SMOOTH",
"187 969 LINE SMOOTH",
"179 969 OFFCURVE",
"170 964 OFFCURVE",
"167 956 CURVE SMOOTH",
"122 859 LINE SMOOTH",
"117 848 OFFCURVE",
"124 839 OFFCURVE",
"135 839 CURVE SMOOTH"
);
}
);
width = 385;
}
);
leftKerningGroup = l;
leftMetricsKey = l;
rightKerningGroup = l;
rightMetricsKey = l;
unicode = 013A;
},
{
glyphname = lcaron;
lastChange = "2016-03-12 18:34:24 +0000";
layers = (
{
hints = (
{
horizontal = 1;
origin = "{0, 25}";
target = "{0, 8}";
},
{
horizontal = 1;
origin = "{0, 13}";
target = "{0, 20}";
},
{
horizontal = 1;
origin = "{0, 13}";
target = "{1, 18}";
},
{
origin = "{0, 22}";
target = "{0, 8}";
}
);
layerId = "1D8279CA-6213-4437-A9CB-DE6E86D89D97";
name = Bold;
paths = (
{
closed = 1;
nodes = (
"337 0 LINE SMOOTH",
"349 0 OFFCURVE",
"358 9 OFFCURVE",
"358 21 CURVE SMOOTH",
"358 95 LINE SMOOTH",
"358 107 OFFCURVE",
"349 116 OFFCURVE",
"337 116 CURVE SMOOTH",
"246 116 LINE",
"246 723 LINE SMOOTH",
"246 747 OFFCURVE",
"227 766 OFFCURVE",
"203 766 CURVE SMOOTH",
"35 766 LINE SMOOTH",
"23 766 OFFCURVE",
"14 757 OFFCURVE",
"14 745 CURVE SMOOTH",
"14 671 LINE SMOOTH",
"14 659 OFFCURVE",
"23 650 OFFCURVE",
"35 650 CURVE SMOOTH",
"126 650 LINE",
"126 43 LINE SMOOTH",
"126 19 OFFCURVE",
"145 0 OFFCURVE",
"169 0 CURVE SMOOTH"
);
},
{
closed = 1;
nodes = (
"367 636 LINE SMOOTH",
"374 636 OFFCURVE",
"382 638 OFFCURVE",
"388 644 CURVE SMOOTH",
"491 740 LINE SMOOTH",
"494 743 OFFCURVE",
"496 748 OFFCURVE",
"496 751 CURVE SMOOTH",
"496 759 OFFCURVE",
"490 766 OFFCURVE",
"481 766 CURVE SMOOTH",
"373 766 LINE SMOOTH",
"365 766 OFFCURVE",
"356 761 OFFCURVE",
"353 753 CURVE SMOOTH",
"308 656 LINE SMOOTH",
"303 645 OFFCURVE",
"310 636 OFFCURVE",
"321 636 CURVE SMOOTH"
);
}
);
width = 463;
}
);
leftKerningGroup = l;
leftMetricsKey = l;
unicode = 013E;
},
{
glyphname = lslash;
lastChange = "2016-03-12 18:34:24 +0000";
layers = (
{
hints = (
{
horizontal = 1;
origin = "{0, 25}";
target = "{0, 8}";
},
{
horizontal = 1;
origin = "{1, 10}";
target = down;
type = TopGhost;
},
{
horizontal = 1;
origin = "{0, 13}";
target = "{0, 20}";
},
{
origin = "{0, 22}";
target = "{0, 8}";
},
{
horizontal = 1;
origin = "{1, 21}";
target = up;
type = BottomGhost;
}
);
layerId = "1D8279CA-6213-4437-A9CB-DE6E86D89D97";
name = Bold;
paths = (
{
closed = 1;
nodes = (
"337 0 LINE SMOOTH",
"349 0 OFFCURVE",
"358 9 OFFCURVE",
"358 21 CURVE SMOOTH",
"358 95 LINE SMOOTH",
"358 107 OFFCURVE",
"349 116 OFFCURVE",
"337 116 CURVE SMOOTH",
"246 116 LINE",
"246 723 LINE SMOOTH",
"246 747 OFFCURVE",
"227 766 OFFCURVE",
"203 766 CURVE SMOOTH",
"35 766 LINE SMOOTH",
"23 766 OFFCURVE",
"14 757 OFFCURVE",
"14 745 CURVE SMOOTH",
"14 671 LINE SMOOTH",
"14 659 OFFCURVE",
"23 650 OFFCURVE",
"35 650 CURVE SMOOTH",
"126 650 LINE",
"126 43 LINE SMOOTH",
"126 19 OFFCURVE",
"145 0 OFFCURVE",
"169 0 CURVE SMOOTH"
);
},
{
closed = 1;
nodes = (
"45 197 OFFCURVE",
"50 199 OFFCURVE",
"54 203 CURVE SMOOTH",
"356 465 LINE SMOOTH",
"362 471 OFFCURVE",
"366 479 OFFCURVE",
"366 488 CURVE SMOOTH",
"365 562 LINE SMOOTH",
"365 574 OFFCURVE",
"356 582 OFFCURVE",
"347 582 CURVE SMOOTH",
"342 582 OFFCURVE",
"337 580 OFFCURVE",
"333 576 CURVE SMOOTH",
"31 314 LINE SMOOTH",
"25 308 OFFCURVE",
"21 300 OFFCURVE",
"21 291 CURVE SMOOTH",
"22 217 LINE SMOOTH",
"22 205 OFFCURVE",
"31 197 OFFCURVE",
"40 197 CURVE SMOOTH"
);
}
);
width = 385;
}
);
unicode = 0142;
},
{
glyphname = m;
lastChange = "2016-03-12 18:34:24 +0000";
layers = (
{
anchors = (
{
name = bottom;
position = "{477, 0}";
},
{
name = top;
position = "{477, 573}";
}
);
guideLines = (
{
angle = 90;
position = "{873, 396}";
},
{
angle = 90;
position = "{532, 21}";
}
);
hints = (
{
horizontal = 1;
origin = "{0, 58}";
target = up;
type = BottomGhost;
},
{
horizontal = 1;
origin = "{0, 43}";
target = "{0, 7}";
},
{
horizontal = 1;
origin = "{0, 51}";
target = down;
type = TopGhost;
},
{
origin = "{0, 55}";
target = "{0, 3}";
},
{
origin = "{0, 11}";
target = "{0, 18}";
},
{
origin = "{0, 26}";
target = "{0, 33}";
}
);
layerId = "1D8279CA-6213-4437-A9CB-DE6E86D89D97";
name = Bold;
paths = (
{
closed = 1;
nodes = (
"177 0 LINE SMOOTH",
"189 0 OFFCURVE",
"198 9 OFFCURVE",
"198 21 CURVE SMOOTH",
"198 327 LINE SMOOTH",
"198 416 OFFCURVE",
"247 471 OFFCURVE",
"326 471 CURVE SMOOTH",
"386 471 OFFCURVE",
"419 432 OFFCURVE",
"419 361 CURVE SMOOTH",
"419 21 LINE SMOOTH",
"419 9 OFFCURVE",
"428 0 OFFCURVE",
"440 0 CURVE SMOOTH",
"518 0 LINE SMOOTH",
"530 0 OFFCURVE",
"539 9 OFFCURVE",
"539 21 CURVE SMOOTH",
"539 327 LINE SMOOTH",
"539 416 OFFCURVE",
"588 471 OFFCURVE",
"667 471 CURVE SMOOTH",
"727 471 OFFCURVE",
"760 432 OFFCURVE",
"760 361 CURVE SMOOTH",
"760 21 LINE SMOOTH",
"760 9 OFFCURVE",
"769 0 OFFCURVE",
"781 0 CURVE SMOOTH",
"859 0 LINE SMOOTH",
"871 0 OFFCURVE",
"880 9 OFFCURVE",
"880 21 CURVE SMOOTH",
"880 376 LINE SMOOTH",
"880 501 OFFCURVE",
"808 586 OFFCURVE",
"691 586 CURVE SMOOTH",
"619 586 OFFCURVE",
"553 549 OFFCURVE",
"515 486 CURVE",
"482 550 OFFCURVE",
"423 586 OFFCURVE",
"350 586 CURVE SMOOTH",
"292 586 OFFCURVE",
"238 558 OFFCURVE",
"198 500 CURVE",
"198 552 LINE SMOOTH",
"198 564 OFFCURVE",
"189 573 OFFCURVE",
"177 573 CURVE SMOOTH",
"99 573 LINE SMOOTH",
"87 573 OFFCURVE",
"78 564 OFFCURVE",
"78 552 CURVE SMOOTH",
"78 21 LINE SMOOTH",
"78 9 OFFCURVE",
"87 0 OFFCURVE",
"99 0 CURVE SMOOTH"
);
}
);
width = 948;
}
);
leftKerningGroup = n;
rightKerningGroup = n;
unicode = 006D;
},
{
glyphname = n;
lastChange = "2016-03-12 18:34:24 +0000";
layers = (
{
anchors = (
{
name = bottom;
position = "{311, 0}";
},
{
name = top;
position = "{314, 573}";
}
);
hints = (
{
horizontal = 1;
origin = "{0, 37}";
target = up;
type = BottomGhost;
},
{
horizontal = 1;
origin = "{0, 22}";
target = "{0, 7}";
},
{
horizontal = 1;
origin = "{0, 30}";
target = down;
type = TopGhost;
},
{
origin = "{0, 34}";
target = "{0, 3}";
},
{
origin = "{0, 11}";
target = "{0, 18}";
}
);
layerId = "1D8279CA-6213-4437-A9CB-DE6E86D89D97";
name = Bold;
paths = (
{
closed = 1;
nodes = (
"177 0 LINE SMOOTH",
"189 0 OFFCURVE",
"198 9 OFFCURVE",
"198 21 CURVE SMOOTH",
"198 327 LINE SMOOTH",
"198 416 OFFCURVE",
"247 471 OFFCURVE",
"326 471 CURVE SMOOTH",
"392 471 OFFCURVE",
"429 431 OFFCURVE",
"429 361 CURVE SMOOTH",
"429 21 LINE SMOOTH",
"429 9 OFFCURVE",
"438 0 OFFCURVE",
"450 0 CURVE SMOOTH",
"528 0 LINE SMOOTH",
"540 0 OFFCURVE",
"549 9 OFFCURVE",
"549 21 CURVE SMOOTH",
"549 376 LINE SMOOTH",
"549 498 OFFCURVE",
"465 586 OFFCURVE",
"349 586 CURVE SMOOTH",
"285 586 OFFCURVE",
"234 554 OFFCURVE",
"198 505 CURVE",
"198 552 LINE SMOOTH",
"198 564 OFFCURVE",
"189 573 OFFCURVE",
"177 573 CURVE SMOOTH",
"99 573 LINE SMOOTH",
"87 573 OFFCURVE",
"78 564 OFFCURVE",
"78 552 CURVE SMOOTH",
"78 21 LINE SMOOTH",
"78 9 OFFCURVE",
"87 0 OFFCURVE",
"99 0 CURVE SMOOTH"
);
}
);
width = 617;
}
);
leftKerningGroup = n;
rightKerningGroup = n;
unicode = 006E;
},
{
glyphname = eng;
lastChange = "2016-03-12 18:34:24 +0000";
layers = (
{
hints = (
{
horizontal = 1;
origin = "{0, 45}";
target = "{0, 38}";
},
{
horizontal = 1;
origin = "{0, 22}";
target = up;
type = BottomGhost;
},
{
horizontal = 1;
origin = "{0, 7}";
target = "{0, 30}";
},
{
horizontal = 1;
origin = "{0, 15}";
target = down;
type = TopGhost;
},
{
origin = "{0, 19}";
target = "{0, 26}";
},
{
origin = "{0, 34}";
target = "{0, 3}";
}
);
layerId = "1D8279CA-6213-4437-A9CB-DE6E86D89D97";
name = Bold;
paths = (
{
closed = 1;
nodes = (
"384 -193 LINE SMOOTH",
"480 -193 OFFCURVE",
"549 -121 OFFCURVE",
"549 -22 CURVE SMOOTH",
"549 376 LINE SMOOTH",
"549 498 OFFCURVE",
"465 586 OFFCURVE",
"349 586 CURVE SMOOTH",
"285 586 OFFCURVE",
"234 554 OFFCURVE",
"198 505 CURVE",
"198 552 LINE SMOOTH",
"198 564 OFFCURVE",
"189 573 OFFCURVE",
"177 573 CURVE SMOOTH",
"99 573 LINE SMOOTH",
"87 573 OFFCURVE",
"78 564 OFFCURVE",
"78 552 CURVE SMOOTH",
"78 21 LINE SMOOTH",
"78 9 OFFCURVE",
"87 0 OFFCURVE",
"99 0 CURVE SMOOTH",
"177 0 LINE SMOOTH",
"189 0 OFFCURVE",
"198 9 OFFCURVE",
"198 21 CURVE SMOOTH",
"198 327 LINE SMOOTH",
"198 416 OFFCURVE",
"247 471 OFFCURVE",
"326 471 CURVE SMOOTH",
"392 471 OFFCURVE",
"429 431 OFFCURVE",
"429 361 CURVE SMOOTH",
"429 -22 LINE SMOOTH",
"429 -57 OFFCURVE",
"408 -79 OFFCURVE",
"375 -79 CURVE SMOOTH",
"303 -79 LINE SMOOTH",
"291 -79 OFFCURVE",
"282 -88 OFFCURVE",
"282 -100 CURVE SMOOTH",
"282 -172 LINE SMOOTH",
"282 -184 OFFCURVE",
"291 -193 OFFCURVE",
"303 -193 CURVE SMOOTH"
);
}
);
width = 626;
}
);
leftKerningGroup = n;
rightKerningGroup = j;
unicode = 014B;
},
{
glyphname = o;
lastChange = "2016-03-12 18:34:24 +0000";
layers = (
{
anchors = (
{
name = bottom;
position = "{295, 0}";
},
{
name = center;
position = "{295, 286}";
},
{
name = ogonek;
position = "{379, 10}";
},
{
name = top;
position = "{295, 573}";
},
{
name = topright;
position = "{573, 573}";
}
);
hints = (
{
horizontal = 1;
origin = "{0, 13}";
target = "{1, 13}";
},
{
horizontal = 1;
origin = "{0, 6}";
target = "{1, 6}";
},
{
origin = "{0, 10}";
target = "{1, 2}";
},
{
origin = "{1, 10}";
target = "{0, 2}";
}
);
layerId = "1D8279CA-6213-4437-A9CB-DE6E86D89D97";
name = Bold;
paths = (
{
closed = 1;
nodes = (
"427 -13 OFFCURVE",
"533 93 OFFCURVE",
"533 221 CURVE SMOOTH",
"533 352 LINE SMOOTH",
"533 480 OFFCURVE",
"427 586 OFFCURVE",
"295 586 CURVE SMOOTH",
"163 586 OFFCURVE",
"57 480 OFFCURVE",
"57 352 CURVE SMOOTH",
"57 221 LINE SMOOTH",
"57 93 OFFCURVE",
"163 -13 OFFCURVE",
"295 -13 CURVE SMOOTH"
);
},
{
closed = 1;
nodes = (
"230 103 OFFCURVE",
"177 156 OFFCURVE",
"177 221 CURVE SMOOTH",
"177 352 LINE SMOOTH",
"177 417 OFFCURVE",
"230 470 OFFCURVE",
"295 470 CURVE SMOOTH",
"360 470 OFFCURVE",
"413 417 OFFCURVE",
"413 352 CURVE SMOOTH",
"413 221 LINE SMOOTH",
"413 156 OFFCURVE",
"360 103 OFFCURVE",
"295 103 CURVE SMOOTH"
);
}
);
width = 592;
}
);
leftKerningGroup = o;
rightKerningGroup = o;
unicode = 006F;
},
{
glyphname = oe;
lastChange = "2016-03-12 18:34:24 +0000";
layers = (
{
anchors = (
{
name = bottom;
position = "{473, 0}";
},
{
name = top;
position = "{473, 573}";
}
);
hints = (
{
horizontal = 1;
origin = "{0, 39}";
target = "{1, 13}";
},
{
horizontal = 1;
origin = "{0, 18}";
target = "{2, 8}";
},
{
horizontal = 1;
origin = "{0, 32}";
target = "{2, 3}";
},
{
horizontal = 1;
origin = "{0, 5}";
target = "{0, 14}";
},
{
origin = "{0, 36}";
target = "{1, 2}";
},
{
origin = "{1, 10}";
target = "{0, 17}";
},
{
origin = "{2, 7}";
target = "{0, 22}";
}
);
layerId = "1D8279CA-6213-4437-A9CB-DE6E86D89D97";
name = Bold;
paths = (
{
closed = 1;
nodes = (
"369 -13 OFFCURVE",
"435 21 OFFCURVE",
"479 73 CURVE",
"522 28 OFFCURVE",
"583 0 OFFCURVE",
"651 0 CURVE SMOOTH",
"810 0 LINE SMOOTH",
"822 0 OFFCURVE",
"831 9 OFFCURVE",
"831 21 CURVE SMOOTH",
"831 93 LINE SMOOTH",
"831 105 OFFCURVE",
"822 114 OFFCURVE",
"810 114 CURVE SMOOTH",
"651 114 LINE SMOOTH",
"586 114 OFFCURVE",
"533 167 OFFCURVE",
"533 232 CURVE SMOOTH",
"533 237 LINE",
"846 237 LINE SMOOTH",
"870 237 OFFCURVE",
"889 256 OFFCURVE",
"889 280 CURVE SMOOTH",
"889 347 LINE SMOOTH",
"889 480 OFFCURVE",
"783 586 OFFCURVE",
"651 586 CURVE SMOOTH",
"580 586 OFFCURVE",
"517 555 OFFCURVE",
"473 506 CURVE",
"429 555 OFFCURVE",
"366 586 OFFCURVE",
"295 586 CURVE SMOOTH",
"163 586 OFFCURVE",
"57 480 OFFCURVE",
"57 347 CURVE SMOOTH",
"57 226 LINE SMOOTH",
"57 93 OFFCURVE",
"163 -13 OFFCURVE",
"295 -13 CURVE SMOOTH"
);
},
{
closed = 1;
nodes = (
"230 103 OFFCURVE",
"177 156 OFFCURVE",
"177 221 CURVE SMOOTH",
"177 352 LINE SMOOTH",
"177 417 OFFCURVE",
"230 470 OFFCURVE",
"295 470 CURVE SMOOTH",
"360 470 OFFCURVE",
"413 417 OFFCURVE",
"413 352 CURVE SMOOTH",
"413 221 LINE SMOOTH",
"413 156 OFFCURVE",
"360 103 OFFCURVE",
"295 103 CURVE SMOOTH"
);
},
{
closed = 1;
nodes = (
"533 354 LINE SMOOTH",
"533 419 OFFCURVE",
"586 472 OFFCURVE",
"651 472 CURVE SMOOTH",
"716 472 OFFCURVE",
"769 419 OFFCURVE",
"769 354 CURVE SMOOTH",
"769 345 LINE",
"533 345 LINE"
);
}
);
width = 941;
}
);
leftKerningGroup = o;
leftMetricsKey = o;
rightKerningGroup = e;
rightMetricsKey = e;
unicode = 0153;
},
{
glyphname = p;
lastChange = "2016-03-12 18:34:24 +0000";
layers = (
{
anchors = (
{
name = bottom;
position = "{330, 0}";
},
{
name = top;
position = "{330, 573}";
}
);
hints = (
{
horizontal = 1;
origin = "{0, 29}";
target = up;
type = BottomGhost;
},
{
horizontal = 1;
origin = "{0, 7}";
target = "{1, 13}";
},
{
horizontal = 1;
origin = "{0, 14}";
target = "{1, 6}";
},
{
horizontal = 1;
origin = "{0, 22}";
target = down;
type = TopGhost;
},
{
origin = "{0, 26}";
target = "{0, 3}";
},
{
origin = "{1, 10}";
target = "{0, 10}";
}
);
layerId = "1D8279CA-6213-4437-A9CB-DE6E86D89D97";
name = Bold;
paths = (
{
closed = 1;
nodes = (
"177 -193 LINE SMOOTH",
"189 -193 OFFCURVE",
"198 -184 OFFCURVE",
"198 -172 CURVE SMOOTH",
"198 47 LINE",
"235 8 OFFCURVE",
"283 -13 OFFCURVE",
"332 -13 CURVE SMOOTH",
"456 -13 OFFCURVE",
"555 93 OFFCURVE",
"555 217 CURVE SMOOTH",
"555 356 LINE SMOOTH",
"555 481 OFFCURVE",
"453 586 OFFCURVE",
"332 586 CURVE SMOOTH",
"275 586 OFFCURVE",
"221 560 OFFCURVE",
"185 507 CURVE",
"185 552 LINE SMOOTH",
"185 564 OFFCURVE",
"176 573 OFFCURVE",
"164 573 CURVE SMOOTH",
"99 573 LINE SMOOTH",
"87 573 OFFCURVE",
"78 564 OFFCURVE",
"78 552 CURVE SMOOTH",
"78 -172 LINE SMOOTH",
"78 -184 OFFCURVE",
"87 -193 OFFCURVE",
"99 -193 CURVE SMOOTH"
);
},
{
closed = 1;
nodes = (
"251 102 OFFCURVE",
"198 155 OFFCURVE",
"198 220 CURVE SMOOTH",
"198 353 LINE SMOOTH",
"198 418 OFFCURVE",
"251 471 OFFCURVE",
"317 471 CURVE SMOOTH",
"382 471 OFFCURVE",
"435 418 OFFCURVE",
"435 353 CURVE SMOOTH",
"435 220 LINE SMOOTH",
"435 155 OFFCURVE",
"382 102 OFFCURVE",
"317 102 CURVE SMOOTH"
);
}
);
width = 614;
}
);
leftKerningGroup = p;
rightKerningGroup = o;
unicode = 0070;
},
{
glyphname = thorn;
lastChange = "2016-03-12 18:34:24 +0000";
layers = (
{
anchors = (
{
name = bottom;
position = "{329, 0}";
},
{
name = top;
position = "{133, 766}";
}
);
hints = (
{
horizontal = 1;
origin = "{0, 29}";
target = up;
type = BottomGhost;
},
{
horizontal = 1;
origin = "{0, 7}";
target = "{1, 13}";
},
{
horizontal = 1;
origin = "{0, 14}";
target = "{1, 6}";
},
{
horizontal = 1;
origin = "{0, 22}";
target = down;
type = TopGhost;
},
{
origin = "{0, 26}";
target = "{0, 3}";
},
{
origin = "{1, 10}";
target = "{0, 10}";
}
);
layerId = "1D8279CA-6213-4437-A9CB-DE6E86D89D97";
name = Bold;
paths = (
{
closed = 1;
nodes = (
"177 -193 LINE SMOOTH",
"189 -193 OFFCURVE",
"198 -184 OFFCURVE",
"198 -172 CURVE SMOOTH",
"198 47 LINE",
"235 8 OFFCURVE",
"283 -13 OFFCURVE",
"332 -13 CURVE SMOOTH",
"456 -13 OFFCURVE",
"555 93 OFFCURVE",
"555 217 CURVE SMOOTH",
"555 356 LINE SMOOTH",
"555 481 OFFCURVE",
"453 586 OFFCURVE",
"332 586 CURVE SMOOTH",
"275 586 OFFCURVE",
"221 560 OFFCURVE",
"185 507 CURVE",
"185 745 LINE SMOOTH",
"185 757 OFFCURVE",
"176 766 OFFCURVE",
"164 766 CURVE SMOOTH",
"99 766 LINE SMOOTH",
"87 766 OFFCURVE",
"78 757 OFFCURVE",
"78 745 CURVE SMOOTH",
"78 -172 LINE SMOOTH",
"78 -184 OFFCURVE",
"87 -193 OFFCURVE",
"99 -193 CURVE SMOOTH"
);
},
{
closed = 1;
nodes = (
"251 102 OFFCURVE",
"198 155 OFFCURVE",
"198 220 CURVE SMOOTH",
"198 353 LINE SMOOTH",
"198 418 OFFCURVE",
"251 471 OFFCURVE",
"317 471 CURVE SMOOTH",
"382 471 OFFCURVE",
"435 418 OFFCURVE",
"435 353 CURVE SMOOTH",
"435 220 LINE SMOOTH",
"435 155 OFFCURVE",
"382 102 OFFCURVE",
"317 102 CURVE SMOOTH"
);
}
);
width = 614;
}
);
rightKerningGroup = o;
unicode = 00FE;
},
{
glyphname = q;
lastChange = "2016-03-12 18:34:24 +0000";
layers = (
{
anchors = (
{
name = bottom;
position = "{276, 0}";
},
{
name = top;
position = "{276, 573}";
}
);
hints = (
{
horizontal = 1;
origin = "{0, 29}";
target = up;
type = BottomGhost;
},
{
horizontal = 1;
origin = "{0, 22}";
target = "{1, 13}";
},
{
horizontal = 1;
origin = "{0, 15}";
target = "{1, 6}";
},
{
horizontal = 1;
origin = "{0, 8}";
target = down;
type = TopGhost;
},
{
origin = "{0, 19}";
target = "{1, 2}";
},
{
origin = "{0, 26}";
target = "{0, 3}";
}
);
layerId = "1D8279CA-6213-4437-A9CB-DE6E86D89D97";
name = Bold;
paths = (
{
closed = 1;
nodes = (
"513 -193 LINE SMOOTH",
"525 -193 OFFCURVE",
"534 -184 OFFCURVE",
"534 -172 CURVE SMOOTH",
"534 552 LINE SMOOTH",
"534 564 OFFCURVE",
"525 573 OFFCURVE",
"513 573 CURVE SMOOTH",
"448 573 LINE SMOOTH",
"436 573 OFFCURVE",
"427 564 OFFCURVE",
"427 552 CURVE SMOOTH",
"427 507 LINE",
"391 560 OFFCURVE",
"337 586 OFFCURVE",
"280 586 CURVE SMOOTH",
"159 586 OFFCURVE",
"57 481 OFFCURVE",
"57 356 CURVE SMOOTH",
"57 217 LINE SMOOTH",
"57 93 OFFCURVE",
"156 -13 OFFCURVE",
"280 -13 CURVE SMOOTH",
"329 -13 OFFCURVE",
"377 8 OFFCURVE",
"414 47 CURVE",
"414 -172 LINE SMOOTH",
"414 -184 OFFCURVE",
"423 -193 OFFCURVE",
"435 -193 CURVE SMOOTH"
);
},
{
closed = 1;
nodes = (
"230 102 OFFCURVE",
"177 155 OFFCURVE",
"177 220 CURVE SMOOTH",
"177 353 LINE SMOOTH",
"177 418 OFFCURVE",
"230 471 OFFCURVE",
"295 471 CURVE SMOOTH",
"361 471 OFFCURVE",
"414 418 OFFCURVE",
"414 353 CURVE SMOOTH",
"414 220 LINE SMOOTH",
"414 155 OFFCURVE",
"361 102 OFFCURVE",
"295 102 CURVE SMOOTH"
);
}
);
width = 615;
}
);
leftKerningGroup = o;
rightKerningGroup = q;
unicode = 0071;
},
{
glyphname = r;
lastChange = "2016-03-12 18:34:24 +0000";
layers = (
{
anchors = (
{
name = bottom;
position = "{210, 0}";
},
{
name = top;
position = "{258, 573}";
}
);
guideLines = (
{
angle = 90;
position = "{100, 74}";
}
);
hints = (
{
horizontal = 1;
origin = "{0, 48}";
target = "{0, 41}";
},
{
horizontal = 1;
origin = "{0, 31}";
target = "{0, 38}";
},
{
horizontal = 1;
origin = "{0, 22}";
target = "{0, 13}";
},
{
origin = "{0, 40}";
target = "{0, 8}";
}
);
layerId = "1D8279CA-6213-4437-A9CB-DE6E86D89D97";
name = Bold;
paths = (
{
closed = 1;
nodes = (
"367 0 LINE SMOOTH",
"379 0 OFFCURVE",
"388 9 OFFCURVE",
"388 21 CURVE SMOOTH",
"388 95 LINE SMOOTH",
"388 107 OFFCURVE",
"379 116 OFFCURVE",
"367 116 CURVE SMOOTH",
"268 116 LINE",
"268 368 LINE",
"323 412 LINE SMOOTH",
"375 453 OFFCURVE",
"392 461 OFFCURVE",
"426 461 CURVE SMOOTH",
"452 461 LINE SMOOTH",
"464 461 OFFCURVE",
"473 470 OFFCURVE",
"473 482 CURVE SMOOTH",
"473 559 LINE SMOOTH",
"473 571 OFFCURVE",
"464 580 OFFCURVE",
"452 580 CURVE SMOOTH",
"421 580 LINE SMOOTH",
"380 580 OFFCURVE",
"356 568 OFFCURVE",
"317 537 CURVE SMOOTH",
"263 494 LINE",
"263 530 LINE SMOOTH",
"263 554 OFFCURVE",
"244 573 OFFCURVE",
"220 573 CURVE SMOOTH",
"65 573 LINE SMOOTH",
"53 573 OFFCURVE",
"44 564 OFFCURVE",
"44 552 CURVE SMOOTH",
"44 481 LINE SMOOTH",
"44 469 OFFCURVE",
"53 460 OFFCURVE",
"65 460 CURVE SMOOTH",
"151 460 LINE",
"151 116 LINE",
"75 116 LINE SMOOTH",
"63 116 OFFCURVE",
"54 107 OFFCURVE",
"54 95 CURVE SMOOTH",
"54 21 LINE SMOOTH",
"54 9 OFFCURVE",
"63 0 OFFCURVE",
"75 0 CURVE SMOOTH"
);
}
);
width = 500;
}
);
leftKerningGroup = r;
rightKerningGroup = r;
unicode = 0072;
},
{
glyphname = s;
lastChange = "2016-03-12 18:34:24 +0000";
layers = (
{
anchors = (
{
name = bottom;
position = "{235, 0}";
},
{
name = top;
position = "{233, 566}";
}
);
associatedMasterId = "1D8279CA-6213-4437-A9CB-DE6E86D89D97";
hints = (
{
horizontal = 1;
origin = "{0, 49}";
target = "{0, 36}";
},
{
horizontal = 1;
origin = "{0, 24}";
target = "{0, 11}";
},
{
origin = "{0, 27}";
target = "{0, 8}";
},
{
origin = "{0, 33}";
target = "{0, 2}";
}
);
layerId = "0B29C147-AC26-49AF-97CA-025A14BC2AC5";
name = "Regular Feb 17 16, 01:23";
paths = (
{
closed = 1;
nodes = (
"343 -10 OFFCURVE",
"420 58 OFFCURVE",
"420 154 CURVE SMOOTH",
"420 265 OFFCURVE",
"322 293 OFFCURVE",
"252 319 CURVE SMOOTH",
"181 345 OFFCURVE",
"133 367 OFFCURVE",
"133 425 CURVE SMOOTH",
"133 476 OFFCURVE",
"173 508 OFFCURVE",
"235 508 CURVE SMOOTH",
"288 508 OFFCURVE",
"333 492 OFFCURVE",
"381 465 CURVE SMOOTH",
"391 460 OFFCURVE",
"400 466 OFFCURVE",
"400 476 CURVE SMOOTH",
"400 519 LINE SMOOTH",
"400 528 OFFCURVE",
"395 537 OFFCURVE",
"387 541 CURVE SMOOTH",
"345 563 OFFCURVE",
"290 579 OFFCURVE",
"235 579 CURVE SMOOTH",
"131 579 OFFCURVE",
"57 516 OFFCURVE",
"57 429 CURVE SMOOTH",
"57 319 OFFCURVE",
"129 288 OFFCURVE",
"196 260 CURVE SMOOTH",
"269 229 OFFCURVE",
"344 217 OFFCURVE",
"344 152 CURVE SMOOTH",
"344 97 OFFCURVE",
"298 61 OFFCURVE",
"231 61 CURVE SMOOTH",
"180 61 OFFCURVE",
"121 81 OFFCURVE",
"74 108 CURVE SMOOTH",
"65 113 OFFCURVE",
"55 107 OFFCURVE",
"55 97 CURVE SMOOTH",
"55 52 LINE SMOOTH",
"55 43 OFFCURVE",
"60 34 OFFCURVE",
"68 30 CURVE SMOOTH",
"116 4 OFFCURVE",
"174 -10 OFFCURVE",
"231 -10 CURVE SMOOTH"
);
}
);
width = 470;
},
{
anchors = (
{
name = bottom;
position = "{235, 0}";
},
{
name = top;
position = "{233, 566}";
}
);
associatedMasterId = "1D8279CA-6213-4437-A9CB-DE6E86D89D97";
hints = (
{
horizontal = 1;
origin = "{0, 49}";
target = "{0, 36}";
},
{
horizontal = 1;
origin = "{0, 24}";
target = "{0, 11}";
},
{
origin = "{0, 27}";
target = "{0, 8}";
},
{
origin = "{0, 33}";
target = "{0, 2}";
}
);
layerId = "872FD906-CF2B-433B-80FA-E0E4D283C75D";
name = "Regular Feb 17 16, 01:26";
paths = (
{
closed = 1;
nodes = (
"344 -10 OFFCURVE",
"422 54 OFFCURVE",
"422 162 CURVE SMOOTH",
"422 273 OFFCURVE",
"341 300 OFFCURVE",
"251 326 CURVE SMOOTH",
"183 346 OFFCURVE",
"133 361 OFFCURVE",
"133 422 CURVE SMOOTH",
"133 477 OFFCURVE",
"173 508 OFFCURVE",
"235 508 CURVE SMOOTH",
"288 508 OFFCURVE",
"333 492 OFFCURVE",
"381 465 CURVE",
"391 460 OFFCURVE",
"400 466 OFFCURVE",
"400 476 CURVE SMOOTH",
"400 519 LINE SMOOTH",
"400 528 OFFCURVE",
"395 537 OFFCURVE",
"387 541 CURVE SMOOTH",
"345 563 OFFCURVE",
"290 579 OFFCURVE",
"235 579 CURVE SMOOTH",
"137 579 OFFCURVE",
"55 527 OFFCURVE",
"55 419 CURVE SMOOTH",
"55 304 OFFCURVE",
"147 277 OFFCURVE",
"226 253 CURVE SMOOTH",
"285 235 OFFCURVE",
"344 222 OFFCURVE",
"344 155 CURVE SMOOTH",
"344 95 OFFCURVE",
"297 61 OFFCURVE",
"231 61 CURVE SMOOTH",
"180 61 OFFCURVE",
"121 81 OFFCURVE",
"74 108 CURVE SMOOTH",
"65 113 OFFCURVE",
"55 107 OFFCURVE",
"55 97 CURVE SMOOTH",
"55 52 LINE SMOOTH",
"55 43 OFFCURVE",
"60 34 OFFCURVE",
"68 30 CURVE SMOOTH",
"116 4 OFFCURVE",
"174 -10 OFFCURVE",
"231 -10 CURVE SMOOTH"
);
}
);
width = 470;
},
{
anchors = (
{
name = bottom;
position = "{250, 0}";
},
{
name = top;
position = "{257, 573}";
}
);
hints = (
{
horizontal = 1;
origin = "{0, 59}";
target = "{0, 41}";
},
{
horizontal = 1;
origin = "{0, 29}";
target = "{0, 11}";
},
{
origin = "{0, 32}";
target = "{0, 8}";
},
{
origin = "{0, 38}";
target = "{0, 2}";
},
{
horizontal = 1;
origin = "{0, 47}";
target = down;
type = TopGhost;
},
{
horizontal = 1;
origin = "{0, 17}";
target = up;
type = BottomGhost;
}
);
layerId = "1D8279CA-6213-4437-A9CB-DE6E86D89D97";
name = Bold;
paths = (
{
closed = 1;
nodes = (
"371 -13 OFFCURVE",
"457 57 OFFCURVE",
"457 163 CURVE SMOOTH",
"457 278 OFFCURVE",
"352 310 OFFCURVE",
"284 336 CURVE SMOOTH",
"206 366 OFFCURVE",
"181 385 OFFCURVE",
"181 420 CURVE SMOOTH",
"181 455 OFFCURVE",
"209 475 OFFCURVE",
"254 475 CURVE SMOOTH",
"287 475 OFFCURVE",
"330 464 OFFCURVE",
"382 430 CURVE SMOOTH",
"387 427 OFFCURVE",
"391 426 OFFCURVE",
"396 426 CURVE SMOOTH",
"404 426 OFFCURVE",
"411 430 OFFCURVE",
"415 437 CURVE SMOOTH",
"426 459 OFFCURVE",
"436 479 OFFCURVE",
"445 500 CURVE SMOOTH",
"448 508 OFFCURVE",
"446 518 OFFCURVE",
"439 523 CURVE SMOOTH",
"390 561 OFFCURVE",
"322 585 OFFCURVE",
"253 585 CURVE SMOOTH",
"138 585 OFFCURVE",
"61 519 OFFCURVE",
"61 413 CURVE SMOOTH",
"61 303 OFFCURVE",
"142 265 OFFCURVE",
"210 238 CURVE SMOOTH",
"295 204 OFFCURVE",
"337 195 OFFCURVE",
"337 155 CURVE SMOOTH",
"337 119 OFFCURVE",
"307 97 OFFCURVE",
"251 97 CURVE SMOOTH",
"204 97 OFFCURVE",
"164 112 OFFCURVE",
"117 145 CURVE SMOOTH",
"112 148 OFFCURVE",
"108 149 OFFCURVE",
"103 149 CURVE SMOOTH",
"94 149 OFFCURVE",
"88 145 OFFCURVE",
"83 137 CURVE SMOOTH",
"72 118 OFFCURVE",
"58 95 OFFCURVE",
"49 74 CURVE SMOOTH",
"46 66 OFFCURVE",
"48 56 OFFCURVE",
"55 51 CURVE SMOOTH",
"106 12 OFFCURVE",
"174 -13 OFFCURVE",
"248 -13 CURVE SMOOTH"
);
}
);
width = 500;
}
);
leftKerningGroup = s;
rightKerningGroup = s;
unicode = 0073;
},
{
glyphname = germandbls;
lastChange = "2016-03-12 18:34:24 +0000";
layers = (
{
anchors = (
{
name = bottom;
position = "{329, 0}";
},
{
name = top;
position = "{299, 759}";
}
);
associatedMasterId = "1D8279CA-6213-4437-A9CB-DE6E86D89D97";
hints = (
{
horizontal = 1;
place = "{-10.000000, 71.000000}";
},
{
horizontal = 1;
place = "{468.000000, 66.000000}";
},
{
horizontal = 1;
place = "{699.000000, 72.000000}";
},
{
horizontal = 1;
place = "{-193.000000, 21.000000}";
target = up;
type = BottomGhost;
},
{
place = "{90.000000, 78.000000}";
},
{
place = "{260.000000, 79.000000}";
},
{
place = "{464.000000, 78.000000}";
},
{
place = "{431.000000, 72.000000}";
}
);
layerId = "DB72CA57-6AA9-4555-8D9F-9B82303A41EA";
name = "Regular Feb 17 16, 01:30";
paths = (
{
closed = 1;
nodes = (
"159 -198 LINE SMOOTH",
"177 -198 OFFCURVE",
"192 -184 OFFCURVE",
"192 -165 CURVE SMOOTH",
"192 528 LINE SMOOTH",
"192 619 OFFCURVE",
"231 668 OFFCURVE",
"301 668 CURVE SMOOTH",
"357 668 OFFCURVE",
"393 637 OFFCURVE",
"393 592 CURVE SMOOTH",
"393 511 OFFCURVE",
"248 475 OFFCURVE",
"248 377 CURVE SMOOTH",
"248 249 OFFCURVE",
"440 252 OFFCURVE",
"440 151 CURVE SMOOTH",
"440 112 OFFCURVE",
"413 87 OFFCURVE",
"369 87 CURVE SMOOTH",
"344 87 OFFCURVE",
"307 96 OFFCURVE",
"271 111 CURVE SMOOTH",
"249 119 OFFCURVE",
"230 103 OFFCURVE",
"230 82 CURVE SMOOTH",
"229 40 LINE SMOOTH",
"229 23 OFFCURVE",
"236 13 OFFCURVE",
"252 5 CURVE SMOOTH",
"281 -10 OFFCURVE",
"334 -21 OFFCURVE",
"373 -21 CURVE SMOOTH",
"479 -21 OFFCURVE",
"555 52 OFFCURVE",
"555 155 CURVE SMOOTH",
"555 318 OFFCURVE",
"358 354 OFFCURVE",
"358 381 CURVE SMOOTH",
"358 409 OFFCURVE",
"507 468 OFFCURVE",
"507 599 CURVE SMOOTH",
"507 701 OFFCURVE",
"420 776 OFFCURVE",
"302 776 CURVE SMOOTH",
"168 776 OFFCURVE",
"77 678 OFFCURVE",
"77 533 CURVE SMOOTH",
"77 -165 LINE SMOOTH",
"77 -184 OFFCURVE",
"92 -198 OFFCURVE",
"110 -198 CURVE SMOOTH"
);
}
);
width = 597;
},
{
anchors = (
{
name = bottom;
position = "{378, 0}";
},
{
name = top;
position = "{309, 766}";
}
);
hints = (
{
horizontal = 1;
origin = "{0, 54}";
target = up;
type = BottomGhost;
},
{
horizontal = 1;
origin = "{0, 35}";
target = "{0, 19}";
},
{
horizontal = 1;
origin = "{0, 47}";
target = "{0, 7}";
},
{
origin = "{0, 51}";
target = "{0, 3}";
},
{
origin = "{0, 13}";
target = "{0, 41}";
},
{
origin = "{0, 16}";
target = "{0, 38}";
},
{
origin = "{0, 10}";
target = "{0, 44}";
}
);
layerId = "1D8279CA-6213-4437-A9CB-DE6E86D89D97";
name = Bold;
paths = (
{
closed = 1;
nodes = (
"177 -193 LINE SMOOTH",
"189 -193 OFFCURVE",
"198 -184 OFFCURVE",
"198 -172 CURVE SMOOTH",
"198 522 LINE SMOOTH",
"198 613 OFFCURVE",
"234 669 OFFCURVE",
"304 669 CURVE SMOOTH",
"356 669 OFFCURVE",
"393 639 OFFCURVE",
"393 597 CURVE SMOOTH",
"393 515 OFFCURVE",
"256 470 OFFCURVE",
"256 372 CURVE SMOOTH",
"256 245 OFFCURVE",
"447 258 OFFCURVE",
"447 158 CURVE SMOOTH",
"447 119 OFFCURVE",
"420 94 OFFCURVE",
"376 94 CURVE SMOOTH",
"351 94 OFFCURVE",
"315 103 OFFCURVE",
"279 118 CURVE SMOOTH",
"270 122 OFFCURVE",
"264 124 OFFCURVE",
"259 124 CURVE SMOOTH",
"251 124 OFFCURVE",
"239 119 OFFCURVE",
"239 104 CURVE SMOOTH",
"238 43 LINE SMOOTH",
"238 29 OFFCURVE",
"246 18 OFFCURVE",
"259 13 CURVE SMOOTH",
"288 -2 OFFCURVE",
"341 -13 OFFCURVE",
"380 -13 CURVE SMOOTH",
"485 -13 OFFCURVE",
"561 59 OFFCURVE",
"561 162 CURVE SMOOTH",
"561 324 OFFCURVE",
"365 360 OFFCURVE",
"365 386 CURVE SMOOTH",
"365 413 OFFCURVE",
"506 472 OFFCURVE",
"506 603 CURVE SMOOTH",
"506 707 OFFCURVE",
"418 779 OFFCURVE",
"304 779 CURVE SMOOTH",
"163 779 OFFCURVE",
"78 669 OFFCURVE",
"78 517 CURVE SMOOTH",
"78 -172 LINE SMOOTH",
"78 -184 OFFCURVE",
"87 -193 OFFCURVE",
"99 -193 CURVE SMOOTH"
);
}
);
width = 602;
}
);
unicode = 00DF;
},
{
glyphname = t;
lastChange = "2016-03-12 18:34:24 +0000";
layers = (
{
anchors = (
{
name = bottom;
position = "{292, 0}";
},
{
name = center;
position = "{197, 315}";
},
{
name = top;
position = "{186, 714}";
},
{
name = topright;
position = "{485, 573}";
}
);
hints = (
{
horizontal = 1;
origin = "{0, 43}";
target = "{0, 8}";
},
{
horizontal = 1;
origin = "{0, 31}";
target = "{0, 12}";
},
{
origin = "{0, 40}";
target = "{0, 11}";
},
{
horizontal = 1;
origin = "{0, 25}";
target = down;
type = TopGhost;
}
);
layerId = "1D8279CA-6213-4437-A9CB-DE6E86D89D97";
name = Bold;
paths = (
{
closed = 1;
nodes = (
"414 0 LINE SMOOTH",
"426 0 OFFCURVE",
"435 9 OFFCURVE",
"435 21 CURVE SMOOTH",
"435 91 LINE SMOOTH",
"435 103 OFFCURVE",
"426 112 OFFCURVE",
"414 112 CURVE SMOOTH",
"309 113 LINE SMOOTH",
"270 113 OFFCURVE",
"245 139 OFFCURVE",
"245 179 CURVE SMOOTH",
"245 460 LINE",
"414 460 LINE SMOOTH",
"426 460 OFFCURVE",
"435 469 OFFCURVE",
"435 481 CURVE SMOOTH",
"435 552 LINE SMOOTH",
"435 564 OFFCURVE",
"426 573 OFFCURVE",
"414 573 CURVE SMOOTH",
"245 573 LINE",
"245 681 LINE SMOOTH",
"245 693 OFFCURVE",
"236 702 OFFCURVE",
"224 702 CURVE SMOOTH",
"146 702 LINE SMOOTH",
"134 702 OFFCURVE",
"125 693 OFFCURVE",
"125 681 CURVE SMOOTH",
"125 573 LINE",
"56 573 LINE SMOOTH",
"44 573 OFFCURVE",
"35 564 OFFCURVE",
"35 552 CURVE SMOOTH",
"35 482 LINE SMOOTH",
"35 470 OFFCURVE",
"44 461 OFFCURVE",
"56 461 CURVE SMOOTH",
"125 461 LINE",
"125 174 LINE SMOOTH",
"125 70 OFFCURVE",
"196 0 OFFCURVE",
"300 0 CURVE SMOOTH"
);
}
);
width = 485;
}
);
leftKerningGroup = t;
rightKerningGroup = t;
unicode = 0074;
},
{
glyphname = tbar;
lastChange = "2016-03-12 18:34:24 +0000";
layers = (
{
hints = (
{
horizontal = 1;
origin = "{0, 43}";
target = "{0, 8}";
},
{
horizontal = 1;
origin = "{1, 15}";
target = "{1, 8}";
},
{
horizontal = 1;
origin = "{0, 31}";
target = "{0, 12}";
},
{
origin = "{0, 40}";
target = "{0, 11}";
}
);
layerId = "1D8279CA-6213-4437-A9CB-DE6E86D89D97";
name = Bold;
paths = (
{
closed = 1;
nodes = (
"419 0 LINE SMOOTH",
"431 0 OFFCURVE",
"440 9 OFFCURVE",
"440 21 CURVE SMOOTH",
"440 91 LINE SMOOTH",
"440 103 OFFCURVE",
"431 112 OFFCURVE",
"419 112 CURVE SMOOTH",
"314 113 LINE SMOOTH",
"275 113 OFFCURVE",
"250 139 OFFCURVE",
"250 179 CURVE SMOOTH",
"250 460 LINE",
"419 460 LINE SMOOTH",
"431 460 OFFCURVE",
"440 469 OFFCURVE",
"440 481 CURVE SMOOTH",
"440 552 LINE SMOOTH",
"440 564 OFFCURVE",
"431 573 OFFCURVE",
"419 573 CURVE SMOOTH",
"250 573 LINE",
"250 681 LINE SMOOTH",
"250 693 OFFCURVE",
"241 702 OFFCURVE",
"229 702 CURVE SMOOTH",
"151 702 LINE SMOOTH",
"139 702 OFFCURVE",
"130 693 OFFCURVE",
"130 681 CURVE SMOOTH",
"130 573 LINE",
"61 573 LINE SMOOTH",
"49 573 OFFCURVE",
"40 564 OFFCURVE",
"40 552 CURVE SMOOTH",
"40 482 LINE SMOOTH",
"40 470 OFFCURVE",
"49 461 OFFCURVE",
"61 461 CURVE SMOOTH",
"130 461 LINE",
"130 174 LINE SMOOTH",
"130 70 OFFCURVE",
"201 0 OFFCURVE",
"305 0 CURVE SMOOTH"
);
},
{
closed = 1;
nodes = (
"419 291 LINE SMOOTH",
"431 291 OFFCURVE",
"440 300 OFFCURVE",
"440 312 CURVE SMOOTH",
"440 345 LINE SMOOTH",
"440 357 OFFCURVE",
"431 366 OFFCURVE",
"419 366 CURVE SMOOTH",
"61 366 LINE SMOOTH",
"49 366 OFFCURVE",
"40 357 OFFCURVE",
"40 345 CURVE SMOOTH",
"40 312 LINE SMOOTH",
"40 300 OFFCURVE",
"49 291 OFFCURVE",
"61 291 CURVE SMOOTH"
);
}
);
width = 494;
}
);
leftKerningGroup = t;
rightKerningGroup = t;
unicode = 0167;
},
{
glyphname = tcaron;
lastChange = "2016-03-12 18:34:24 +0000";
layers = (
{
hints = (
{
horizontal = 1;
origin = "{0, 43}";
target = "{0, 8}";
},
{
horizontal = 1;
origin = "{0, 31}";
target = "{0, 12}";
},
{
horizontal = 1;
origin = "{1, 11}";
target = "{1, 18}";
},
{
origin = "{0, 40}";
target = "{0, 11}";
}
);
layerId = "1D8279CA-6213-4437-A9CB-DE6E86D89D97";
name = Bold;
paths = (
{
closed = 1;
nodes = (
"414 0 LINE SMOOTH",
"426 0 OFFCURVE",
"435 9 OFFCURVE",
"435 21 CURVE SMOOTH",
"435 91 LINE SMOOTH",
"435 103 OFFCURVE",
"426 112 OFFCURVE",
"414 112 CURVE SMOOTH",
"309 113 LINE SMOOTH",
"270 113 OFFCURVE",
"245 139 OFFCURVE",
"245 179 CURVE SMOOTH",
"245 460 LINE",
"384 460 LINE SMOOTH",
"396 460 OFFCURVE",
"405 469 OFFCURVE",
"405 481 CURVE SMOOTH",
"405 552 LINE SMOOTH",
"405 564 OFFCURVE",
"396 573 OFFCURVE",
"384 573 CURVE SMOOTH",
"245 573 LINE",
"245 681 LINE SMOOTH",
"245 693 OFFCURVE",
"236 702 OFFCURVE",
"224 702 CURVE SMOOTH",
"146 702 LINE SMOOTH",
"134 702 OFFCURVE",
"125 693 OFFCURVE",
"125 681 CURVE SMOOTH",
"125 573 LINE",
"56 573 LINE SMOOTH",
"44 573 OFFCURVE",
"35 564 OFFCURVE",
"35 552 CURVE SMOOTH",
"35 482 LINE SMOOTH",
"35 470 OFFCURVE",
"44 461 OFFCURVE",
"56 461 CURVE SMOOTH",
"125 461 LINE",
"125 174 LINE SMOOTH",
"125 70 OFFCURVE",
"196 0 OFFCURVE",
"300 0 CURVE SMOOTH"
);
},
{
closed = 1;
nodes = (
"440 636 LINE SMOOTH",
"447 636 OFFCURVE",
"455 638 OFFCURVE",
"461 644 CURVE SMOOTH",
"564 740 LINE SMOOTH",
"567 743 OFFCURVE",
"569 748 OFFCURVE",
"569 751 CURVE SMOOTH",
"569 759 OFFCURVE",
"563 766 OFFCURVE",
"554 766 CURVE SMOOTH",
"446 766 LINE SMOOTH",
"438 766 OFFCURVE",
"429 761 OFFCURVE",
"426 753 CURVE SMOOTH",
"381 656 LINE SMOOTH",
"376 645 OFFCURVE",
"383 636 OFFCURVE",
"394 636 CURVE SMOOTH"
);
}
);
width = 524;
}
);
leftKerningGroup = t;
unicode = 0165;
},
{
glyphname = u;
lastChange = "2016-03-12 18:34:24 +0000";
layers = (
{
anchors = (
{
name = bottom;
position = "{276, 0}";
},
{
name = ogonek;
position = "{486, 10}";
},
{
name = top;
position = "{295, 573}";
},
{
name = topright;
position = "{587, 573}";
}
);
guideLines = (
{
position = "{312, 622}";
}
);
hints = (
{
horizontal = 1;
origin = "{0, 37}";
target = "{0, 22}";
},
{
horizontal = 1;
origin = "{0, 30}";
target = down;
type = TopGhost;
},
{
horizontal = 1;
origin = "{0, 6}";
target = up;
type = BottomGhost;
},
{
origin = "{0, 34}";
target = "{0, 25}";
},
{
origin = "{0, 3}";
target = "{0, 10}";
}
);
layerId = "1D8279CA-6213-4437-A9CB-DE6E86D89D97";
name = Bold;
paths = (
{
closed = 1;
nodes = (
"330 -13 OFFCURVE",
"381 19 OFFCURVE",
"417 68 CURVE",
"417 21 LINE SMOOTH",
"417 9 OFFCURVE",
"426 0 OFFCURVE",
"438 0 CURVE SMOOTH",
"516 0 LINE SMOOTH",
"528 0 OFFCURVE",
"537 9 OFFCURVE",
"537 21 CURVE SMOOTH",
"537 552 LINE SMOOTH",
"537 564 OFFCURVE",
"528 573 OFFCURVE",
"516 573 CURVE SMOOTH",
"438 573 LINE SMOOTH",
"426 573 OFFCURVE",
"417 564 OFFCURVE",
"417 552 CURVE SMOOTH",
"417 246 LINE SMOOTH",
"417 157 OFFCURVE",
"368 102 OFFCURVE",
"289 102 CURVE SMOOTH",
"223 102 OFFCURVE",
"186 142 OFFCURVE",
"186 212 CURVE SMOOTH",
"186 552 LINE SMOOTH",
"186 564 OFFCURVE",
"177 573 OFFCURVE",
"165 573 CURVE SMOOTH",
"87 573 LINE SMOOTH",
"75 573 OFFCURVE",
"66 564 OFFCURVE",
"66 552 CURVE SMOOTH",
"66 197 LINE SMOOTH",
"66 75 OFFCURVE",
"150 -13 OFFCURVE",
"266 -13 CURVE SMOOTH"
);
}
);
width = 618;
}
);
leftKerningGroup = u;
rightKerningGroup = u;
unicode = 0075;
},
{
glyphname = uogonek;
lastChange = "2016-03-12 18:34:24 +0000";
layers = (
{
hints = (
{
horizontal = 1;
origin = "{0, 54}";
target = "{0, 8}";
},
{
horizontal = 1;
origin = "{0, 44}";
target = "{0, 29}";
},
{
horizontal = 1;
origin = "{0, 37}";
target = down;
type = TopGhost;
},
{
origin = "{0, 41}";
target = "{0, 32}";
},
{
origin = "{0, 48}";
target = "{0, 3}";
}
);
layerId = "1D8279CA-6213-4437-A9CB-DE6E86D89D97";
name = Bold;
paths = (
{
closed = 1;
nodes = (
"520 -193 LINE SMOOTH",
"529 -193 OFFCURVE",
"537 -185 OFFCURVE",
"537 -176 CURVE SMOOTH",
"537 -119 LINE SMOOTH",
"537 -109 OFFCURVE",
"529 -102 OFFCURVE",
"520 -102 CURVE SMOOTH",
"499 -102 LINE SMOOTH",
"472 -102 OFFCURVE",
"451 -88 OFFCURVE",
"451 -63 CURVE SMOOTH",
"451 -36 OFFCURVE",
"475 -14 OFFCURVE",
"514 -4 CURVE",
"528 -1 OFFCURVE",
"537 9 OFFCURVE",
"537 22 CURVE SMOOTH",
"537 552 LINE SMOOTH",
"537 564 OFFCURVE",
"528 573 OFFCURVE",
"516 573 CURVE SMOOTH",
"438 573 LINE SMOOTH",
"426 573 OFFCURVE",
"417 564 OFFCURVE",
"417 552 CURVE SMOOTH",
"417 246 LINE SMOOTH",
"417 157 OFFCURVE",
"368 102 OFFCURVE",
"289 102 CURVE SMOOTH",
"223 102 OFFCURVE",
"186 142 OFFCURVE",
"186 212 CURVE SMOOTH",
"186 552 LINE SMOOTH",
"186 564 OFFCURVE",
"177 573 OFFCURVE",
"165 573 CURVE SMOOTH",
"87 573 LINE SMOOTH",
"75 573 OFFCURVE",
"66 564 OFFCURVE",
"66 552 CURVE SMOOTH",
"66 197 LINE SMOOTH",
"66 75 OFFCURVE",
"150 -13 OFFCURVE",
"266 -13 CURVE SMOOTH",
"330 -13 OFFCURVE",
"381 19 OFFCURVE",
"417 68 CURVE",
"417 0 LINE",
"378 -24 OFFCURVE",
"358 -57 OFFCURVE",
"358 -94 CURVE SMOOTH",
"358 -157 OFFCURVE",
"418 -193 OFFCURVE",
"485 -193 CURVE SMOOTH"
);
}
);
width = 618;
}
);
leftKerningGroup = u;
leftMetricsKey = u;
rightKerningGroup = u;
rightMetricsKey = u;
unicode = 0173;
},
{
glyphname = v;
lastChange = "2016-03-12 18:34:24 +0000";
layers = (
{
anchors = (
{
name = bottom;
position = "{280, 0}";
},
{
name = top;
position = "{282, 573}";
}
);
hints = (
{
horizontal = 1;
origin = "{0, 29}";
target = up;
type = BottomGhost;
},
{
horizontal = 1;
origin = "{0, 19}";
target = down;
type = TopGhost;
},
{
origin = "{0, 22}";
target = "{0, 6}";
}
);
layerId = "1D8279CA-6213-4437-A9CB-DE6E86D89D97";
name = Bold;
paths = (
{
closed = 1;
nodes = (
"333 -7 OFFCURVE",
"345 2 OFFCURVE",
"350 15 CURVE SMOOTH",
"535 541 LINE SMOOTH",
"536 544 OFFCURVE",
"537 547 OFFCURVE",
"537 550 CURVE SMOOTH",
"537 563 OFFCURVE",
"527 573 OFFCURVE",
"512 573 CURVE SMOOTH",
"447 573 LINE SMOOTH",
"433 573 OFFCURVE",
"421 564 OFFCURVE",
"417 551 CURVE SMOOTH",
"282 149 LINE",
"147 551 LINE SMOOTH",
"143 564 OFFCURVE",
"131 573 OFFCURVE",
"117 573 CURVE SMOOTH",
"47 573 LINE SMOOTH",
"32 573 OFFCURVE",
"22 563 OFFCURVE",
"22 550 CURVE SMOOTH",
"22 547 OFFCURVE",
"23 544 OFFCURVE",
"24 541 CURVE SMOOTH",
"209 15 LINE SMOOTH",
"214 1 OFFCURVE",
"226 -6 OFFCURVE",
"240 -6 CURVE SMOOTH",
"319 -7 LINE SMOOTH"
);
}
);
width = 564;
}
);
leftKerningGroup = w;
rightKerningGroup = w;
unicode = 0076;
},
{
glyphname = w;
lastChange = "2016-03-12 18:34:24 +0000";
layers = (
{
anchors = (
{
name = bottom;
position = "{383, 0}";
},
{
name = top;
position = "{383, 566}";
}
);
associatedMasterId = "1D8279CA-6213-4437-A9CB-DE6E86D89D97";
hints = (
{
horizontal = 1;
origin = "{0, 42}";
target = up;
type = BottomGhost;
},
{
horizontal = 1;
origin = "{0, 26}";
target = down;
type = TopGhost;
},
{
horizontal = 1;
origin = "{0, 42}";
target = "{0, 30}";
},
{
horizontal = 1;
origin = "{0, 35}";
target = down;
type = TopGhost;
},
{
origin = "{0, 38}";
target = "{0, 13}";
}
);
layerId = "DF69381B-A6E4-4A72-BB49-A84289B88629";
name = "Regular Mar 6 16, 02:05";
paths = (
{
closed = 1;
nodes = (
"255 0 LINE SMOOTH",
"264 0 OFFCURVE",
"273 5 OFFCURVE",
"275 15 CURVE SMOOTH",
"383 453 LINE",
"491 15 LINE SMOOTH",
"493 5 OFFCURVE",
"502 0 OFFCURVE",
"511 0 CURVE SMOOTH",
"565 0 LINE SMOOTH",
"574 0 OFFCURVE",
"582 6 OFFCURVE",
"584 15 CURVE SMOOTH",
"726 546 LINE SMOOTH",
"729 556 OFFCURVE",
"722 566 OFFCURVE",
"711 566 CURVE SMOOTH",
"666 566 LINE SMOOTH",
"657 566 OFFCURVE",
"648 561 OFFCURVE",
"646 551 CURVE SMOOTH",
"538 111 LINE",
"431 554 LINE SMOOTH",
"429 564 OFFCURVE",
"420 569 OFFCURVE",
"411 569 CURVE SMOOTH",
"355 569 LINE SMOOTH",
"346 569 OFFCURVE",
"337 564 OFFCURVE",
"335 554 CURVE SMOOTH",
"229 111 LINE",
"120 551 LINE SMOOTH",
"118 561 OFFCURVE",
"109 566 OFFCURVE",
"100 566 CURVE SMOOTH",
"55 566 LINE SMOOTH",
"44 566 OFFCURVE",
"37 556 OFFCURVE",
"40 546 CURVE SMOOTH",
"182 15 LINE SMOOTH",
"184 6 OFFCURVE",
"192 0 OFFCURVE",
"201 0 CURVE SMOOTH"
);
}
);
width = 767;
},
{
anchors = (
{
name = bottom;
position = "{382, 0}";
},
{
name = top;
position = "{446, 573}";
}
);
hints = (
{
horizontal = 1;
origin = "{0, 47}";
target = up;
type = BottomGhost;
},
{
horizontal = 1;
origin = "{0, 37}";
target = down;
type = TopGhost;
},
{
horizontal = 1;
origin = "{0, 48}";
target = "{0, 32}";
},
{
horizontal = 1;
origin = "{0, 28}";
target = "{0, 3}";
}
);
layerId = "1D8279CA-6213-4437-A9CB-DE6E86D89D97";
name = Bold;
paths = (
{
closed = 1;
nodes = (
"323 -7 OFFCURVE",
"336 2 OFFCURVE",
"340 15 CURVE SMOOTH",
"446 394 LINE",
"559 15 LINE SMOOTH",
"563 1 OFFCURVE",
"576 -6 OFFCURVE",
"590 -6 CURVE SMOOTH",
"669 -7 LINE SMOOTH",
"683 -7 OFFCURVE",
"696 2 OFFCURVE",
"700 15 CURVE SMOOTH",
"865 541 LINE SMOOTH",
"866 544 OFFCURVE",
"867 547 OFFCURVE",
"867 550 CURVE SMOOTH",
"867 563 OFFCURVE",
"857 573 OFFCURVE",
"842 573 CURVE SMOOTH",
"777 573 LINE SMOOTH",
"763 573 OFFCURVE",
"751 564 OFFCURVE",
"747 551 CURVE SMOOTH",
"632 147 LINE",
"512 551 LINE SMOOTH",
"508 564 OFFCURVE",
"496 573 OFFCURVE",
"482 573 CURVE SMOOTH",
"412 573 LINE SMOOTH",
"398 573 OFFCURVE",
"386 564 OFFCURVE",
"382 551 CURVE SMOOTH",
"271 147 LINE",
"147 551 LINE SMOOTH",
"143 564 OFFCURVE",
"131 573 OFFCURVE",
"117 573 CURVE SMOOTH",
"47 573 LINE SMOOTH",
"32 573 OFFCURVE",
"22 563 OFFCURVE",
"22 550 CURVE SMOOTH",
"22 547 OFFCURVE",
"23 544 OFFCURVE",
"24 541 CURVE SMOOTH",
"199 15 LINE SMOOTH",
"204 1 OFFCURVE",
"216 -6 OFFCURVE",
"230 -6 CURVE SMOOTH",
"309 -7 LINE SMOOTH"
);
}
);
width = 894;
}
);
leftKerningGroup = w;
rightKerningGroup = w;
unicode = 0077;
},
{
glyphname = x;
lastChange = "2016-03-12 18:34:24 +0000";
layers = (
{
anchors = (
{
name = bottom;
position = "{287, 0}";
},
{
name = top;
position = "{287, 573}";
}
);
hints = (
{
horizontal = 1;
origin = "{0, 47}";
target = up;
type = BottomGhost;
},
{
horizontal = 1;
origin = "{0, 33}";
target = down;
type = TopGhost;
}
);
layerId = "1D8279CA-6213-4437-A9CB-DE6E86D89D97";
name = Bold;
paths = (
{
closed = 1;
nodes = (
"142 0 LINE SMOOTH",
"152 0 OFFCURVE",
"161 6 OFFCURVE",
"167 14 CURVE SMOOTH",
"287 199 LINE",
"406 14 LINE SMOOTH",
"412 6 OFFCURVE",
"421 0 OFFCURVE",
"431 0 CURVE SMOOTH",
"514 0 LINE SMOOTH",
"528 0 OFFCURVE",
"538 10 OFFCURVE",
"538 22 CURVE SMOOTH",
"538 26 OFFCURVE",
"536 31 OFFCURVE",
"533 36 CURVE SMOOTH",
"357 303 LINE",
"510 537 LINE SMOOTH",
"513 542 OFFCURVE",
"515 547 OFFCURVE",
"515 551 CURVE SMOOTH",
"515 563 OFFCURVE",
"505 573 OFFCURVE",
"491 573 CURVE SMOOTH",
"410 573 LINE SMOOTH",
"400 573 OFFCURVE",
"391 567 OFFCURVE",
"385 559 CURVE SMOOTH",
"287 407 LINE",
"188 559 LINE SMOOTH",
"182 567 OFFCURVE",
"173 573 OFFCURVE",
"163 573 CURVE SMOOTH",
"82 573 LINE SMOOTH",
"68 573 OFFCURVE",
"58 563 OFFCURVE",
"58 551 CURVE SMOOTH",
"58 547 OFFCURVE",
"60 542 OFFCURVE",
"63 537 CURVE SMOOTH",
"216 303 LINE",
"40 36 LINE SMOOTH",
"37 31 OFFCURVE",
"35 26 OFFCURVE",
"35 22 CURVE SMOOTH",
"35 10 OFFCURVE",
"45 0 OFFCURVE",
"59 0 CURVE SMOOTH"
);
}
);
width = 574;
}
);
leftKerningGroup = x;
rightKerningGroup = x;
unicode = 0078;
},
{
glyphname = y;
lastChange = "2016-03-12 18:34:24 +0000";
layers = (
{
anchors = (
{
name = bottom;
position = "{226, -193}";
},
{
name = top;
position = "{282, 573}";
}
);
hints = (
{
horizontal = 1;
origin = "{0, 31}";
target = up;
type = BottomGhost;
},
{
horizontal = 1;
origin = "{0, 20}";
target = down;
type = TopGhost;
},
{
origin = "{0, 23}";
target = "{0, 7}";
}
);
layerId = "1D8279CA-6213-4437-A9CB-DE6E86D89D97";
name = Bold;
paths = (
{
closed = 1;
nodes = (
"253 -193 LINE SMOOTH",
"267 -193 OFFCURVE",
"279 -185 OFFCURVE",
"284 -171 CURVE",
"535 541 LINE SMOOTH",
"536 544 OFFCURVE",
"537 547 OFFCURVE",
"537 550 CURVE SMOOTH",
"537 563 OFFCURVE",
"527 573 OFFCURVE",
"512 573 CURVE SMOOTH",
"447 573 LINE SMOOTH",
"433 573 OFFCURVE",
"421 564 OFFCURVE",
"417 551 CURVE SMOOTH",
"282 152 LINE",
"147 551 LINE SMOOTH",
"143 564 OFFCURVE",
"131 573 OFFCURVE",
"117 573 CURVE SMOOTH",
"47 573 LINE SMOOTH",
"32 573 OFFCURVE",
"22 563 OFFCURVE",
"22 550 CURVE SMOOTH",
"22 547 OFFCURVE",
"23 544 OFFCURVE",
"24 541 CURVE SMOOTH",
"220 -17 LINE",
"168 -165 LINE SMOOTH",
"163 -179 OFFCURVE",
"172 -193 OFFCURVE",
"187 -193 CURVE SMOOTH"
);
}
);
width = 569;
}
);
leftKerningGroup = y;
rightKerningGroup = w;
unicode = 0079;
},
{
glyphname = z;
lastChange = "2016-03-12 18:34:24 +0000";
layers = (
{
anchors = (
{
name = bottom;
position = "{255, 0}";
},
{
name = top;
position = "{255, 573}";
}
);
hints = (
{
horizontal = 1;
origin = "{0, 31}";
target = "{0, 7}";
},
{
horizontal = 1;
origin = "{0, 15}";
target = "{0, 22}";
}
);
layerId = "1D8279CA-6213-4437-A9CB-DE6E86D89D97";
name = Bold;
paths = (
{
closed = 1;
nodes = (
"459 0 OFFCURVE",
"468 8 OFFCURVE",
"468 21 CURVE SMOOTH",
"469 92 LINE SMOOTH",
"469 104 OFFCURVE",
"459 114 OFFCURVE",
"447 114 CURVE SMOOTH",
"203 114 LINE",
"456 489 LINE SMOOTH",
"462 498 OFFCURVE",
"464 508 OFFCURVE",
"464 517 CURVE SMOOTH",
"464 546 OFFCURVE",
"441 573 OFFCURVE",
"410 573 CURVE SMOOTH",
"72 573 LINE SMOOTH",
"60 573 OFFCURVE",
"51 564 OFFCURVE",
"51 552 CURVE SMOOTH",
"51 480 LINE SMOOTH",
"51 468 OFFCURVE",
"60 459 OFFCURVE",
"72 459 CURVE SMOOTH",
"299 459 LINE",
"48 87 LINE SMOOTH",
"42 78 OFFCURVE",
"40 69 OFFCURVE",
"40 60 CURVE SMOOTH",
"40 31 OFFCURVE",
"64 3 OFFCURVE",
"94 3 CURVE SMOOTH",
"447 0 LINE SMOOTH"
);
}
);
width = 510;
}
);
leftKerningGroup = z;
rightKerningGroup = z;
unicode = 007A;
},
{
glyphname = ae.ss01;
lastChange = "2016-03-12 18:34:24 +0000";
layers = (
{
anchors = (
{
name = bottom;
position = "{458, 0}";
},
{
name = top;
position = "{458, 573}";
}
);
hints = (
{
horizontal = 1;
origin = "{0, 6}";
target = "{0, 3}";
},
{
horizontal = 1;
origin = "{0, 34}";
target = "{0, 27}";
},
{
horizontal = 1;
origin = "{0, 48}";
target = "{0, 22}";
},
{
horizontal = 1;
origin = "{0, 82}";
target = "{1, 12}";
},
{
origin = "{0, 79}";
target = "{1, 2}";
},
{
origin = "{1, 9}";
target = "{0, 18}";
},
{
origin = "{0, 26}";
target = "{0, 38}";
}
);
layerId = "1D8279CA-6213-4437-A9CB-DE6E86D89D97";
name = Bold;
paths = (
{
closed = 1;
nodes = (
"324 -13 OFFCURVE",
"406 33 OFFCURVE",
"459 125 CURVE",
"424 114 LINE",
"466 45 OFFCURVE",
"541 0 OFFCURVE",
"628 0 CURVE SMOOTH",
"787 0 LINE SMOOTH",
"799 0 OFFCURVE",
"808 9 OFFCURVE",
"808 21 CURVE SMOOTH",
"808 93 LINE SMOOTH",
"808 105 OFFCURVE",
"799 114 OFFCURVE",
"787 114 CURVE SMOOTH",
"628 114 LINE SMOOTH",
"563 114 OFFCURVE",
"510 167 OFFCURVE",
"510 232 CURVE SMOOTH",
"510 354 LINE SMOOTH",
"510 419 OFFCURVE",
"563 472 OFFCURVE",
"628 472 CURVE SMOOTH",
"693 472 OFFCURVE",
"746 419 OFFCURVE",
"746 354 CURVE SMOOTH",
"746 345 LINE",
"599 345 LINE SMOOTH",
"587 345 OFFCURVE",
"578 336 OFFCURVE",
"578 324 CURVE SMOOTH",
"578 258 LINE SMOOTH",
"578 246 OFFCURVE",
"587 237 OFFCURVE",
"599 237 CURVE SMOOTH",
"823 237 LINE SMOOTH",
"847 237 OFFCURVE",
"866 256 OFFCURVE",
"866 280 CURVE SMOOTH",
"866 347 LINE SMOOTH",
"866 480 OFFCURVE",
"760 586 OFFCURVE",
"628 586 CURVE SMOOTH",
"561 586 OFFCURVE",
"501 559 OFFCURVE",
"458 515 CURVE",
"419 560 OFFCURVE",
"358 586 OFFCURVE",
"282 586 CURVE SMOOTH",
"186 586 OFFCURVE",
"106 543 OFFCURVE",
"67 470 CURVE",
"66 467 OFFCURVE",
"65 464 OFFCURVE",
"65 461 CURVE SMOOTH",
"65 454 OFFCURVE",
"68 448 OFFCURVE",
"74 444 CURVE",
"130 406 LINE SMOOTH",
"134 403 OFFCURVE",
"138 402 OFFCURVE",
"143 402 CURVE SMOOTH",
"150 402 OFFCURVE",
"157 407 OFFCURVE",
"162 415 CURVE",
"186 453 OFFCURVE",
"226 474 OFFCURVE",
"280 474 CURVE SMOOTH",
"339 474 OFFCURVE",
"387 443 OFFCURVE",
"387 392 CURVE SMOOTH",
"387 368 OFFCURVE",
"375 355 OFFCURVE",
"350 350 CURVE SMOOTH",
"331 346 OFFCURVE",
"250 336 OFFCURVE",
"223 332 CURVE SMOOTH",
"107 313 OFFCURVE",
"40 250 OFFCURVE",
"40 158 CURVE SMOOTH",
"40 56 OFFCURVE",
"117 -13 OFFCURVE",
"229 -13 CURVE SMOOTH"
);
},
{
closed = 1;
nodes = (
"187 94 OFFCURVE",
"154 121 OFFCURVE",
"154 162 CURVE SMOOTH",
"154 200 OFFCURVE",
"181 223 OFFCURVE",
"236 233 CURVE SMOOTH",
"263 238 OFFCURVE",
"345 248 OFFCURVE",
"390 255 CURVE",
"390 235 LINE SMOOTH",
"390 161 OFFCURVE",
"317 94 OFFCURVE",
"238 94 CURVE SMOOTH"
);
}
);
width = 938;
}
);
leftKerningGroup = a;
leftMetricsKey = a;
rightKerningGroup = e;
rightMetricsKey = a;
},
{
glyphname = e.ss01;
lastChange = "2016-03-12 18:34:24 +0000";
layers = (
{
anchors = (
{
name = bottom;
position = "{295, 0}";
},
{
name = ogonek;
position = "{445, 10}";
},
{
name = top;
position = "{295, 573}";
}
);
hints = (
{
horizontal = 1;
origin = "{0, 42}";
target = "{0, 8}";
},
{
horizontal = 1;
origin = "{0, 27}";
target = "{0, 20}";
},
{
horizontal = 1;
origin = "{0, 35}";
target = "{0, 15}";
},
{
origin = "{0, 39}";
target = "{0, 11}";
},
{
origin = "{0, 19}";
target = "{0, 31}";
}
);
layerId = "1D8279CA-6213-4437-A9CB-DE6E86D89D97";
name = Bold;
paths = (
{
closed = 1;
nodes = (
"454 0 LINE SMOOTH",
"466 0 OFFCURVE",
"475 9 OFFCURVE",
"475 21 CURVE SMOOTH",
"475 93 LINE SMOOTH",
"475 105 OFFCURVE",
"466 114 OFFCURVE",
"454 114 CURVE SMOOTH",
"295 114 LINE SMOOTH",
"230 114 OFFCURVE",
"177 167 OFFCURVE",
"177 232 CURVE SMOOTH",
"177 354 LINE SMOOTH",
"177 419 OFFCURVE",
"230 472 OFFCURVE",
"295 472 CURVE SMOOTH",
"360 472 OFFCURVE",
"413 419 OFFCURVE",
"413 354 CURVE SMOOTH",
"413 345 LINE",
"266 345 LINE SMOOTH",
"254 345 OFFCURVE",
"245 336 OFFCURVE",
"245 324 CURVE SMOOTH",
"245 258 LINE SMOOTH",
"245 246 OFFCURVE",
"254 237 OFFCURVE",
"266 237 CURVE SMOOTH",
"490 237 LINE SMOOTH",
"514 237 OFFCURVE",
"533 256 OFFCURVE",
"533 280 CURVE SMOOTH",
"533 347 LINE SMOOTH",
"533 480 OFFCURVE",
"427 586 OFFCURVE",
"295 586 CURVE SMOOTH",
"163 586 OFFCURVE",
"57 480 OFFCURVE",
"57 347 CURVE SMOOTH",
"57 239 LINE SMOOTH",
"57 106 OFFCURVE",
"163 0 OFFCURVE",
"295 0 CURVE SMOOTH"
);
}
);
width = 585;
}
);
leftKerningGroup = o;
leftMetricsKey = e;
rightKerningGroup = e;
rightMetricsKey = e;
},
{
glyphname = eogonek.ss01;
lastChange = "2016-03-12 18:34:24 +0000";
layers = (
{
hints = (
{
horizontal = 1;
origin = "{0, 63}";
target = "{0, 8}";
},
{
horizontal = 1;
origin = "{0, 56}";
target = "{0, 22}";
},
{
horizontal = 1;
origin = "{0, 41}";
target = "{0, 34}";
},
{
horizontal = 1;
origin = "{0, 49}";
target = "{0, 29}";
},
{
origin = "{0, 53}";
target = "{0, 25}";
},
{
origin = "{1, 3}";
target = "{0, 11}";
},
{
origin = "{0, 33}";
target = "{0, 45}";
}
);
layerId = "1D8279CA-6213-4437-A9CB-DE6E86D89D97";
name = Bold;
paths = (
{
closed = 1;
nodes = (
"463 -215 LINE SMOOTH",
"473 -215 OFFCURVE",
"481 -207 OFFCURVE",
"481 -197 CURVE SMOOTH",
"481 -149 LINE SMOOTH",
"481 -139 OFFCURVE",
"473 -131 OFFCURVE",
"463 -131 CURVE SMOOTH",
"442 -131 LINE SMOOTH",
"413 -131 OFFCURVE",
"392 -117 OFFCURVE",
"392 -90 CURVE SMOOTH",
"392 -55 OFFCURVE",
"427 -24 OFFCURVE",
"458 1 CURVE SMOOTH",
"469 10 OFFCURVE",
"475 21 OFFCURVE",
"475 34 CURVE SMOOTH",
"475 93 LINE SMOOTH",
"475 105 OFFCURVE",
"466 114 OFFCURVE",
"454 114 CURVE SMOOTH",
"295 114 LINE SMOOTH",
"230 114 OFFCURVE",
"177 167 OFFCURVE",
"177 232 CURVE SMOOTH",
"177 354 LINE SMOOTH",
"177 419 OFFCURVE",
"230 472 OFFCURVE",
"295 472 CURVE SMOOTH",
"360 472 OFFCURVE",
"413 419 OFFCURVE",
"413 354 CURVE SMOOTH",
"413 345 LINE",
"266 345 LINE SMOOTH",
"254 345 OFFCURVE",
"245 336 OFFCURVE",
"245 324 CURVE SMOOTH",
"245 258 LINE SMOOTH",
"245 246 OFFCURVE",
"254 237 OFFCURVE",
"266 237 CURVE SMOOTH",
"490 237 LINE SMOOTH",
"514 237 OFFCURVE",
"533 256 OFFCURVE",
"533 280 CURVE SMOOTH",
"533 347 LINE SMOOTH",
"533 480 OFFCURVE",
"427 586 OFFCURVE",
"295 586 CURVE SMOOTH",
"163 586 OFFCURVE",
"57 480 OFFCURVE",
"57 347 CURVE SMOOTH",
"57 239 LINE SMOOTH",
"57 106 OFFCURVE",
"163 0 OFFCURVE",
"295 0 CURVE SMOOTH",
"358 0 LINE",
"327 -30 OFFCURVE",
"296 -70 OFFCURVE",
"296 -112 CURVE SMOOTH",
"296 -178 OFFCURVE",
"358 -215 OFFCURVE",
"427 -215 CURVE SMOOTH"
);
},
{
closed = 0;
nodes = (
"358 0 LINE",
"327 -30 OFFCURVE",
"296 -69 OFFCURVE",
"296 -114 CURVE SMOOTH",
"296 -177 OFFCURVE",
"358 -215 OFFCURVE",
"427 -215 CURVE SMOOTH",
"463 -215 LINE SMOOTH",
"473 -215 OFFCURVE",
"481 -207 OFFCURVE",
"481 -197 CURVE SMOOTH",
"481 -149 LINE SMOOTH",
"481 -139 OFFCURVE",
"473 -131 OFFCURVE",
"463 -131 CURVE SMOOTH",
"442 -131 LINE SMOOTH",
"413 -131 OFFCURVE",
"392 -117 OFFCURVE",
"392 -90 CURVE SMOOTH",
"392 -52 OFFCURVE",
"431 -20 OFFCURVE",
"458 1 CURVE SMOOTH",
"467 8 OFFCURVE",
"475 18 OFFCURVE",
"475 34 CURVE SMOOTH"
);
}
);
width = 585;
}
);
leftKerningGroup = o;
leftMetricsKey = e;
rightKerningGroup = e;
rightMetricsKey = e;
},
{
glyphname = f.ss01;
lastChange = "2016-03-12 18:34:24 +0000";
layers = (
{
anchors = (
{
name = bottom;
position = "{197, -193}";
},
{
name = top;
position = "{206, 779}";
}
);
hints = (
{
horizontal = 1;
origin = "{0, 43}";
target = up;
type = BottomGhost;
},
{
horizontal = 1;
origin = "{0, 31}";
target = "{0, 38}";
},
{
horizontal = 1;
origin = "{0, 26}";
target = "{0, 17}";
},
{
origin = "{0, 40}";
target = "{0, 3}";
}
);
layerId = "1D8279CA-6213-4437-A9CB-DE6E86D89D97";
name = Bold;
paths = (
{
closed = 1;
nodes = (
"234 -193 LINE SMOOTH",
"246 -193 OFFCURVE",
"255 -184 OFFCURVE",
"255 -172 CURVE SMOOTH",
"255 461 LINE",
"384 461 LINE SMOOTH",
"396 461 OFFCURVE",
"405 470 OFFCURVE",
"405 482 CURVE SMOOTH",
"405 552 LINE SMOOTH",
"405 564 OFFCURVE",
"396 573 OFFCURVE",
"384 573 CURVE SMOOTH",
"255 573 LINE",
"255 612 LINE SMOOTH",
"255 647 OFFCURVE",
"276 669 OFFCURVE",
"309 669 CURVE SMOOTH",
"404 669 LINE SMOOTH",
"416 669 OFFCURVE",
"425 678 OFFCURVE",
"425 690 CURVE SMOOTH",
"425 758 LINE SMOOTH",
"425 770 OFFCURVE",
"416 779 OFFCURVE",
"404 779 CURVE SMOOTH",
"310 779 LINE SMOOTH",
"206 779 OFFCURVE",
"135 709 OFFCURVE",
"135 605 CURVE SMOOTH",
"135 573 LINE",
"56 573 LINE SMOOTH",
"44 573 OFFCURVE",
"35 564 OFFCURVE",
"35 552 CURVE SMOOTH",
"35 482 LINE SMOOTH",
"35 470 OFFCURVE",
"44 461 OFFCURVE",
"56 461 CURVE SMOOTH",
"135 461 LINE",
"135 -172 LINE SMOOTH",
"135 -184 OFFCURVE",
"144 -193 OFFCURVE",
"156 -193 CURVE SMOOTH"
);
}
);
width = 452;
}
);
leftKerningGroup = f;
leftMetricsKey = f;
rightKerningGroup = f;
rightMetricsKey = f;
},
{
glyphname = oe.ss01;
lastChange = "2016-03-12 18:34:24 +0000";
layers = (
{
anchors = (
{
name = bottom;
position = "{473, 0}";
},
{
name = top;
position = "{473, 573}";
}
);
hints = (
{
horizontal = 1;
origin = "{0, 54}";
target = "{1, 13}";
},
{
horizontal = 1;
origin = "{0, 33}";
target = "{0, 26}";
},
{
horizontal = 1;
origin = "{0, 47}";
target = "{0, 21}";
},
{
horizontal = 1;
origin = "{0, 5}";
target = "{0, 14}";
},
{
origin = "{0, 51}";
target = "{1, 2}";
},
{
origin = "{1, 10}";
target = "{0, 17}";
},
{
origin = "{0, 25}";
target = "{0, 37}";
}
);
layerId = "1D8279CA-6213-4437-A9CB-DE6E86D89D97";
name = Bold;
paths = (
{
closed = 1;
nodes = (
"369 -13 OFFCURVE",
"435 21 OFFCURVE",
"479 73 CURVE",
"522 28 OFFCURVE",
"583 0 OFFCURVE",
"651 0 CURVE SMOOTH",
"810 0 LINE SMOOTH",
"822 0 OFFCURVE",
"831 9 OFFCURVE",
"831 21 CURVE SMOOTH",
"831 93 LINE SMOOTH",
"831 105 OFFCURVE",
"822 114 OFFCURVE",
"810 114 CURVE SMOOTH",
"651 114 LINE SMOOTH",
"586 114 OFFCURVE",
"533 167 OFFCURVE",
"533 232 CURVE SMOOTH",
"533 354 LINE SMOOTH",
"533 419 OFFCURVE",
"586 472 OFFCURVE",
"651 472 CURVE SMOOTH",
"716 472 OFFCURVE",
"769 419 OFFCURVE",
"769 354 CURVE SMOOTH",
"769 345 LINE",
"622 345 LINE SMOOTH",
"610 345 OFFCURVE",
"601 336 OFFCURVE",
"601 324 CURVE SMOOTH",
"601 258 LINE SMOOTH",
"601 246 OFFCURVE",
"610 237 OFFCURVE",
"622 237 CURVE SMOOTH",
"846 237 LINE SMOOTH",
"870 237 OFFCURVE",
"889 256 OFFCURVE",
"889 280 CURVE SMOOTH",
"889 347 LINE SMOOTH",
"889 480 OFFCURVE",
"783 586 OFFCURVE",
"651 586 CURVE SMOOTH",
"580 586 OFFCURVE",
"517 555 OFFCURVE",
"473 506 CURVE",
"429 555 OFFCURVE",
"366 586 OFFCURVE",
"295 586 CURVE SMOOTH",
"163 586 OFFCURVE",
"57 480 OFFCURVE",
"57 347 CURVE SMOOTH",
"57 226 LINE SMOOTH",
"57 93 OFFCURVE",
"163 -13 OFFCURVE",
"295 -13 CURVE SMOOTH"
);
},
{
closed = 1;
nodes = (
"230 103 OFFCURVE",
"177 156 OFFCURVE",
"177 221 CURVE SMOOTH",
"177 352 LINE SMOOTH",
"177 417 OFFCURVE",
"230 470 OFFCURVE",
"295 470 CURVE SMOOTH",
"360 470 OFFCURVE",
"413 417 OFFCURVE",
"413 352 CURVE SMOOTH",
"413 221 LINE SMOOTH",
"413 156 OFFCURVE",
"360 103 OFFCURVE",
"295 103 CURVE SMOOTH"
);
}
);
width = 941;
}
);
leftKerningGroup = o;
leftMetricsKey = o;
rightKerningGroup = e;
rightMetricsKey = e;
},
{
glyphname = fi;
lastChange = "2016-03-12 18:34:24 +0000";
layers = (
{
anchors = (
{
name = caret_1;
position = "{418, 0}";
}
);
hints = (
{
horizontal = 1;
origin = "{0, 53}";
target = "{0, 18}";
},
{
horizontal = 1;
origin = "{0, 41}";
target = "{0, 48}";
},
{
horizontal = 1;
origin = "{1, 15}";
target = "{1, 8}";
},
{
horizontal = 1;
origin = "{0, 36}";
target = "{0, 27}";
},
{
origin = "{0, 50}";
target = "{0, 3}";
},
{
origin = "{0, 6}";
target = "{0, 18}";
}
);
layerId = "1D8279CA-6213-4437-A9CB-DE6E86D89D97";
name = Bold;
paths = (
{
closed = 1;
nodes = (
"234 0 LINE SMOOTH",
"246 0 OFFCURVE",
"255 9 OFFCURVE",
"255 21 CURVE SMOOTH",
"255 461 LINE",
"553 461 LINE",
"553 50 LINE SMOOTH",
"553 22 OFFCURVE",
"575 0 OFFCURVE",
"603 0 CURVE SMOOTH",
"754 0 LINE SMOOTH",
"766 0 OFFCURVE",
"775 9 OFFCURVE",
"775 21 CURVE SMOOTH",
"775 93 LINE SMOOTH",
"775 105 OFFCURVE",
"766 114 OFFCURVE",
"754 114 CURVE SMOOTH",
"673 114 LINE",
"673 523 LINE SMOOTH",
"673 551 OFFCURVE",
"651 573 OFFCURVE",
"623 573 CURVE SMOOTH",
"255 573 LINE",
"255 612 LINE SMOOTH",
"255 647 OFFCURVE",
"276 669 OFFCURVE",
"309 669 CURVE SMOOTH",
"404 669 LINE SMOOTH",
"416 669 OFFCURVE",
"425 678 OFFCURVE",
"425 690 CURVE SMOOTH",
"425 758 LINE SMOOTH",
"425 770 OFFCURVE",
"416 779 OFFCURVE",
"404 779 CURVE SMOOTH",
"310 779 LINE SMOOTH",
"206 779 OFFCURVE",
"135 709 OFFCURVE",
"135 605 CURVE SMOOTH",
"135 573 LINE",
"56 573 LINE SMOOTH",
"44 573 OFFCURVE",
"35 564 OFFCURVE",
"35 552 CURVE SMOOTH",
"35 482 LINE SMOOTH",
"35 470 OFFCURVE",
"44 461 OFFCURVE",
"56 461 CURVE SMOOTH",
"135 461 LINE",
"135 21 LINE SMOOTH",
"135 9 OFFCURVE",
"144 0 OFFCURVE",
"156 0 CURVE SMOOTH"
);
},
{
closed = 1;
nodes = (
"651 639 LINE SMOOTH",
"663 639 OFFCURVE",
"672 648 OFFCURVE",
"672 660 CURVE SMOOTH",
"672 775 LINE SMOOTH",
"672 787 OFFCURVE",
"663 796 OFFCURVE",
"651 796 CURVE SMOOTH",
"575 796 LINE SMOOTH",
"563 796 OFFCURVE",
"554 787 OFFCURVE",
"554 775 CURVE SMOOTH",
"554 660 LINE SMOOTH",
"554 648 OFFCURVE",
"563 639 OFFCURVE",
"575 639 CURVE SMOOTH"
);
}
);
width = 807;
}
);
leftKerningGroup = f;
leftMetricsKey = f;
rightKerningGroup = i;
rightMetricsKey = i;
unicode = FB01;
},
{
glyphname = fl;
lastChange = "2016-03-12 18:34:24 +0000";
layers = (
{
anchors = (
{
name = caret_1;
position = "{420, 0}";
}
);
hints = (
{
horizontal = 1;
origin = "{0, 53}";
target = "{0, 31}";
},
{
horizontal = 1;
origin = "{0, 41}";
target = "{0, 48}";
},
{
horizontal = 1;
origin = "{0, 36}";
target = "{0, 17}";
},
{
origin = "{0, 50}";
target = "{0, 3}";
},
{
origin = "{0, 19}";
target = "{0, 31}";
}
);
layerId = "1D8279CA-6213-4437-A9CB-DE6E86D89D97";
name = Bold;
paths = (
{
closed = 1;
nodes = (
"234 0 LINE SMOOTH",
"246 0 OFFCURVE",
"255 9 OFFCURVE",
"255 21 CURVE SMOOTH",
"255 461 LINE",
"384 461 LINE SMOOTH",
"396 461 OFFCURVE",
"405 470 OFFCURVE",
"405 482 CURVE SMOOTH",
"405 552 LINE SMOOTH",
"405 564 OFFCURVE",
"396 573 OFFCURVE",
"384 573 CURVE SMOOTH",
"255 573 LINE",
"255 609 LINE SMOOTH",
"255 644 OFFCURVE",
"276 666 OFFCURVE",
"309 666 CURVE SMOOTH",
"560 666 LINE",
"560 43 LINE SMOOTH",
"560 19 OFFCURVE",
"579 0 OFFCURVE",
"603 0 CURVE SMOOTH",
"771 0 LINE SMOOTH",
"783 0 OFFCURVE",
"792 9 OFFCURVE",
"792 21 CURVE SMOOTH",
"792 93 LINE SMOOTH",
"792 105 OFFCURVE",
"783 114 OFFCURVE",
"771 114 CURVE SMOOTH",
"680 114 LINE",
"680 736 LINE SMOOTH",
"680 760 OFFCURVE",
"661 779 OFFCURVE",
"637 779 CURVE",
"310 779 LINE SMOOTH",
"206 779 OFFCURVE",
"135 709 OFFCURVE",
"135 605 CURVE SMOOTH",
"135 573 LINE",
"56 573 LINE SMOOTH",
"44 573 OFFCURVE",
"35 564 OFFCURVE",
"35 552 CURVE SMOOTH",
"35 482 LINE SMOOTH",
"35 470 OFFCURVE",
"44 461 OFFCURVE",
"56 461 CURVE SMOOTH",
"135 461 LINE",
"135 21 LINE SMOOTH",
"135 9 OFFCURVE",
"144 0 OFFCURVE",
"156 0 CURVE SMOOTH"
);
}
);
width = 819;
}
);
leftKerningGroup = f;
leftMetricsKey = f;
rightKerningGroup = l;
rightMetricsKey = l;
unicode = FB02;
},
{
glyphname = fi.ss01;
lastChange = "2016-03-12 18:34:24 +0000";
layers = (
{
anchors = (
{
name = caret_1;
position = "{419, 0}";
}
);
hints = (
{
horizontal = 1;
origin = "{0, 53}";
target = up;
type = BottomGhost;
},
{
horizontal = 1;
origin = "{0, 9}";
target = "{0, 18}";
},
{
horizontal = 1;
origin = "{0, 41}";
target = "{0, 48}";
},
{
horizontal = 1;
origin = "{1, 15}";
target = "{1, 8}";
},
{
horizontal = 1;
origin = "{0, 36}";
target = "{0, 27}";
},
{
origin = "{0, 50}";
target = "{0, 3}";
},
{
origin = "{0, 6}";
target = "{0, 18}";
}
);
layerId = "1D8279CA-6213-4437-A9CB-DE6E86D89D97";
name = Bold;
paths = (
{
closed = 1;
nodes = (
"234 -193 LINE SMOOTH",
"246 -193 OFFCURVE",
"255 -184 OFFCURVE",
"255 -172 CURVE SMOOTH",
"255 461 LINE",
"553 461 LINE",
"553 50 LINE SMOOTH",
"553 22 OFFCURVE",
"575 0 OFFCURVE",
"603 0 CURVE SMOOTH",
"754 0 LINE SMOOTH",
"766 0 OFFCURVE",
"775 9 OFFCURVE",
"775 21 CURVE SMOOTH",
"775 93 LINE SMOOTH",
"775 105 OFFCURVE",
"766 114 OFFCURVE",
"754 114 CURVE SMOOTH",
"673 114 LINE",
"673 523 LINE SMOOTH",
"673 551 OFFCURVE",
"651 573 OFFCURVE",
"623 573 CURVE SMOOTH",
"255 573 LINE",
"255 612 LINE SMOOTH",
"255 647 OFFCURVE",
"276 669 OFFCURVE",
"309 669 CURVE SMOOTH",
"404 669 LINE SMOOTH",
"416 669 OFFCURVE",
"425 678 OFFCURVE",
"425 690 CURVE SMOOTH",
"425 758 LINE SMOOTH",
"425 770 OFFCURVE",
"416 779 OFFCURVE",
"404 779 CURVE SMOOTH",
"310 779 LINE SMOOTH",
"206 779 OFFCURVE",
"135 709 OFFCURVE",
"135 605 CURVE SMOOTH",
"135 573 LINE",
"56 573 LINE SMOOTH",
"44 573 OFFCURVE",
"35 564 OFFCURVE",
"35 552 CURVE SMOOTH",
"35 482 LINE SMOOTH",
"35 470 OFFCURVE",
"44 461 OFFCURVE",
"56 461 CURVE SMOOTH",
"135 461 LINE",
"135 -172 LINE SMOOTH",
"135 -184 OFFCURVE",
"144 -193 OFFCURVE",
"156 -193 CURVE SMOOTH"
);
},
{
closed = 1;
nodes = (
"651 639 LINE SMOOTH",
"663 639 OFFCURVE",
"672 648 OFFCURVE",
"672 660 CURVE SMOOTH",
"672 775 LINE SMOOTH",
"672 787 OFFCURVE",
"663 796 OFFCURVE",
"651 796 CURVE SMOOTH",
"575 796 LINE SMOOTH",
"563 796 OFFCURVE",
"554 787 OFFCURVE",
"554 775 CURVE SMOOTH",
"554 660 LINE SMOOTH",
"554 648 OFFCURVE",
"563 639 OFFCURVE",
"575 639 CURVE SMOOTH"
);
}
);
width = 807;
}
);
leftKerningGroup = f;
leftMetricsKey = f;
rightKerningGroup = i;
rightMetricsKey = i;
},
{
glyphname = fl.ss01;
lastChange = "2016-03-12 18:34:24 +0000";
layers = (
{
anchors = (
{
name = caret_1;
position = "{420, 0}";
}
);
hints = (
{
horizontal = 1;
origin = "{0, 53}";
target = up;
type = BottomGhost;
},
{
horizontal = 1;
origin = "{0, 22}";
target = "{0, 31}";
},
{
horizontal = 1;
origin = "{0, 41}";
target = "{0, 48}";
},
{
horizontal = 1;
origin = "{0, 36}";
target = "{0, 17}";
},
{
origin = "{0, 50}";
target = "{0, 3}";
},
{
origin = "{0, 19}";
target = "{0, 31}";
}
);
layerId = "1D8279CA-6213-4437-A9CB-DE6E86D89D97";
name = Bold;
paths = (
{
closed = 1;
nodes = (
"234 -193 LINE SMOOTH",
"246 -193 OFFCURVE",
"255 -184 OFFCURVE",
"255 -172 CURVE SMOOTH",
"255 461 LINE",
"384 461 LINE SMOOTH",
"396 461 OFFCURVE",
"405 470 OFFCURVE",
"405 482 CURVE SMOOTH",
"405 552 LINE SMOOTH",
"405 564 OFFCURVE",
"396 573 OFFCURVE",
"384 573 CURVE SMOOTH",
"255 573 LINE",
"255 609 LINE SMOOTH",
"255 644 OFFCURVE",
"276 666 OFFCURVE",
"309 666 CURVE SMOOTH",
"560 666 LINE",
"560 43 LINE SMOOTH",
"560 19 OFFCURVE",
"579 0 OFFCURVE",
"603 0 CURVE SMOOTH",
"771 0 LINE SMOOTH",
"783 0 OFFCURVE",
"792 9 OFFCURVE",
"792 21 CURVE SMOOTH",
"792 93 LINE SMOOTH",
"792 105 OFFCURVE",
"783 114 OFFCURVE",
"771 114 CURVE SMOOTH",
"680 114 LINE",
"680 736 LINE SMOOTH",
"680 760 OFFCURVE",
"661 779 OFFCURVE",
"637 779 CURVE SMOOTH",
"310 779 LINE SMOOTH",
"206 779 OFFCURVE",
"135 709 OFFCURVE",
"135 605 CURVE SMOOTH",
"135 573 LINE",
"56 573 LINE SMOOTH",
"44 573 OFFCURVE",
"35 564 OFFCURVE",
"35 552 CURVE SMOOTH",
"35 482 LINE SMOOTH",
"35 470 OFFCURVE",
"44 461 OFFCURVE",
"56 461 CURVE SMOOTH",
"135 461 LINE",
"135 -172 LINE SMOOTH",
"135 -184 OFFCURVE",
"144 -193 OFFCURVE",
"156 -193 CURVE SMOOTH"
);
}
);
width = 819;
}
);
leftKerningGroup = f;
leftMetricsKey = f;
rightKerningGroup = l;
rightMetricsKey = l;
},
{
glyphname = ordfeminine;
lastChange = "2016-03-12 18:34:24 +0000";
layers = (
{
hints = (
{
horizontal = 1;
origin = "{0, 41}";
target = "{1, 12}";
},
{
horizontal = 1;
origin = "{0, 14}";
target = "{0, 27}";
},
{
origin = "{0, 38}";
target = "{1, 2}";
},
{
origin = "{1, 9}";
target = "{0, 10}";
}
);
layerId = "1D8279CA-6213-4437-A9CB-DE6E86D89D97";
name = Bold;
paths = (
{
closed = 1;
nodes = (
"215 340 OFFCURVE",
"249 356 OFFCURVE",
"275 388 CURVE",
"275 366 LINE SMOOTH",
"275 356 OFFCURVE",
"283 348 OFFCURVE",
"293 348 CURVE SMOOTH",
"327 348 LINE SMOOTH",
"337 348 OFFCURVE",
"345 356 OFFCURVE",
"345 366 CURVE SMOOTH",
"345 605 LINE SMOOTH",
"345 678 OFFCURVE",
"289 728 OFFCURVE",
"208 728 CURVE SMOOTH",
"150 728 OFFCURVE",
"100 701 OFFCURVE",
"73 656 CURVE SMOOTH",
"67 645 OFFCURVE",
"71 632 OFFCURVE",
"81 625 CURVE SMOOTH",
"107 608 LINE SMOOTH",
"116 602 OFFCURVE",
"127 605 OFFCURVE",
"134 615 CURVE SMOOTH",
"152 641 OFFCURVE",
"176 655 OFFCURVE",
"205 655 CURVE SMOOTH",
"244 655 OFFCURVE",
"272 634 OFFCURVE",
"272 605 CURVE SMOOTH",
"272 602 LINE SMOOTH",
"272 585 OFFCURVE",
"262 573 OFFCURVE",
"246 571 CURVE SMOOTH",
"171 561 LINE SMOOTH",
"100 551 OFFCURVE",
"57 509 OFFCURVE",
"57 450 CURVE SMOOTH",
"57 385 OFFCURVE",
"107 340 OFFCURVE",
"175 340 CURVE SMOOTH"
);
},
{
closed = 1;
nodes = (
"150 410 OFFCURVE",
"130 426 OFFCURVE",
"130 452 CURVE SMOOTH",
"130 477 OFFCURVE",
"145 490 OFFCURVE",
"179 496 CURVE SMOOTH",
"221 501 OFFCURVE",
"245 505 OFFCURVE",
"274 509 CURVE",
"274 500 LINE SMOOTH",
"274 454 OFFCURVE",
"230 410 OFFCURVE",
"182 410 CURVE SMOOTH"
);
}
);
width = 417;
}
);
unicode = 00AA;
},
{
glyphname = ordmasculine;
lastChange = "2016-03-12 18:34:24 +0000";
layers = (
{
hints = (
{
horizontal = 1;
origin = "{0, 13}";
target = "{1, 13}";
},
{
horizontal = 1;
origin = "{0, 6}";
target = "{1, 6}";
},
{
origin = "{0, 10}";
target = "{1, 2}";
},
{
origin = "{1, 10}";
target = "{0, 2}";
}
);
layerId = "1D8279CA-6213-4437-A9CB-DE6E86D89D97";
name = Bold;
paths = (
{
closed = 1;
nodes = (
"294 340 OFFCURVE",
"360 406 OFFCURVE",
"360 487 CURVE SMOOTH",
"360 581 LINE SMOOTH",
"360 662 OFFCURVE",
"294 728 OFFCURVE",
"213 728 CURVE SMOOTH",
"132 728 OFFCURVE",
"66 662 OFFCURVE",
"66 581 CURVE SMOOTH",
"66 487 LINE SMOOTH",
"66 406 OFFCURVE",
"132 340 OFFCURVE",
"213 340 CURVE SMOOTH"
);
},
{
closed = 1;
nodes = (
"175 414 OFFCURVE",
"142 445 OFFCURVE",
"142 483 CURVE SMOOTH",
"142 585 LINE SMOOTH",
"142 622 OFFCURVE",
"175 654 OFFCURVE",
"213 654 CURVE SMOOTH",
"251 654 OFFCURVE",
"284 622 OFFCURVE",
"284 585 CURVE SMOOTH",
"284 483 LINE SMOOTH",
"284 445 OFFCURVE",
"251 414 OFFCURVE",
"213 414 CURVE SMOOTH"
);
}
);
width = 428;
}
);
unicode = 00BA;
},
{
glyphname = pi;
lastChange = "2016-03-12 18:34:24 +0000";
layers = (
{
hints = (
{
horizontal = 1;
origin = "{0, 33}";
target = "{0, 8}";
},
{
horizontal = 1;
origin = "{0, 21}";
target = "{0, 28}";
},
{
origin = "{0, 30}";
target = "{0, 37}";
},
{
origin = "{0, 40}";
target = "{0, 11}";
}
);
layerId = "1D8279CA-6213-4437-A9CB-DE6E86D89D97";
name = Bold;
paths = (
{
closed = 1;
nodes = (
"718 -7 LINE SMOOTH",
"730 -7 OFFCURVE",
"739 2 OFFCURVE",
"739 14 CURVE SMOOTH",
"739 82 LINE SMOOTH",
"739 94 OFFCURVE",
"730 103 OFFCURVE",
"718 103 CURVE SMOOTH",
"660 103 LINE SMOOTH",
"638 103 OFFCURVE",
"622 120 OFFCURVE",
"622 143 CURVE SMOOTH",
"622 472 LINE",
"718 472 LINE SMOOTH",
"730 472 OFFCURVE",
"739 481 OFFCURVE",
"739 493 CURVE SMOOTH",
"739 565 LINE SMOOTH",
"739 577 OFFCURVE",
"730 586 OFFCURVE",
"718 586 CURVE SMOOTH",
"78 586 LINE SMOOTH",
"66 586 OFFCURVE",
"57 577 OFFCURVE",
"57 565 CURVE SMOOTH",
"57 493 LINE SMOOTH",
"57 481 OFFCURVE",
"66 472 OFFCURVE",
"78 472 CURVE SMOOTH",
"174 472 LINE",
"174 21 LINE SMOOTH",
"174 9 OFFCURVE",
"183 0 OFFCURVE",
"195 0 CURVE SMOOTH",
"273 0 LINE SMOOTH",
"285 0 OFFCURVE",
"294 9 OFFCURVE",
"294 21 CURVE SMOOTH",
"294 472 LINE",
"502 472 LINE",
"502 134 LINE SMOOTH",
"502 46 OFFCURVE",
"555 -7 OFFCURVE",
"642 -7 CURVE SMOOTH"
);
}
);
width = 798;
}
);
unicode = 03C0;
},
{
glyphname = "alef-hb";
lastChange = "2016-03-12 18:34:24 +0000";
layers = (
{
anchors = (
{
name = bottom;
position = "{306, 0}";
},
{
name = bottomleft;
position = "{24, 0}";
},
{
name = center;
position = "{368, 404}";
},
{
name = top;
position = "{306, 573}";
},
{
name = topleft;
position = "{34, 573}";
}
);
hints = (
{
horizontal = 1;
origin = "{0, 53}";
target = "{0, 62}";
},
{
horizontal = 1;
origin = "{0, 18}";
target = "{0, 25}";
},
{
origin = "{0, 50}";
target = "{0, 62}";
},
{
origin = "{0, 27}";
target = "{0, 13}";
},
{
horizontal = 1;
origin = "{0, 34}";
target = down;
type = TopGhost;
},
{
horizontal = 1;
origin = "{0, 70}";
target = up;
type = BottomGhost;
}
);
layerId = "1D8279CA-6213-4437-A9CB-DE6E86D89D97";
name = Bold;
paths = (
{
closed = 1;
nodes = (
"453 -16 OFFCURVE",
"457 -15 OFFCURVE",
"461 -12 CURVE SMOOTH",
"524 33 LINE SMOOTH",
"530 37 OFFCURVE",
"534 44 OFFCURVE",
"534 51 CURVE SMOOTH",
"534 55 OFFCURVE",
"533 59 OFFCURVE",
"530 63 CURVE SMOOTH",
"423 216 LINE",
"505 242 OFFCURVE",
"555 308 OFFCURVE",
"555 394 CURVE SMOOTH",
"555 543 LINE SMOOTH",
"555 567 OFFCURVE",
"536 586 OFFCURVE",
"512 586 CURVE SMOOTH",
"369 586 LINE SMOOTH",
"357 586 OFFCURVE",
"348 577 OFFCURVE",
"348 565 CURVE SMOOTH",
"348 490 LINE SMOOTH",
"348 478 OFFCURVE",
"357 469 OFFCURVE",
"369 469 CURVE SMOOTH",
"435 469 LINE",
"435 389 LINE SMOOTH",
"435 346 OFFCURVE",
"401 315 OFFCURVE",
"356 311 CURVE",
"164 585 LINE SMOOTH",
"160 591 OFFCURVE",
"153 595 OFFCURVE",
"146 595 CURVE SMOOTH",
"142 595 OFFCURVE",
"138 594 OFFCURVE",
"134 591 CURVE SMOOTH",
"71 546 LINE SMOOTH",
"65 542 OFFCURVE",
"61 535 OFFCURVE",
"61 528 CURVE SMOOTH",
"61 524 OFFCURVE",
"62 520 OFFCURVE",
"65 516 CURVE SMOOTH",
"144 403 LINE",
"136 396 LINE SMOOTH",
"83 353 OFFCURVE",
"62 303 OFFCURVE",
"62 220 CURVE SMOOTH",
"62 43 LINE SMOOTH",
"62 19 OFFCURVE",
"81 0 OFFCURVE",
"105 0 CURVE SMOOTH",
"247 0 LINE SMOOTH",
"259 0 OFFCURVE",
"268 9 OFFCURVE",
"268 21 CURVE SMOOTH",
"268 96 LINE SMOOTH",
"268 108 OFFCURVE",
"259 117 OFFCURVE",
"247 117 CURVE SMOOTH",
"182 117 LINE",
"182 224 LINE SMOOTH",
"182 269 OFFCURVE",
"189 291 OFFCURVE",
"211 307 CURVE",
"431 -6 LINE SMOOTH",
"435 -13 OFFCURVE",
"442 -16 OFFCURVE",
"449 -16 CURVE SMOOTH"
);
}
);
width = 609;
}
);
leftKerningGroup = "alef-hb";
note = alef;
rightKerningGroup = "alef-hb";
unicode = 05D0;
},
{
glyphname = "bet-hb";
lastChange = "2016-03-12 18:34:24 +0000";
layers = (
{
anchors = (
{
name = bottom;
position = "{273, 0}";
},
{
name = bottomleft;
position = "{17, 0}";
},
{
name = center;
position = "{168, 297}";
},
{
name = top;
position = "{267, 573}";
},
{
name = topleft;
position = "{12, 573}";
}
);
hints = (
{
horizontal = 1;
origin = "{0, 30}";
target = "{0, 23}";
},
{
horizontal = 1;
origin = "{0, 12}";
target = "{0, 20}";
},
{
origin = "{0, 22}";
target = "{0, 8}";
}
);
layerId = "1D8279CA-6213-4437-A9CB-DE6E86D89D97";
name = Bold;
paths = (
{
closed = 1;
nodes = (
"497 0 LINE SMOOTH",
"509 0 OFFCURVE",
"518 9 OFFCURVE",
"518 21 CURVE SMOOTH",
"518 96 LINE SMOOTH",
"518 108 OFFCURVE",
"509 117 OFFCURVE",
"497 117 CURVE SMOOTH",
"427 117 LINE",
"427 543 LINE SMOOTH",
"427 567 OFFCURVE",
"408 586 OFFCURVE",
"384 586 CURVE SMOOTH",
"79 587 LINE SMOOTH",
"67 587 OFFCURVE",
"58 578 OFFCURVE",
"58 566 CURVE SMOOTH",
"58 491 LINE SMOOTH",
"58 479 OFFCURVE",
"67 470 OFFCURVE",
"79 470 CURVE SMOOTH",
"307 470 LINE",
"307 117 LINE",
"56 117 LINE SMOOTH",
"44 117 OFFCURVE",
"35 108 OFFCURVE",
"35 96 CURVE SMOOTH",
"35 21 LINE SMOOTH",
"35 9 OFFCURVE",
"44 0 OFFCURVE",
"56 0 CURVE SMOOTH"
);
}
);
width = 541;
}
);
leftKerningGroup = "bet-hb";
note = bet;
rightKerningGroup = "bet-hb";
unicode = 05D1;
},
{
glyphname = "gimel-hb";
lastChange = "2016-03-12 18:34:24 +0000";
layers = (
{
anchors = (
{
name = bottom;
position = "{192, 0}";
},
{
name = bottomleft;
position = "{19, 0}";
},
{
name = center;
position = "{123, 307}";
},
{
name = top;
position = "{213, 573}";
},
{
name = topleft;
position = "{29, 573}";
}
);
hints = (
{
horizontal = 1;
origin = "{0, 39}";
target = "{0, 32}";
},
{
horizontal = 1;
origin = "{0, 18}";
target = "{0, 25}";
},
{
horizontal = 1;
origin = "{0, 9}";
target = up;
type = BottomGhost;
},
{
origin = "{0, 4}";
target = "{0, 13}";
}
);
layerId = "1D8279CA-6213-4437-A9CB-DE6E86D89D97";
name = Bold;
paths = (
{
closed = 1;
nodes = (
"52 -5 LINE SMOOTH",
"105 -5 OFFCURVE",
"140 16 OFFCURVE",
"207 62 CURVE SMOOTH",
"229 77 LINE",
"233 77 LINE",
"233 21 LINE SMOOTH",
"233 9 OFFCURVE",
"242 0 OFFCURVE",
"254 0 CURVE SMOOTH",
"328 0 LINE SMOOTH",
"340 0 OFFCURVE",
"349 9 OFFCURVE",
"349 21 CURVE SMOOTH",
"349 543 LINE SMOOTH",
"349 567 OFFCURVE",
"330 586 OFFCURVE",
"306 586 CURVE SMOOTH",
"100 586 LINE SMOOTH",
"88 586 OFFCURVE",
"79 577 OFFCURVE",
"79 565 CURVE SMOOTH",
"79 490 LINE SMOOTH",
"79 478 OFFCURVE",
"88 469 OFFCURVE",
"100 469 CURVE SMOOTH",
"229 469 LINE",
"229 208 LINE",
"197 186 LINE SMOOTH",
"111 127 OFFCURVE",
"89 112 OFFCURVE",
"54 112 CURVE SMOOTH",
"43 112 LINE SMOOTH",
"31 112 OFFCURVE",
"22 103 OFFCURVE",
"22 91 CURVE SMOOTH",
"22 16 LINE SMOOTH",
"22 4 OFFCURVE",
"31 -5 OFFCURVE",
"42 -5 CURVE SMOOTH"
);
}
);
width = 429;
}
);
leftKerningGroup = "gimel-hb";
note = gimel;
rightKerningGroup = "gimel-hb";
unicode = 05D2;
},
{
glyphname = "dalet-hb";
lastChange = "2016-03-12 18:34:24 +0000";
layers = (
{
anchors = (
{
name = bottom;
position = "{351, 0}";
},
{
name = bottomleft;
position = "{22, 0}";
},
{
name = center;
position = "{181, 287}";
},
{
name = top;
position = "{274, 573}";
},
{
name = topleft;
position = "{2, 573}";
}
);
hints = (
{
horizontal = 1;
origin = "{0, 25}";
target = up;
type = BottomGhost;
},
{
horizontal = 1;
origin = "{0, 13}";
target = "{0, 20}";
},
{
origin = "{0, 22}";
target = "{0, 3}";
}
);
layerId = "1D8279CA-6213-4437-A9CB-DE6E86D89D97";
name = Bold;
paths = (
{
closed = 1;
nodes = (
"391 0 LINE SMOOTH",
"403 0 OFFCURVE",
"412 9 OFFCURVE",
"412 21 CURVE SMOOTH",
"412 468 LINE",
"491 468 LINE SMOOTH",
"503 468 OFFCURVE",
"512 477 OFFCURVE",
"512 489 CURVE SMOOTH",
"512 565 LINE SMOOTH",
"512 577 OFFCURVE",
"503 586 OFFCURVE",
"491 586 CURVE SMOOTH",
"61 586 LINE SMOOTH",
"49 586 OFFCURVE",
"40 577 OFFCURVE",
"40 565 CURVE SMOOTH",
"40 489 LINE SMOOTH",
"40 477 OFFCURVE",
"49 468 OFFCURVE",
"61 468 CURVE SMOOTH",
"292 468 LINE",
"292 21 LINE SMOOTH",
"292 9 OFFCURVE",
"301 0 OFFCURVE",
"313 0 CURVE SMOOTH"
);
}
);
width = 548;
}
);
leftKerningGroup = "dalet-hb";
note = dalet;
rightKerningGroup = "dalet-hb";
unicode = 05D3;
},
{
glyphname = "he-hb";
lastChange = "2016-03-12 18:34:24 +0000";
layers = (
{
anchors = (
{
name = bottom;
position = "{306, 0}";
},
{
name = bottomleft;
position = "{16, 0}";
},
{
name = center;
position = "{306, 336}";
},
{
name = top;
position = "{306, 573}";
},
{
name = topleft;
position = "{23, 573}";
}
);
hints = (
{
horizontal = 1;
origin = "{1, 15}";
target = up;
type = BottomGhost;
},
{
horizontal = 1;
origin = "{0, 8}";
target = "{0, 15}";
},
{
origin = "{1, 12}";
target = "{1, 3}";
},
{
origin = "{0, 17}";
target = "{0, 3}";
}
);
layerId = "1D8279CA-6213-4437-A9CB-DE6E86D89D97";
name = Bold;
paths = (
{
closed = 1;
nodes = (
"517 0 LINE SMOOTH",
"529 0 OFFCURVE",
"538 9 OFFCURVE",
"538 21 CURVE SMOOTH",
"538 543 LINE SMOOTH",
"538 567 OFFCURVE",
"519 586 OFFCURVE",
"495 586 CURVE SMOOTH",
"95 586 LINE SMOOTH",
"83 586 OFFCURVE",
"74 577 OFFCURVE",
"74 565 CURVE SMOOTH",
"74 490 LINE SMOOTH",
"74 478 OFFCURVE",
"83 469 OFFCURVE",
"95 469 CURVE SMOOTH",
"418 468 LINE",
"418 21 LINE SMOOTH",
"418 9 OFFCURVE",
"427 0 OFFCURVE",
"439 0 CURVE SMOOTH"
);
},
{
closed = 1;
nodes = (
"173 0 LINE SMOOTH",
"185 0 OFFCURVE",
"194 9 OFFCURVE",
"194 21 CURVE SMOOTH",
"194 314 LINE SMOOTH",
"194 326 OFFCURVE",
"185 335 OFFCURVE",
"173 335 CURVE SMOOTH",
"95 335 LINE SMOOTH",
"83 335 OFFCURVE",
"74 326 OFFCURVE",
"74 314 CURVE SMOOTH",
"74 21 LINE SMOOTH",
"74 9 OFFCURVE",
"83 0 OFFCURVE",
"95 0 CURVE SMOOTH"
);
}
);
width = 618;
}
);
leftKerningGroup = "he-hb";
note = he;
rightKerningGroup = "he-hb";
unicode = 05D4;
},
{
glyphname = "vav-hb";
lastChange = "2016-03-12 18:34:24 +0000";
layers = (
{
anchors = (
{
name = bottom;
position = "{203, 0}";
},
{
name = bottomleft;
position = "{22, 0}";
},
{
name = center;
position = "{51, 287}";
},
{
name = top;
position = "{171, 573}";
},
{
name = topleft;
position = "{165, 573}";
}
);
hints = (
{
horizontal = 1;
origin = "{0, 20}";
target = up;
type = BottomGhost;
},
{
horizontal = 1;
origin = "{0, 8}";
target = "{0, 15}";
},
{
origin = "{0, 17}";
target = "{0, 3}";
}
);
layerId = "1D8279CA-6213-4437-A9CB-DE6E86D89D97";
name = Bold;
paths = (
{
closed = 1;
nodes = (
"241 0 LINE SMOOTH",
"253 0 OFFCURVE",
"262 9 OFFCURVE",
"262 21 CURVE SMOOTH",
"262 543 LINE SMOOTH",
"262 567 OFFCURVE",
"243 586 OFFCURVE",
"219 586 CURVE SMOOTH",
"65 586 LINE SMOOTH",
"53 586 OFFCURVE",
"44 577 OFFCURVE",
"44 565 CURVE SMOOTH",
"44 489 LINE SMOOTH",
"44 477 OFFCURVE",
"53 468 OFFCURVE",
"65 468 CURVE SMOOTH",
"142 468 LINE",
"142 21 LINE SMOOTH",
"142 9 OFFCURVE",
"151 0 OFFCURVE",
"163 0 CURVE SMOOTH"
);
}
);
width = 339;
}
);
leftKerningGroup = "vav-hb";
note = vav;
rightKerningGroup = "vav-hb";
unicode = 05D5;
},
{
glyphname = "zayin-hb";
lastChange = "2016-03-12 18:34:24 +0000";
layers = (
{
anchors = (
{
name = bottom;
position = "{214, 0}";
},
{
name = bottomleft;
position = "{22, 0}";
},
{
name = center;
position = "{317, 333}";
},
{
name = top;
position = "{196, 573}";
},
{
name = topleft;
position = "{2, 573}";
}
);
hints = (
{
horizontal = 1;
origin = "{0, 36}";
target = up;
type = BottomGhost;
},
{
horizontal = 1;
origin = "{0, 18}";
target = "{0, 25}";
},
{
origin = "{0, 33}";
target = "{0, 3}";
},
{
origin = "{0, 29}";
target = "{0, 7}";
}
);
layerId = "1D8279CA-6213-4437-A9CB-DE6E86D89D97";
name = Bold;
paths = (
{
closed = 1;
nodes = (
"249 0 LINE SMOOTH",
"261 0 OFFCURVE",
"270 9 OFFCURVE",
"270 21 CURVE SMOOTH",
"270 63 LINE SMOOTH",
"270 176 OFFCURVE",
"225 270 OFFCURVE",
"225 340 CURVE SMOOTH",
"225 405 OFFCURVE",
"262 450 OFFCURVE",
"336 471 CURVE SMOOTH",
"348 475 OFFCURVE",
"357 485 OFFCURVE",
"357 498 CURVE SMOOTH",
"357 565 LINE SMOOTH",
"357 577 OFFCURVE",
"348 586 OFFCURVE",
"336 586 CURVE SMOOTH",
"61 586 LINE SMOOTH",
"49 586 OFFCURVE",
"40 577 OFFCURVE",
"40 565 CURVE SMOOTH",
"40 489 LINE SMOOTH",
"40 477 OFFCURVE",
"49 468 OFFCURVE",
"61 468 CURVE SMOOTH",
"165 468 LINE",
"124 431 OFFCURVE",
"105 381 OFFCURVE",
"105 326 CURVE SMOOTH",
"105 258 OFFCURVE",
"150 163 OFFCURVE",
"150 63 CURVE SMOOTH",
"150 21 LINE SMOOTH",
"150 9 OFFCURVE",
"159 0 OFFCURVE",
"171 0 CURVE SMOOTH"
);
}
);
width = 397;
}
);
leftKerningGroup = "zayin-hb";
note = zayin;
rightKerningGroup = "zayin-hb";
unicode = 05D6;
},
{
glyphname = "het-hb";
lastChange = "2016-03-12 18:34:24 +0000";
layers = (
{
anchors = (
{
name = bottom;
position = "{327, 0}";
},
{
name = bottomleft;
position = "{32, 0}";
},
{
name = center;
position = "{327, 287}";
},
{
name = top;
position = "{327, 573}";
},
{
name = topleft;
position = "{8, 573}";
}
);
hints = (
{
horizontal = 1;
origin = "{0, 35}";
target = up;
type = BottomGhost;
},
{
horizontal = 1;
origin = "{0, 23}";
target = "{0, 30}";
},
{
origin = "{0, 32}";
target = "{0, 3}";
},
{
origin = "{0, 6}";
target = "{0, 13}";
}
);
layerId = "1D8279CA-6213-4437-A9CB-DE6E86D89D97";
name = Bold;
paths = (
{
closed = 1;
nodes = (
"206 0 LINE SMOOTH",
"218 0 OFFCURVE",
"227 9 OFFCURVE",
"227 21 CURVE SMOOTH",
"227 468 LINE",
"417 468 LINE",
"417 21 LINE SMOOTH",
"417 9 OFFCURVE",
"426 0 OFFCURVE",
"438 0 CURVE SMOOTH",
"516 0 LINE SMOOTH",
"528 0 OFFCURVE",
"537 9 OFFCURVE",
"537 21 CURVE SMOOTH",
"537 468 LINE",
"583 468 LINE SMOOTH",
"595 468 OFFCURVE",
"604 477 OFFCURVE",
"604 489 CURVE SMOOTH",
"604 565 LINE SMOOTH",
"604 577 OFFCURVE",
"595 586 OFFCURVE",
"583 586 CURVE SMOOTH",
"61 586 LINE SMOOTH",
"49 586 OFFCURVE",
"40 577 OFFCURVE",
"40 565 CURVE SMOOTH",
"40 489 LINE SMOOTH",
"40 477 OFFCURVE",
"49 468 OFFCURVE",
"61 468 CURVE SMOOTH",
"107 468 LINE",
"107 21 LINE SMOOTH",
"107 9 OFFCURVE",
"116 0 OFFCURVE",
"128 0 CURVE SMOOTH"
);
}
);
width = 645;
}
);
leftKerningGroup = "het-hb";
note = het;
rightKerningGroup = "het-hb";
unicode = 05D7;
},
{
glyphname = "tet-hb";
lastChange = "2016-03-12 18:34:24 +0000";
layers = (
{
anchors = (
{
name = bottom;
position = "{311, 0}";
},
{
name = bottomleft;
position = "{16, 0}";
},
{
name = center;
position = "{359, 202}";
},
{
name = top;
position = "{314, 573}";
},
{
name = topleft;
position = "{40, 573}";
}
);
hints = (
{
horizontal = 1;
origin = "{0, 42}";
target = "{0, 30}";
},
{
horizontal = 1;
origin = "{0, 35}";
target = down;
type = TopGhost;
},
{
horizontal = 1;
origin = "{0, 22}";
target = "{0, 7}";
},
{
origin = "{0, 39}";
target = "{0, 30}";
},
{
origin = "{0, 11}";
target = "{0, 18}";
},
{
origin = "{0, 26}";
target = "{0, 3}";
},
{
horizontal = 1;
origin = "{0, 15}";
target = up;
type = BottomGhost;
}
);
layerId = "1D8279CA-6213-4437-A9CB-DE6E86D89D97";
name = Bold;
paths = (
{
closed = 1;
nodes = (
"353 0 LINE SMOOTH",
"474 0 OFFCURVE",
"573 99 OFFCURVE",
"573 220 CURVE SMOOTH",
"573 440 LINE SMOOTH",
"573 532 OFFCURVE",
"511 596 OFFCURVE",
"422 596 CURVE SMOOTH",
"333 596 OFFCURVE",
"262 527 OFFCURVE",
"262 440 CURVE SMOOTH",
"262 297 LINE SMOOTH",
"262 285 OFFCURVE",
"271 276 OFFCURVE",
"283 276 CURVE SMOOTH",
"359 276 LINE SMOOTH",
"371 276 OFFCURVE",
"380 285 OFFCURVE",
"380 297 CURVE SMOOTH",
"380 443 LINE SMOOTH",
"380 464 OFFCURVE",
"396 480 OFFCURVE",
"418 480 CURVE SMOOTH",
"440 480 OFFCURVE",
"454 465 OFFCURVE",
"454 441 CURVE SMOOTH",
"454 228 LINE SMOOTH",
"454 166 OFFCURVE",
"405 117 OFFCURVE",
"343 117 CURVE SMOOTH",
"194 117 LINE",
"194 565 LINE SMOOTH",
"194 577 OFFCURVE",
"185 586 OFFCURVE",
"173 586 CURVE SMOOTH",
"95 586 LINE SMOOTH",
"83 586 OFFCURVE",
"74 577 OFFCURVE",
"74 565 CURVE SMOOTH",
"74 43 LINE SMOOTH",
"74 19 OFFCURVE",
"93 0 OFFCURVE",
"117 0 CURVE SMOOTH"
);
}
);
width = 632;
}
);
leftKerningGroup = "tet-hb";
note = tet;
rightKerningGroup = "tet-hb";
unicode = 05D8;
},
{
glyphname = "yod-hb";
lastChange = "2016-03-12 18:34:24 +0000";
layers = (
{
anchors = (
{
name = bottom;
position = "{198, 0}";
},
{
name = bottomleft;
position = "{21, 0}";
},
{
name = center;
position = "{44, 356}";
},
{
name = top;
position = "{158, 573}";
},
{
name = topleft;
position = "{9, 573}";
}
);
hints = (
{
horizontal = 1;
origin = "{0, 8}";
target = "{0, 15}";
},
{
origin = "{0, 17}";
target = "{0, 3}";
}
);
layerId = "1D8279CA-6213-4437-A9CB-DE6E86D89D97";
name = Bold;
paths = (
{
closed = 1;
nodes = (
"240 229 LINE SMOOTH",
"252 229 OFFCURVE",
"261 238 OFFCURVE",
"261 250 CURVE SMOOTH",
"261 543 LINE SMOOTH",
"261 567 OFFCURVE",
"242 586 OFFCURVE",
"218 586 CURVE SMOOTH",
"65 586 LINE SMOOTH",
"53 586 OFFCURVE",
"44 577 OFFCURVE",
"44 565 CURVE SMOOTH",
"44 489 LINE SMOOTH",
"44 477 OFFCURVE",
"53 468 OFFCURVE",
"65 468 CURVE SMOOTH",
"141 468 LINE",
"141 250 LINE SMOOTH",
"141 238 OFFCURVE",
"150 229 OFFCURVE",
"162 229 CURVE SMOOTH"
);
}
);
width = 321;
}
);
leftKerningGroup = "yod-hb";
note = yod;
rightKerningGroup = "yod-hb";
unicode = 05D9;
},
{
glyphname = "finalkaf-hb";
lastChange = "2016-03-12 18:34:24 +0000";
layers = (
{
anchors = (
{
name = bottom;
position = "{129, 403}";
},
{
name = bottomleft;
position = "{22, 0}";
},
{
name = center;
position = "{158, 287}";
},
{
name = top;
position = "{277, 573}";
},
{
name = topleft;
position = "{4, 573}";
}
);
hints = (
{
horizontal = 1;
origin = "{0, 30}";
target = "{0, 8}";
},
{
horizontal = 1;
origin = "{0, 18}";
target = "{0, 25}";
},
{
origin = "{0, 27}";
target = "{0, 8}";
}
);
layerId = "1D8279CA-6213-4437-A9CB-DE6E86D89D97";
name = Bold;
paths = (
{
closed = 1;
nodes = (
"493 -145 LINE SMOOTH",
"505 -145 OFFCURVE",
"514 -136 OFFCURVE",
"514 -124 CURVE SMOOTH",
"514 -51 LINE SMOOTH",
"514 -39 OFFCURVE",
"505 -30 OFFCURVE",
"493 -30 CURVE SMOOTH",
"430 -30 LINE",
"430 468 LINE",
"493 468 LINE SMOOTH",
"505 468 OFFCURVE",
"514 477 OFFCURVE",
"514 489 CURVE SMOOTH",
"514 565 LINE SMOOTH",
"514 577 OFFCURVE",
"505 586 OFFCURVE",
"493 586 CURVE SMOOTH",
"61 586 LINE SMOOTH",
"49 586 OFFCURVE",
"40 577 OFFCURVE",
"40 565 CURVE SMOOTH",
"40 489 LINE SMOOTH",
"40 477 OFFCURVE",
"49 468 OFFCURVE",
"61 468 CURVE SMOOTH",
"310 468 LINE",
"310 -102 LINE SMOOTH",
"310 -126 OFFCURVE",
"329 -145 OFFCURVE",
"353 -145 CURVE SMOOTH"
);
}
);
width = 555;
}
);
leftKerningGroup = "finalkaf-hb";
note = finalkaf;
rightKerningGroup = "finalkaf-hb";
unicode = 05DA;
},
{
glyphname = "kaf-hb";
lastChange = "2016-03-12 18:34:24 +0000";
layers = (
{
anchors = (
{
name = bottom;
position = "{256, 0}";
},
{
name = bottomleft;
position = "{9, 0}";
},
{
name = center;
position = "{196, 296}";
},
{
name = top;
position = "{264, 573}";
},
{
name = topleft;
position = "{19, 573}";
}
);
hints = (
{
horizontal = 1;
origin = "{0, 28}";
target = "{0, 21}";
},
{
horizontal = 1;
origin = "{0, 8}";
target = "{0, 15}";
},
{
origin = "{0, 17}";
target = "{0, 3}";
}
);
layerId = "1D8279CA-6213-4437-A9CB-DE6E86D89D97";
name = Bold;
paths = (
{
closed = 1;
nodes = (
"322 0 LINE SMOOTH",
"407 0 OFFCURVE",
"470 61 OFFCURVE",
"470 144 CURVE SMOOTH",
"470 543 LINE SMOOTH",
"470 567 OFFCURVE",
"451 586 OFFCURVE",
"427 586 CURVE SMOOTH",
"82 586 LINE SMOOTH",
"70 586 OFFCURVE",
"61 577 OFFCURVE",
"61 565 CURVE SMOOTH",
"61 489 LINE SMOOTH",
"61 477 OFFCURVE",
"70 468 OFFCURVE",
"82 468 CURVE SMOOTH",
"350 468 LINE",
"350 144 LINE SMOOTH",
"350 130 OFFCURVE",
"337 118 OFFCURVE",
"322 118 CURVE SMOOTH",
"73 118 LINE SMOOTH",
"61 118 OFFCURVE",
"52 109 OFFCURVE",
"52 97 CURVE SMOOTH",
"52 21 LINE SMOOTH",
"52 9 OFFCURVE",
"61 0 OFFCURVE",
"73 0 CURVE SMOOTH"
);
}
);
width = 542;
}
);
leftKerningGroup = "kaf-hb";
note = kaf;
rightKerningGroup = "kaf-hb";
unicode = 05DB;
},
{
glyphname = "lamed-hb";
lastChange = "2016-03-12 18:34:24 +0000";
layers = (
{
anchors = (
{
name = bottom;
position = "{218, 0}";
},
{
name = bottomleft;
position = "{12, 0}";
},
{
name = center;
position = "{146, 366}";
},
{
name = top;
position = "{251, 573}";
},
{
name = topleft;
position = "{-60, 573}";
}
);
hints = (
{
horizontal = 1;
origin = "{0, 33}";
target = up;
type = BottomGhost;
},
{
horizontal = 1;
origin = "{0, 12}";
target = "{0, 24}";
},
{
origin = "{0, 30}";
target = "{0, 3}";
},
{
origin = "{0, 26}";
target = "{0, 7}";
},
{
origin = "{0, 21}";
target = "{0, 12}";
}
);
layerId = "1D8279CA-6213-4437-A9CB-DE6E86D89D97";
name = Bold;
paths = (
{
closed = 1;
nodes = (
"257 0 LINE SMOOTH",
"269 0 OFFCURVE",
"278 9 OFFCURVE",
"278 21 CURVE SMOOTH",
"278 84 LINE SMOOTH",
"278 243 OFFCURVE",
"472 258 OFFCURVE",
"472 500 CURVE SMOOTH",
"472 543 LINE SMOOTH",
"472 567 OFFCURVE",
"453 586 OFFCURVE",
"429 586 CURVE SMOOTH",
"160 586 LINE",
"160 715 LINE SMOOTH",
"160 727 OFFCURVE",
"151 736 OFFCURVE",
"139 736 CURVE SMOOTH",
"61 736 LINE SMOOTH",
"49 736 OFFCURVE",
"40 727 OFFCURVE",
"40 715 CURVE SMOOTH",
"40 511 LINE SMOOTH",
"40 487 OFFCURVE",
"59 468 OFFCURVE",
"83 468 CURVE SMOOTH",
"354 468 LINE",
"354 467 LINE SMOOTH",
"354 343 OFFCURVE",
"156 301 OFFCURVE",
"156 76 CURVE SMOOTH",
"156 21 LINE SMOOTH",
"156 9 OFFCURVE",
"165 0 OFFCURVE",
"177 0 CURVE SMOOTH"
);
}
);
width = 513;
}
);
leftKerningGroup = "lamed-hb";
note = lamed;
rightKerningGroup = "lamed-hb";
unicode = 05DC;
},
{
glyphname = "finalmem-hb";
lastChange = "2016-03-12 18:34:24 +0000";
layers = (
{
hints = (
{
horizontal = 1;
origin = "{0, 20}";
target = "{1, 3}";
},
{
horizontal = 1;
origin = "{0, 8}";
target = "{0, 15}";
},
{
origin = "{0, 17}";
target = "{1, 3}";
},
{
origin = "{1, 2}";
target = "{0, 3}";
}
);
layerId = "1D8279CA-6213-4437-A9CB-DE6E86D89D97";
name = Bold;
paths = (
{
closed = 1;
nodes = (
"515 0 LINE SMOOTH",
"539 0 OFFCURVE",
"558 19 OFFCURVE",
"558 43 CURVE SMOOTH",
"558 543 LINE SMOOTH",
"558 567 OFFCURVE",
"539 586 OFFCURVE",
"515 586 CURVE SMOOTH",
"61 586 LINE SMOOTH",
"49 586 OFFCURVE",
"40 577 OFFCURVE",
"40 565 CURVE SMOOTH",
"40 489 LINE SMOOTH",
"40 477 OFFCURVE",
"49 468 OFFCURVE",
"61 468 CURVE SMOOTH",
"118 468 LINE",
"118 43 LINE SMOOTH",
"118 19 OFFCURVE",
"137 0 OFFCURVE",
"161 0 CURVE SMOOTH"
);
},
{
closed = 1;
nodes = (
"238 468 LINE",
"438 468 LINE",
"438 118 LINE",
"238 118 LINE"
);
}
);
width = 638;
}
);
note = finalmem;
unicode = 05DD;
},
